<svg width="183" height="55" viewBox="0 0 183 55" fill="none" xmlns="http://www.w3.org/2000/svg">
<path d="M33.5758 27.5191C33.6051 25.2404 34.8289 23.0843 36.7702 21.8908C35.5455 20.1417 33.4942 19.0327 31.36 18.9659C29.0837 18.727 26.8769 20.328 25.717 20.328C24.5345 20.328 22.7486 18.9896 20.8254 19.0292C18.3187 19.1102 15.9817 20.5354 14.7621 22.727C12.1405 27.2659 14.096 33.9367 16.6073 37.6057C17.8638 39.4022 19.3322 41.4091 21.2537 41.3379C23.1339 41.2599 23.8361 40.1389 26.1057 40.1389C28.3543 40.1389 29.0131 41.3379 30.9735 41.2927C32.9911 41.2599 34.2623 39.4881 35.4747 37.6745C36.3774 36.3944 37.0721 34.9795 37.533 33.4824C35.1619 32.4796 33.5786 30.0935 33.5758 27.5191Z" fill="black"/>
<path d="M29.8729 16.553C30.9729 15.2324 31.5149 13.535 31.3837 11.8213C29.703 11.9978 28.1505 12.8011 27.0356 14.071C25.9454 15.3118 25.378 16.9793 25.4852 18.6275C27.1665 18.6448 28.8193 17.8634 29.8729 16.553Z" fill="black"/>
<path d="M110.513 26.028V29.1336H108.566V31.1703H110.513V38.0904C110.513 40.4533 111.582 41.3985 114.271 41.3985C114.744 41.3985 115.194 41.3422 115.588 41.2747V39.2606C115.25 39.2943 115.036 39.3169 114.665 39.3169C113.461 39.3169 112.932 38.7542 112.932 37.4715V31.1703H115.588V29.1336H112.932V26.028H110.513Z" fill="black"/>
<path d="M122.438 41.5673C126.017 41.5673 128.211 39.1706 128.211 35.1986C128.211 31.249 126.005 28.8411 122.438 28.8411C118.86 28.8411 116.655 31.249 116.655 35.1986C116.655 39.1706 118.849 41.5673 122.438 41.5673ZM122.438 39.4181C120.334 39.4181 119.153 37.8766 119.153 35.1986C119.153 32.543 120.334 30.9902 122.438 30.9902C124.531 30.9902 125.724 32.543 125.724 35.1986C125.724 37.8653 124.531 39.4181 122.438 39.4181Z" fill="black"/>
<path d="M130.088 41.331H132.507V34.0958C132.507 32.3743 133.801 31.2153 135.635 31.2153C136.063 31.2153 136.783 31.2941 136.986 31.3616V28.9761C136.727 28.9086 136.266 28.8748 135.905 28.8748C134.308 28.8748 132.946 29.7525 132.597 30.9565H132.417V29.0774H130.088V41.331Z" fill="black"/>
<path d="M142.993 30.9002C144.782 30.9002 145.952 32.1492 146.008 34.0733H139.819C139.954 32.1605 141.203 30.9002 142.993 30.9002ZM145.997 38.0229C145.547 38.9793 144.545 39.5081 143.083 39.5081C141.147 39.5081 139.898 38.1466 139.819 35.9975V35.8624H148.472V35.0185C148.472 31.1703 146.413 28.8411 143.004 28.8411C139.549 28.8411 137.355 31.3278 137.355 35.2436C137.355 39.1593 139.504 41.5673 143.015 41.5673C145.817 41.5673 147.775 40.217 148.326 38.0229H145.997Z" fill="black"/>
<path d="M94.6481 36.8059C94.8347 39.8149 97.3421 41.7392 101.074 41.7392C105.063 41.7392 107.559 39.7216 107.559 36.5027C107.559 33.9719 106.136 32.5724 102.684 31.7677L100.829 31.3129C98.6367 30.7997 97.7503 30.1116 97.7503 28.9104C97.7503 27.3943 99.1265 26.4029 101.191 26.4029C103.15 26.4029 104.503 27.3709 104.748 28.922H107.29C107.139 26.088 104.643 24.0938 101.226 24.0938C97.5521 24.0938 95.1029 26.088 95.1029 29.0853C95.1029 31.5578 96.4908 33.0273 99.5347 33.7387L101.704 34.2635C103.931 34.7883 104.911 35.558 104.911 36.8409C104.911 38.3337 103.372 39.4183 101.272 39.4183C99.0215 39.4183 97.4588 38.4037 97.2372 36.8059H94.6481Z" fill="black"/>
<path d="M69.5875 28.8748C67.9222 28.8748 66.4819 29.7075 65.7392 31.1028H65.5592V29.0774H63.23V45.4043H65.6492V39.4744H65.8405C66.4819 40.7684 67.8659 41.5335 69.61 41.5335C72.7043 41.5335 74.6735 39.0918 74.6735 35.1986C74.6735 31.3053 72.7043 28.8748 69.5875 28.8748ZM68.9011 39.3619C66.8757 39.3619 65.6042 37.7641 65.6042 35.2098C65.6042 32.6443 66.8757 31.0465 68.9123 31.0465C70.9602 31.0465 72.1867 32.6106 72.1867 35.1986C72.1867 37.7978 70.9602 39.3619 68.9011 39.3619Z" fill="black"/>
<path d="M83.1387 28.8748C81.4734 28.8748 80.0331 29.7075 79.2904 31.1028H79.1104V29.0774H76.7812V45.4043H79.2004V39.4744H79.3917C80.0331 40.7684 81.4171 41.5335 83.1612 41.5335C86.2555 41.5335 88.2247 39.0918 88.2247 35.1986C88.2247 31.3053 86.2555 28.8748 83.1387 28.8748ZM82.4523 39.3619C80.4269 39.3619 79.1554 37.7641 79.1554 35.2098C79.1554 32.6443 80.4269 31.0465 82.4636 31.0465C84.5115 31.0465 85.7379 32.6106 85.7379 35.1986C85.7379 37.7978 84.5115 39.3619 82.4523 39.3619Z" fill="black"/>
<path d="M58.8895 41.331H61.6652L55.589 24.5019H52.7783L46.7021 41.331H49.3845L50.9357 36.8642H57.3501L58.8895 41.331ZM54.0496 27.5575H54.2478L56.6853 34.6717H51.6004L54.0496 27.5575Z" fill="black"/>
<path d="M48.3271 11.8081V19.9266H51.2583C53.6776 19.9266 55.0785 18.4357 55.0785 15.842C55.0785 13.2878 53.6663 11.8081 51.2583 11.8081H48.3271ZM49.5874 12.9559H51.1177C52.7999 12.9559 53.7957 14.0248 53.7957 15.8589C53.7957 17.7212 52.8168 18.7789 51.1177 18.7789H49.5874V12.9559Z" fill="black"/>
<path d="M59.3689 20.0447C61.158 20.0447 62.2551 18.8464 62.2551 16.8604C62.2551 14.8856 61.1524 13.6816 59.3689 13.6816C57.5798 13.6816 56.4771 14.8856 56.4771 16.8604C56.4771 18.8464 57.5742 20.0447 59.3689 20.0447ZM59.3689 18.9701C58.3168 18.9701 57.7261 18.1994 57.7261 16.8604C57.7261 15.5326 58.3168 14.7562 59.3689 14.7562C60.4154 14.7562 61.0117 15.5326 61.0117 16.8604C61.0117 18.1937 60.4154 18.9701 59.3689 18.9701Z" fill="black"/>
<path d="M71.5978 13.7998H70.3882L69.2967 18.4751H69.201L67.9408 13.7998H66.7818L65.5216 18.4751H65.4316L64.3345 13.7998H63.108L64.7958 19.9266H66.0392L67.2994 15.4145H67.3951L68.6609 19.9266H69.9156L71.5978 13.7998Z" fill="black"/>
<path d="M72.9908 19.9266H74.2004V16.3428C74.2004 15.3863 74.7686 14.79 75.6632 14.79C76.5577 14.79 76.9853 15.2794 76.9853 16.264V19.9266H78.1949V15.9602C78.1949 14.503 77.441 13.6816 76.0739 13.6816C75.1512 13.6816 74.5436 14.0923 74.2454 14.7731H74.1554V13.7998H72.9908V19.9266Z" fill="black"/>
<path d="M80.0999 19.9266H81.3095V11.4087H80.0999V19.9266Z" fill="black"/>
<path d="M85.8588 20.0447C87.6479 20.0447 88.7449 18.8464 88.7449 16.8604C88.7449 14.8856 87.6422 13.6816 85.8588 13.6816C84.0697 13.6816 82.967 14.8856 82.967 16.8604C82.967 18.8464 84.064 20.0447 85.8588 20.0447ZM85.8588 18.9701C84.8067 18.9701 84.2159 18.1994 84.2159 16.8604C84.2159 15.5326 84.8067 14.7562 85.8588 14.7562C86.9052 14.7562 87.5016 15.5326 87.5016 16.8604C87.5016 18.1937 86.9052 18.9701 85.8588 18.9701Z" fill="black"/>
<path d="M92.349 19.0095C91.6908 19.0095 91.2125 18.6888 91.2125 18.1375C91.2125 17.5974 91.5951 17.3105 92.439 17.2542L93.9356 17.1585V17.6705C93.9356 18.43 93.2604 19.0095 92.349 19.0095ZM92.0396 20.0279C92.8441 20.0279 93.5136 19.679 93.8793 19.0658H93.975V19.9266H95.1395V15.7408C95.1395 14.4468 94.2731 13.6816 92.7372 13.6816C91.3476 13.6816 90.3574 14.3568 90.2336 15.4088H91.4038C91.5389 14.9756 92.0058 14.7281 92.681 14.7281C93.508 14.7281 93.9356 15.0938 93.9356 15.7408V16.2696L92.2759 16.3653C90.8187 16.4553 89.9973 17.091 89.9973 18.1937C89.9973 19.3133 90.8581 20.0279 92.0396 20.0279Z" fill="black"/>
<path d="M99.2443 20.0279C100.088 20.0279 100.803 19.6284 101.168 18.9589H101.264V19.9266H102.423V11.4087H101.213V14.7731H101.123C100.792 14.098 100.083 13.6985 99.2443 13.6985C97.6972 13.6985 96.7014 14.925 96.7014 16.8604C96.7014 18.8014 97.6859 20.0279 99.2443 20.0279ZM99.5875 14.7843C100.6 14.7843 101.236 15.5889 101.236 16.866C101.236 18.1487 100.606 18.942 99.5875 18.942C98.5636 18.942 97.9503 18.16 97.9503 16.8604C97.9503 15.572 98.5692 14.7843 99.5875 14.7843Z" fill="black"/>
<path d="M110.267 20.0447C112.056 20.0447 113.153 18.8464 113.153 16.8604C113.153 14.8856 112.05 13.6816 110.267 13.6816C108.478 13.6816 107.375 14.8856 107.375 16.8604C107.375 18.8464 108.472 20.0447 110.267 20.0447ZM110.267 18.9701C109.215 18.9701 108.624 18.1994 108.624 16.8604C108.624 15.5326 109.215 14.7562 110.267 14.7562C111.313 14.7562 111.91 15.5326 111.91 16.8604C111.91 18.1937 111.313 18.9701 110.267 18.9701Z" fill="black"/>
<path d="M114.754 19.9266H115.964V16.3428C115.964 15.3863 116.532 14.79 117.427 14.79C118.321 14.79 118.749 15.2794 118.749 16.264V19.9266H119.958V15.9602C119.958 14.503 119.205 13.6816 117.837 13.6816C116.915 13.6816 116.307 14.0923 116.009 14.7731H115.919V13.7998H114.754V19.9266Z" fill="black"/>
<path d="M125.529 12.2751V13.8279H124.556V14.8462H125.529V18.3063C125.529 19.4877 126.064 19.9603 127.409 19.9603C127.645 19.9603 127.87 19.9322 128.067 19.8985V18.8914C127.898 18.9083 127.791 18.9195 127.605 18.9195C127.003 18.9195 126.739 18.6382 126.739 17.9968V14.8462H128.067V13.8279H126.739V12.2751H125.529Z" fill="black"/>
<path d="M129.69 19.9266H130.9V16.3484C130.9 15.4201 131.451 14.7956 132.442 14.7956C133.297 14.7956 133.753 15.2907 133.753 16.2696V19.9266H134.962V15.9714C134.962 14.5143 134.158 13.6873 132.852 13.6873C131.93 13.6873 131.283 14.098 130.984 14.7843H130.889V11.4087H129.69V19.9266Z" fill="black"/>
<path d="M139.326 14.7112C140.22 14.7112 140.805 15.3357 140.833 16.2978H137.739C137.807 15.3413 138.431 14.7112 139.326 14.7112ZM140.828 18.2725C140.603 18.7507 140.102 19.0152 139.371 19.0152C138.403 19.0152 137.779 18.3344 137.739 17.2598V17.1923H142.066V16.7703C142.066 14.8462 141.036 13.6816 139.331 13.6816C137.604 13.6816 136.507 14.925 136.507 16.8829C136.507 18.8407 137.582 20.0447 139.337 20.0447C140.738 20.0447 141.717 19.3696 141.992 18.2725H140.828Z" fill="black"/>
</svg>
