<svg width="54" height="88" viewBox="0 0 54 88" fill="none" xmlns="http://www.w3.org/2000/svg">
<path d="M2.46505 60.6846C2.56282 60.4329 2.7126 60.1665 2.78104 60.0932C3.04051 59.8388 3.65799 60.0062 4.4572 60.5464C5.11544 60.9907 5.5411 61.4401 8.05954 64.4658C9.63175 66.3503 10.9193 67.8813 10.9214 67.8614C10.9236 67.8414 10.7787 67.2205 10.6058 66.4856C9.9904 63.867 9.4082 60.1927 9.179 57.4543C8.92899 54.4413 8.93421 52.6159 9.22259 49.2878C9.64376 44.5414 10.7422 39.5957 12.2973 35.466C13.892 31.2497 16.3542 27.7828 18.8877 26.1797L19.5587 25.7577L19.7733 24.9839C20.3121 23.0749 21.5334 20.5434 22.6968 18.9237C24.8537 15.9483 27.1632 14.2707 33.598 11.0103C38.7201 8.41531 41.1335 7.3642 43.577 6.68958C45.1883 6.24802 51.5946 4.84074 52.3597 4.76186C52.93 4.7124 52.9699 4.71671 53.3219 5.00688C53.7017 5.32022 53.7511 5.51722 53.5113 5.68302C53.2946 5.82106 49.3213 7.11753 46.6413 7.92803C43.253 8.94461 41.0423 9.98732 34.6871 13.5388C28.9013 16.7683 26.8885 18.4074 25.0086 21.4327C24.4246 22.3584 23.4066 24.4074 23.4778 24.4958C23.5055 24.5189 23.7282 24.5127 23.9739 24.4787C24.2297 24.4457 25.0627 24.4852 25.8306 24.568C27.9735 24.8092 29.9551 25.5173 31.782 26.7231C33.8643 28.0877 34.7636 29.1027 36.0651 31.533C37.9773 35.1289 37.8567 37.9304 35.6745 40.2977C34.6006 41.463 33.1093 42.3816 31.213 43.0345C28.3929 44.0216 26.3349 44.0216 24.7158 43.0399C23.3241 42.1937 21.798 40.5361 20.98 38.9548C20.046 37.1391 19.2106 34.3151 19.0404 32.3397C18.9912 31.8603 18.9499 31.4019 18.9286 31.3189C18.8643 30.979 17.3053 33.5548 16.498 35.334C14.3841 39.9684 13.0373 47.5908 13.1744 54.0821C13.2939 59.8956 14.7502 67.4371 16.9231 73.5729C17.6194 75.5345 19.1136 78.9843 19.224 78.8954C19.2693 78.8498 19.7658 77.8946 20.3315 76.7652C22.7879 71.855 25.2331 67.2362 25.6391 66.7453C26.4743 65.7358 27.4589 65.0249 28.1984 64.9029C28.5383 64.8387 28.6116 64.9071 28.7138 65.362C28.9734 66.5098 28.8466 68.433 28.4531 69.3691C27.9761 70.5181 22.0227 81.5679 21.2126 82.8121C20.8136 83.4248 20.5263 83.6561 19.889 83.8598C18.9065 84.1775 18.5168 84.2363 17.9484 84.175L17.36 84.1116L15.5538 81.7781C12.5441 77.8823 11.297 76.1639 8.32354 71.8383C4.71468 66.5765 2.85898 63.6728 2.39139 62.5833C2.14357 61.9815 2.16069 61.4487 2.46505 60.6846ZM22.4221 29.9807C22.2816 32.7801 22.9467 36.0598 24.1044 38.2326C24.5245 39.0143 25.7331 40.4359 26.2624 40.7654C27.6608 41.6426 30.6743 40.8277 32.8194 38.991C33.9316 38.0316 34.388 37.3545 34.4805 36.4969C34.6096 35.3003 34.1616 33.7488 33.1993 32.1016C31.8539 29.7976 30.2695 28.5877 27.5044 27.7547C25.8636 27.2549 24.0703 27.233 23.0538 27.6782C22.597 27.8912 22.4715 28.1198 22.4714 28.7755C22.4663 28.9162 22.4481 29.459 22.4221 29.9807Z" fill="#53A0FF"/>
</svg>
