<svg width="32" height="36" viewBox="0 0 32 36" fill="none" xmlns="http://www.w3.org/2000/svg">
<path fill-rule="evenodd" clip-rule="evenodd" d="M0.850249 1.63063C0.638118 2.02079 0.518921 2.52303 0.518921 3.12298V33.1024C0.518921 33.7037 0.638271 34.2058 0.850659 34.5958L17.3318 18.1122L0.850249 1.63063ZM1.54187 35.3188C2.16461 35.6728 3.0212 35.6254 3.96338 35.0911L23.3144 24.0948L18.0389 18.8193L1.54187 35.3188ZM24.2171 23.5833L30.3981 20.0715C32.2918 18.9938 32.2918 17.233 30.3981 16.1567L24.2144 12.643L18.746 18.1122L24.2171 23.5833ZM23.3127 12.1305L3.96338 1.13575C3.02115 0.600311 2.16453 0.553549 1.54178 0.907945L18.0389 17.4051L23.3127 12.1305Z" fill="black"/>
</svg>
