<svg width="60" height="60" viewBox="0 0 60 60" fill="none" xmlns="http://www.w3.org/2000/svg">
<path d="M60 16.5679C60 7.86907 52.8711 0.792114 44.1087 0.792114C37.0255 0.792114 33.0608 4.14579 29.8874 9.42602C26.6824 4.02707 22.8538 0.792114 15.8749 0.792114C7.12137 0.792114 0 7.86907 0 16.5679C0 24.2283 3.69867 31.8981 11.9926 41.437L13.3768 40.2333C16.2342 42.5581 16.7411 43.7023 20.6743 45.1417C24.0064 46.3611 27.5183 47.073 31.0576 47.2946C34.1278 47.4868 37.1992 47.3125 40.0736 46.1368C41.307 45.6323 42.4588 44.9372 43.442 44.0352C44.5346 43.0328 45.274 41.7183 45.9157 40.3998C46.6554 38.88 47.2876 37.0667 48.5861 35.9223C49.2737 35.3163 50.0999 34.9335 50.8625 34.4581L52.5246 35.6777C57.5548 28.8222 60 22.5714 60 16.5679Z" fill="#FF5C5C"/>
<path d="M44.1087 0.792114C37.0255 0.792114 33.0608 4.14579 29.8874 9.42602C29.8843 9.42075 29.8811 9.41571 29.878 9.41055V47.2014C30.2707 47.2382 30.664 47.27 31.0576 47.2946C34.1278 47.4868 37.1992 47.3125 40.0736 46.1368C41.307 45.6323 42.4588 44.9372 43.442 44.0352C44.5347 43.0328 45.274 41.7183 45.9157 40.3998C46.6554 38.88 47.2876 37.0667 48.5861 35.9223C49.2737 35.3163 50.0999 34.9335 50.8626 34.4581L52.5246 35.6777C57.5548 28.8222 60 22.5714 60 16.5679C60 7.86907 52.8712 0.792114 44.1087 0.792114Z" fill="#FF3838"/>
<path d="M36.0304 25.4081H31.6358V21.0135H28.1202V25.4081H23.7257V28.9237H28.1202V33.3182H31.6358V28.9237H36.0304V25.4081Z" fill="#E4F3FF"/>
<path d="M31.6358 25.4081V21.0135H29.878V33.3182H31.6358V28.9237H36.0304V25.4081H31.6358Z" fill="#C3DAFD"/>
<path d="M27.2855 59.2074C16.8327 59.2071 9.72962 51.2754 11.0868 40.8232L11.3222 38.7662C12.2558 38.6623 13.579 38.4044 15.4934 38.4044C26.015 38.4044 33.06 46.3768 31.7082 56.7869L31.4718 58.8406L30.1113 59.0192C28.5342 59.2263 27.2736 59.2079 27.2855 59.2074Z" fill="#B6DC45"/>
<path d="M31.726 56.6357L30.9675 55.8785L30.9687 55.8773L22.5117 47.4335L20.0278 49.9214C21.8565 51.7476 28.3862 58.2689 29.2336 59.1152C29.9846 59.0464 30.2455 58.9982 30.8342 58.9245L31.5439 58.2137C31.5959 57.7626 31.7159 56.7191 31.726 56.6357Z" fill="#98B939"/>
<path d="M30.0513 58.8913L28.691 58.7127L28.4305 56.4535C26.7234 43.3246 35.568 33.2706 48.878 33.2706C51.2331 33.2706 52.8893 33.582 53.8043 33.6821L54.0632 35.945C55.9329 50.3301 45.1529 60.8734 30.0513 58.8913Z" fill="#73CA7A"/>
<path d="M40.1698 44.7903C40.1326 44.8275 40.9874 43.9737 28.437 56.5085L28.6911 58.7128C29.8874 58.8669 30.2263 58.9222 30.9251 58.9921C32.0865 57.8321 41.3296 48.6007 42.6538 47.2781L40.1698 44.7903Z" fill="#62A872"/>
</svg>
