<svg width="382" height="255" viewBox="0 0 382 255" fill="none" xmlns="http://www.w3.org/2000/svg">
<path d="M340.484 237.565C333.702 237.565 296.273 237.573 249.355 237.563C237.239 237.562 224.492 237.559 211.475 237.552C209.183 237.552 206.881 237.552 204.575 237.551C195.254 237.547 185.829 237.543 176.431 237.536C173.902 237.535 171.373 237.533 168.85 237.532C153.58 237.522 138.476 237.51 124.106 237.492C68.115 237.429 51.6448 236.974 51.6448 236.941C51.5309 236.677 0.173645 210.509 41.087 155.749C61.6679 128.202 38.2273 98.2288 55.766 71.9475C80.5891 34.7509 121.686 56.5578 149.876 44.77C154.857 42.6901 159.854 39.3406 164.858 34.2011C167.674 31.3124 170.76 28.7845 174.065 26.6017C174.572 26.2661 175.083 25.9384 175.601 25.6204C177.579 24.4 179.631 23.2966 181.744 22.3042C183.162 21.6394 184.609 21.0236 186.081 20.4585H186.083C188.42 19.5609 190.822 18.7854 193.274 18.1316C196.756 17.1993 200.341 16.5076 203.998 16.039C205.592 15.8333 207.2 15.6718 208.821 15.5499C240.318 13.1962 275.766 26.4386 294.059 45.7925C297.742 49.6895 314.489 69.8538 301.288 97.5717C292.952 115.07 327.871 131.784 340.279 151.768C371.826 202.574 340.769 236.903 340.484 237.565Z" fill="#D2E4FF"/>
<path d="M83.3076 95.3251C83.3076 95.3251 88.8071 84.2673 101.958 85.4959C101.958 85.4959 121.052 67.0654 141.412 83.0386C141.412 83.0386 163.055 79.0808 179.083 86.4654C189.77 91.389 193.3 96.5539 193.3 96.5539L83.3076 95.3251Z" fill="#F8FCFF"/>
<path d="M237.487 76.5415C216.794 48.1404 187.43 81.3595 187.43 81.3595C187.43 81.3595 160.05 46.4867 137.738 73.6343C115.426 100.782 185.245 156.32 185.245 156.32C185.245 156.32 258.18 104.943 237.487 76.5415Z" fill="#F78248"/>
<path d="M229.402 86.8693C227.214 87.572 224.824 86.7163 223.593 84.7769C222.274 82.6993 220.138 80.3143 217.032 79.6084C214.944 79.1337 213.635 77.056 214.11 74.9673C214.585 72.8787 216.662 71.5703 218.751 72.045C225.481 73.5746 229.332 78.9079 231.211 82.4801C232.108 84.1858 231.239 86.2875 229.402 86.8693Z" fill="#FFB699"/>
<path d="M179.851 145.414C175.982 141.682 165.506 130.07 165.506 130.07C163.813 128.431 161.361 124.516 163 122.823C164.64 121.13 169.385 125.433 171.078 127.073C171.078 127.073 178.669 136.333 182.927 139.415C187.606 142.8 189.508 145.438 187.869 147.131C187.032 147.996 183.25 148.694 179.851 145.414Z" fill="#FFB699"/>
<g opacity="0.5">
<path opacity="0.5" d="M150.62 183.643C150.62 183.643 137.499 171.195 123.573 168.828C121.722 168.513 120.5 170.706 121.729 172.125C121.75 172.149 121.771 172.172 121.792 172.196C123.93 174.585 140.489 178.4 150.62 183.643Z" fill="#AEC3FF"/>
<path opacity="0.5" d="M154.765 186.885C154.765 186.885 133.371 175.472 114.979 177.839C113.857 177.983 113.002 178.978 113.105 180.104C113.172 180.838 113.633 181.687 114.939 182.527C118.421 184.768 140.35 183.834 154.765 186.885Z" fill="#AEC3FF"/>
</g>
<g opacity="0.5">
<path opacity="0.5" d="M233.107 165.474C233.107 165.474 243.557 155.56 254.649 153.674C256.123 153.424 257.096 155.17 256.117 156.3C256.1 156.319 256.084 156.338 256.067 156.357C254.364 158.259 241.176 161.298 233.107 165.474Z" fill="#AEC3FF"/>
<path opacity="0.5" d="M229.806 168.055C229.806 168.055 246.845 158.965 261.493 160.851C262.387 160.966 263.067 161.758 262.986 162.655C262.933 163.239 262.565 163.915 261.525 164.585C258.751 166.369 241.286 165.626 229.806 168.055Z" fill="#AEC3FF"/>
</g>
<path opacity="0.3" d="M145.438 195.943C145.438 195.943 148.055 207.084 145.952 207.443C143.849 207.802 143.931 194.818 143.931 194.818C143.931 194.818 133.264 190.262 129.184 190.842C129.184 190.842 136.151 201.523 134.025 201.353C131.898 201.184 124.132 190.405 124.132 190.405C124.132 190.405 113.336 188.901 111.902 195.322C110.467 201.744 113.384 204.792 114.988 205.118C116.592 205.444 126.764 204.857 126.559 206.19C126.354 207.524 119.575 209.946 115.688 208.928C115.688 208.928 120.384 219.181 125.912 218.404C131.44 217.627 133.005 214.114 136.43 213.696C139.855 213.278 142.408 214.091 140.731 215.093C139.054 216.095 133.21 215.733 130.54 218.217C127.869 220.701 125.678 222.313 130.89 223.082C145.153 225.187 148.662 214.739 148.662 214.739C148.662 214.739 158.328 208.745 153.365 201.417C153.365 201.417 149.457 196.956 145.438 195.943Z" fill="#AEC3FF"/>
<path opacity="0.5" d="M250.081 179.06C248.803 172.575 237.925 173.812 237.925 173.812C237.925 173.812 229.853 184.439 227.713 184.556C225.573 184.672 232.84 174.122 232.84 174.122C228.758 173.437 217.931 177.742 217.931 177.742C217.931 177.742 217.685 190.782 215.582 190.368C213.479 189.955 216.389 178.834 216.389 178.834C212.328 179.749 208.291 184.129 208.291 184.129C203.122 191.362 212.676 197.626 212.676 197.626C212.676 197.626 212.493 202.143 209.347 207.119L209.347 207.119C209.347 207.119 208.652 208.03 207.899 209.608L208.984 209.684C209.093 209.399 209.21 209.125 209.337 208.863C209.337 208.861 209.338 208.859 209.34 208.858C209.341 208.854 209.343 208.851 209.345 208.847C209.431 208.684 209.555 208.453 209.708 208.172C209.708 208.172 209.708 208.172 209.709 208.171C209.709 208.17 209.709 208.171 209.71 208.17C210.086 207.545 210.344 207.081 210.509 206.745C210.51 206.744 210.51 206.743 210.511 206.742C211.646 204.776 213.261 202.223 214.254 201.734C214.254 201.734 214.146 201.556 214.057 201.22C214.12 201.384 214.185 201.555 214.254 201.734C215.832 205.841 225.066 207.153 230.311 206.454C235.556 205.756 233.404 204.14 230.786 201.578C228.167 199.016 222.29 199.231 220.631 198.183C218.973 197.134 221.557 196.382 224.985 196.889C228.414 197.395 229.896 200.963 235.428 201.883C240.959 202.803 245.935 192.626 245.935 192.626C242.006 193.55 235.26 190.946 235.088 189.602C234.915 188.257 245.115 189.104 246.734 188.818C248.353 188.531 251.36 185.544 250.081 179.06Z" fill="#AEC3FF"/>
<path opacity="0.5" d="M179.096 221.028C179.689 222.374 187.508 223.014 191.312 220.846C191.312 220.846 189.258 232.964 183.22 233.704C177.182 234.445 174.544 231.187 170.821 231.712C167.097 232.238 164.639 233.813 166.687 234.395C168.734 234.978 174.785 232.949 178.296 234.811C179.91 235.668 181.361 236.345 181.947 237.056C180.406 237.056 178.859 237.056 177.309 237.055C171.042 237.053 164.707 237.05 158.389 237.046C158.309 236.537 158.238 236.258 158.238 236.258C158.238 236.258 146.373 232.672 149.532 223.558C149.532 223.558 152.388 217.761 156.334 215.563C156.334 215.563 156.719 228.028 159.034 227.814C161.35 227.599 157.603 213.954 157.603 213.954C157.603 213.954 167.548 206.15 172.006 205.61C172.006 205.61 167.683 218.819 169.874 218.041C172.065 217.262 177.202 203.726 177.202 203.726C177.202 203.726 188.143 199.099 191.463 205.455C194.784 211.811 192.572 215.843 190.975 216.638C189.378 217.433 178.505 219.682 179.096 221.028Z" fill="#AEC3FF"/>
<path d="M166.729 57.299C166.729 57.299 170.978 49.3016 181.138 50.1902C181.138 50.1902 195.889 36.8608 211.618 48.4131C211.618 48.4131 228.338 45.5506 240.721 50.8913C248.977 54.4522 251.704 58.1875 251.704 58.1875L166.729 57.299Z" fill="#F8FCFF"/>
<path d="M232.564 44.2052C232.564 44.2052 234.73 39.8503 239.909 40.3343C239.909 40.3343 247.428 33.0759 255.447 39.3665C255.447 39.3665 263.97 37.8078 270.283 40.7161C274.491 42.6552 275.881 44.6892 275.881 44.6892L232.564 44.2052Z" fill="#F8FCFF"/>
<path d="M75.1138 66.7506C75.1138 66.7506 77.2796 62.3958 82.4589 62.8797C82.4589 62.8797 89.9783 55.6213 97.9966 61.9119C97.9966 61.9119 106.52 60.3533 112.832 63.2615C117.041 65.2006 118.431 67.2346 118.431 67.2346L75.1138 66.7506Z" fill="#F8FCFF"/>
<path d="M75.3514 165.607C69.8925 164.218 63.8919 155.749 63.8919 155.749L65.4289 154.415C67.0204 156.291 73.637 159.523 73.637 159.523C73.6014 157.806 73.6464 156.24 73.7549 154.814C74.4891 145.127 78.141 141.899 79.1379 141.191C79.2987 141.076 79.391 141.028 79.391 141.028C79.391 141.028 79.3949 141.099 79.4005 141.232C79.415 141.52 79.4415 142.1 79.4686 142.896C79.6709 148.825 79.9128 166.769 75.3514 165.607Z" fill="#FFB27D"/>
<path d="M79.7269 152.384C79.7141 152.914 79.6961 153.448 79.6742 153.981C79.4982 158.291 79.0294 162.575 77.9723 165.083C77.7115 165.698 77.4175 166.206 77.0809 166.582C76.5929 167.129 76.0199 167.393 75.3482 167.294C71.6605 166.756 70.6996 163.314 70.5043 160.755C70.3823 159.162 70.5583 157.911 70.5583 157.911C70.5583 157.911 72.4152 158.93 72.7079 158.659C73.3116 158.102 73.5345 154.396 73.6963 151.426C73.9095 147.534 73.965 143.158 74.3373 142.405C75.4005 140.252 79.5048 140.252 79.5048 140.252C79.5048 140.252 79.8876 146.116 79.7269 152.384Z" fill="#F99746"/>
<path d="M84.0751 130.394C84.0751 130.394 81.0349 132.185 82.9005 135.655C82.9005 135.655 80.2388 135.168 79.6639 134.373C79.6639 134.373 79.731 134.704 79.8296 134.871C79.8296 134.871 77.3826 134.317 76.5821 133.296C75.7815 132.274 79.7078 120.043 86.0688 123.21C86.0688 123.21 91.8854 124.29 89.6072 130.747C87.329 137.205 89.4821 137.775 89.4821 137.775C89.4821 137.775 88.8052 137.912 88.516 137.835C88.516 137.835 88.1362 137.562 88.1146 137.307C88.1146 137.307 88.1009 137.696 88.1784 137.841C88.1784 137.841 85.7962 137.446 84.8679 136.261C83.9395 135.077 83.3834 131.668 84.0751 130.394Z" fill="#233862"/>
<path d="M79.6854 140.791C79.6814 140.792 79.6787 140.793 79.6747 140.795C79.6556 140.792 79.6597 140.791 79.6854 140.791Z" fill="#FFB27D"/>
<path d="M87.0747 138.663C87.164 139.464 87.2708 140.182 87.3182 140.524C87.425 141.291 80.1493 140.792 79.6854 140.791C80.0087 140.65 80.9959 137.519 81.3083 136.325C81.687 134.877 81.9844 133.312 81.9844 133.312L87.1221 133.637L87.4277 133.656C87.2383 134.356 87.1031 135.017 87.0098 135.631C86.9977 135.714 86.9854 135.798 86.9746 135.879C86.8813 136.56 86.9638 137.675 87.0747 138.663Z" fill="#FFB27D"/>
<path d="M81.2758 132.794C81.2758 132.794 80.4429 130.153 80.6114 128.127C80.7317 126.681 82.7906 121.748 87.7399 123.847C87.7399 123.847 89.1952 124.39 90.3484 125.71C91.2657 126.76 92.4466 128.816 89.4614 132.806L88.5938 134.192L81.2758 132.794Z" fill="#233862"/>
<path d="M80.3397 152.799L80.0673 161.519C80.0673 161.519 79.104 163.171 77.9723 165.082C77.6821 165.573 77.3802 166.081 77.081 166.581C76.5929 167.129 76.0199 167.393 75.3482 167.294C71.6605 166.756 70.6996 163.314 70.5043 160.755C70.3823 159.162 70.5583 157.911 70.5583 157.911C70.5583 157.911 72.1711 158.603 72.464 158.332C73.0677 157.775 73.5345 154.396 73.6963 151.426L76.2139 150.004L79.7269 152.384L80.3397 152.799Z" fill="#ED7D2B"/>
<path d="M87.0747 138.663C83.4808 137.61 81.9558 133.459 81.9558 133.459C83.4759 133.504 85.4559 134.559 87.0098 135.631C86.9977 135.714 86.9855 135.798 86.9746 135.879C86.8813 136.56 86.9638 137.675 87.0747 138.663Z" fill="#ED975D"/>
<path d="M87.3289 137.205C87.3289 137.205 80.836 135.6 81.8977 131.572C82.9593 127.544 82.8363 124.624 87.0267 125.478C91.2171 126.333 91.6141 128.081 91.5868 129.512C91.5595 130.942 89.0452 137.518 87.3289 137.205Z" fill="#FFB27D"/>
<path d="M91.9874 127.222C90.0547 124.165 87.7503 123.847 87.7399 123.847C86.0902 122.741 83.9071 125.456 83.9071 125.456C82.7098 128.231 80.188 129.334 80.188 129.334C80.188 129.334 81.1735 130.374 84.0748 130.394C84.9611 130.401 85.858 130.007 86.6772 129.459C85.0901 131.01 83.2422 131.942 83.2422 131.942C86.7235 131.329 89.1595 127.493 89.5911 126.77C90.0599 127.523 90.5252 128.399 90.55 128.942C90.6008 130.053 90.1869 132.202 90.8211 132.293C90.8215 132.293 93.289 129.281 91.9874 127.222Z" fill="#233862"/>
<path d="M86.3157 134.623C86.3157 134.623 86.3967 135.236 86.7878 135.381C87.179 135.526 88.2174 135.788 88.3227 135.723C88.428 135.658 88.8172 135.18 88.8172 135.18C88.8172 135.18 87.1805 134.553 86.3157 134.623Z" fill="white"/>
<path d="M83.8912 196.239C83.8088 196.584 83.7263 196.925 83.6451 197.263C83.1555 199.297 82.6998 201.183 82.413 202.762C82.0398 204.816 81.952 206.344 82.4416 206.987C84.4579 209.63 82.4416 230.611 82.4416 230.611L80.1466 232.975C80.1466 232.975 76.1571 212.261 75.0752 209.015C74.5829 207.54 73.8662 201.238 73.2333 194.804C73.2008 194.482 73.1698 194.16 73.1386 193.839C73.0291 192.713 72.9235 191.592 72.8222 190.498C72.2541 184.411 71.8295 179.199 71.8295 179.199C71.8295 179.199 76.061 176.224 79.9058 175.893C82.1711 175.695 84.301 176.416 85.3532 179.199C86.8855 183.248 85.3329 190.24 83.8912 196.239Z" fill="#FFB27D"/>
<path d="M83.2458 197.632C80.2836 194.403 78.3334 189.778 74.7183 183.304C74.4113 180.011 77.0077 176.881 79.906 175.893C82.1712 175.695 84.3011 176.416 85.3533 179.199C86.8855 183.248 84.6873 191.633 83.2458 197.632Z" fill="#ED975D"/>
<path d="M95.3573 156.231L110.809 160.222V162.026C110.809 162.026 95.4323 161.846 94.4406 160.133C93.4488 158.42 95.3573 156.231 95.3573 156.231Z" fill="#FFB27D"/>
<path d="M110.809 215.701L110.087 218.683C110.087 218.683 89.1845 207.887 86.481 205.814C85.3951 204.981 83.9602 200.457 82.6309 195.34C80.651 187.712 78.9064 178.767 78.9064 178.767C78.9064 178.767 81.8369 167.497 89.6807 174.394C94.3747 178.522 93.6444 186.475 93.1305 192.661C92.7884 196.811 92.5422 200.166 94.0988 201.036C97.1349 202.73 106.044 210.536 108.864 215.906L110.809 215.701Z" fill="#FFB27D"/>
<path d="M102.94 156.231C103.94 157.65 103.389 160.403 101.293 162.619C99.9907 163.996 98.2272 164.81 95.3574 164.387C94.1065 164.202 91.9008 162.804 90.7494 160.491C90.5774 160.145 90.1405 159.131 90.1405 159.131C90.1405 159.131 88.5492 160.725 88.4898 161.026C88.463 161.161 88.3258 162.365 88.3043 162.53C88.2794 162.729 88.421 163.46 88.421 163.46C88.421 163.46 80.8183 166.785 74.5332 162.999C74.5332 162.999 73.0457 153.345 74.028 145.086C74.2164 143.502 78.2554 141.343 79.5045 140.251C79.7849 140.005 80.0702 139.265 79.993 138.788C79.9295 138.385 80.3933 137.705 80.7819 137.829C81.5331 138.07 83.6588 139.122 85.1545 138.72C85.8994 138.522 86.8442 137.661 87.5664 137.858C88.4492 138.099 87.5167 140.224 88.017 140.251C88.7062 140.285 91.8027 140.334 92.7423 141.631C93.5118 142.693 93.9207 144.673 95.2619 148.423C95.2619 148.423 95.2631 148.426 95.2642 148.433C97.7812 155.467 101.473 154.147 102.94 156.231Z" fill="#F99746"/>
<path d="M90.1405 159.132C90.1405 159.132 89.3752 157.345 88.817 154.359C88.6595 153.516 82.1793 159.99 83.8021 162.62C85.4249 165.25 90.1405 159.132 90.1405 159.132Z" fill="#ED7D2B"/>
<path d="M99.48 186.106C99.48 186.106 97.4441 186.689 94.3857 187.334C88.066 188.667 77.3776 190.265 71.257 187.535C71.257 187.535 71.6483 178.533 72.7119 171.727C73.5627 166.283 74.3513 162.709 74.3513 162.709C74.3513 162.709 80.0417 164.134 85.8206 163.029C85.8758 163.018 85.9297 163.008 85.9851 162.997C86.7416 162.846 87.4995 162.65 88.2445 162.402C88.2445 162.402 92.6066 168.655 94.857 173.005C96.4138 176.015 99.48 186.106 99.48 186.106Z" fill="#B0D0FF"/>
<path d="M99.48 186.106C99.48 186.106 97.4441 186.689 94.3857 187.334C93.728 187.405 93.0446 187.471 92.3369 187.536C82.0798 174.439 85.8617 163.061 85.8617 163.061C85.9029 163.039 85.944 163.017 85.9851 162.997C86.7416 162.846 87.4995 162.65 88.2445 162.402C88.2445 162.402 92.6066 168.655 94.8571 173.005C96.4138 176.015 99.48 186.106 99.48 186.106Z" fill="#98BAF4"/>
<path d="M110.809 160.222C110.809 160.222 113.644 158.826 114.771 158.691C115.898 158.555 117.791 158.51 117.791 158.691C117.791 158.871 115.763 160.131 115.222 160.222C114.681 160.313 113.644 161.08 113.96 161.17C114.275 161.26 115.943 160.877 115.966 161.17C115.988 161.463 114.952 161.643 114.771 161.869C114.591 162.094 113.96 162.365 112.946 162.229C111.931 162.094 110.809 162.026 110.809 162.026V160.222Z" fill="#FFB27D"/>
<path d="M114.941 216.858C114.941 216.858 114.934 216.857 114.922 216.854C114.828 216.83 114.398 216.689 114.114 216.005C113.926 215.555 113.869 215.185 113.697 214.74L112.991 213.521C112.253 212.549 111.994 212.777 111.994 212.777C111.994 212.777 111.801 213.024 111.516 213.351C111.045 213.889 110.323 214.641 109.812 214.833C109.449 214.969 109.221 215.195 109.082 215.405C108.904 215.668 108.864 215.906 108.864 215.906C108.864 215.906 110.38 216.17 110.248 216.917C109.99 218.362 110.051 218.625 110.077 218.672L110.087 218.682C110.087 218.682 112.671 220.035 113.498 220.301C114.969 220.772 115.737 221.772 116.214 222.229C116.407 222.414 116.674 222.499 116.937 222.457C117.325 222.395 117.828 222.271 117.939 222.033L114.941 216.858Z" fill="#2B478B"/>
<path d="M84.7479 234.026L83.5097 234.696C83.0596 234.855 82.6884 234.901 82.2331 235.076C81.5413 235.341 81.0544 235.862 81.0313 235.956C80.6819 237.375 80.1709 237.332 80.1709 237.332H75.2122C74.9775 237.215 75.375 236.211 75.5655 236.023C76.0358 235.56 77.4432 235.793 77.9566 234.336C78.246 233.518 79.6733 230.973 79.6733 230.973L79.6834 230.964C79.7315 230.939 79.996 230.886 81.4335 231.185C82.1762 231.339 82.4842 229.832 82.4842 229.832C82.4842 229.832 82.7205 229.878 82.9784 230.064C83.1839 230.209 83.4029 230.443 83.5284 230.81C83.7064 231.326 84.4364 232.07 84.9609 232.556C85.2789 232.851 85.5207 233.051 85.5207 233.051C85.5207 233.051 85.741 233.316 84.7479 234.026Z" fill="#2B478B"/>
<path d="M65.4289 154.416C65.4289 154.416 65.6588 152.846 65.2529 151.811C64.8247 150.719 64.7302 149.533 64.3877 150.004C64.0452 150.475 64.3337 151.805 64.0341 151.762C63.9019 151.743 63.4966 151.514 63.337 150.874C63.1342 150.062 63.6268 148.996 62.9517 149.1C62.3072 149.201 61.4424 152.196 61.8705 153.009C62.2987 153.823 63.8919 155.749 63.8919 155.749L65.4289 154.416Z" fill="#FFB27D"/>
<path d="M80.3939 164.387C76.1787 164.387 74.4412 162.936 74.3126 162.838L74.0399 160.853C74.0803 160.882 79.7364 164.279 88.4896 161.026L88.3041 162.53C84.9379 163.781 82.5833 164.387 80.3939 164.387Z" fill="#EA7147"/>
<path d="M118.049 139.529C118.688 142.351 119.941 147.803 124.702 154.383C128.134 159.128 134.663 166.144 141.054 175.313C145.662 181.926 148.336 185.826 149.806 187.993C150.851 189.534 151.574 191.249 151.933 193.047L140.877 226.259L167.162 228.558C167.162 228.558 177.064 193.963 177.073 179.454C177.073 179.449 177.072 179.444 177.075 179.441C177.073 177.758 177.09 175.966 177.132 174.05C177.319 165.171 179.9 158.175 154.232 157.931C154.125 157.93 154.026 157.855 153.911 157.814C152.91 157.426 151.382 156.728 149.13 154.913C148.75 154.608 148.352 154.274 147.934 153.905C145.429 151.692 143.051 149.947 140.815 148.567C129.145 141.352 117.468 136.965 118.049 139.529Z" fill="#FFB27D"/>
<path d="M116.223 122.688C116.607 118.515 119.714 105.39 119.714 105.39C119.714 105.39 122.754 106.088 123.868 108.036C127.128 113.734 126.062 124.968 125.89 125.034C125.885 125.034 131.192 135.235 132.093 141.796C132.094 141.801 132.093 141.796 132.093 141.796C132.093 141.796 146.167 149.433 149.132 154.913C149.311 155.247 149.455 155.576 149.56 155.892C149.962 157.123 150.133 158.809 150.109 160.682C150.01 167.322 147.387 176.3 143.466 175.609C142.499 175.436 119.855 150.12 118.917 145.662C118.699 144.61 116.017 124.914 116.223 122.688Z" fill="#FFB27D"/>
<path d="M152.795 151.091C152.795 151.091 153.465 157.533 146.796 151.883L146.257 159.286L155.546 164.232L158.698 158.8L152.795 151.091Z" fill="#FFB27D"/>
<path d="M120.37 111.874C120.497 111.63 120.583 111.362 120.625 111.078C120.625 111.078 120.98 108.535 121.235 106.67C121.402 105.44 120.578 104.444 120.109 104.258C119.812 104.14 117.991 108.909 117.92 113.4C118.989 113.417 119.91 112.757 120.37 111.874Z" fill="#FFC69F"/>
<path d="M132.093 141.795C135.131 142.791 153.64 155.377 154.64 155.765C156.954 158.687 157.344 163.016 156.214 163.498C154.688 164.152 151.289 162.84 149.021 160.757C145.98 157.968 145.098 154.294 144.19 152.248C143.78 151.328 141.088 149.989 140.067 148.643C137.385 145.107 132.44 142.069 132.093 141.795Z" fill="#F6A56E"/>
<path d="M167.507 153.819C167.507 153.819 143.412 134.418 140.75 129.491C140.75 129.491 136.51 131.025 138.202 137.461C139.894 143.897 151.742 155.453 152.45 160.012C155.108 177.138 164.837 182.409 164.837 182.409C164.837 182.409 191.244 172.978 167.507 153.819Z" fill="#FFB27D"/>
<path d="M142.299 136.661C142.077 136.487 141.882 136.275 141.721 136.032C141.721 136.032 140.294 133.847 139.253 132.241C138.566 131.183 138.784 129.808 139.774 128.998C140.017 128.799 140.163 128.7 140.163 128.7C141.332 129.71 144.354 131.594 146.366 135.667C145.257 136.462 143.101 137.29 142.299 136.661Z" fill="#FFC69F"/>
<path d="M176.313 201.353C176.313 201.353 176.198 204.556 176.003 209.629C175.998 209.762 175.993 209.896 175.987 210.032C175.721 216.97 175.316 227.21 174.858 237.532C159.588 237.522 144.484 237.51 130.115 237.492C134.356 229.021 141.567 215.258 145.942 206.955C148.018 203.012 149.453 200.301 149.627 199.975C149.638 199.953 149.645 199.942 149.645 199.942C149.888 199.59 150.158 199.27 150.454 198.984C150.859 198.585 151.308 198.245 151.799 197.96C155.842 195.586 162.556 196.714 167.936 198.283C170.415 199.005 172.609 199.82 174.13 200.427C175.164 200.842 175.887 201.16 176.174 201.29C176.266 201.331 176.313 201.353 176.313 201.353Z" fill="#F99746"/>
<path d="M175.995 210.031C175.995 210.031 165.361 212.904 159.218 212.996L156.95 208.774L154.967 212.345C154.967 212.345 147.204 209.987 145.623 207.682L151.031 197.944L176.232 198.449L175.995 210.031Z" fill="#ED7D2B"/>
<path d="M175.553 193.062C175.553 193.062 178.83 200.672 179.524 209.692C179.524 209.692 166.713 211.114 160.613 210.362L157.943 199.779L154.056 208.975C154.056 208.975 146.999 208.06 144.546 206.156C144.546 206.156 149.113 198.332 151.99 193.149C151.99 193.149 163.862 196.727 175.553 193.062Z" fill="#F3F8FF"/>
<path d="M167.805 207.647C168.122 207.062 167.878 206.344 167.26 206.043C166.642 205.741 165.883 205.97 165.566 206.554C165.249 207.139 165.493 207.857 166.111 208.158C166.73 208.46 167.488 208.231 167.805 207.647Z" fill="#F99746"/>
<path d="M252.429 139.529C251.79 142.351 250.537 147.803 245.776 154.383C242.343 159.128 235.814 166.144 229.424 175.313C224.815 181.926 222.142 185.826 220.672 187.993C219.627 189.534 218.904 191.249 218.544 193.047L229.6 226.259L203.316 228.558C203.316 228.558 193.414 193.963 193.404 179.454C193.405 179.449 193.405 179.444 193.403 179.441C193.404 177.758 193.387 175.966 193.345 174.05C193.158 165.171 190.578 158.175 216.245 157.931C216.352 157.93 216.451 157.855 216.566 157.814C217.567 157.426 219.095 156.728 221.348 154.913C221.727 154.608 222.125 154.274 222.543 153.905C225.049 151.692 227.426 149.947 229.662 148.567C241.332 141.352 253.01 136.965 252.429 139.529Z" fill="#FFB27D"/>
<path d="M254.255 122.688C253.87 118.515 250.764 105.39 250.764 105.39C250.764 105.39 247.724 106.088 246.609 108.036C243.35 113.734 244.415 124.968 244.588 125.034C244.593 125.034 239.286 135.235 238.385 141.796C238.384 141.801 238.385 141.796 238.385 141.796C238.385 141.796 224.311 149.433 221.346 154.913C221.166 155.247 221.022 155.576 220.918 155.892C220.515 157.123 220.344 158.809 220.368 160.682C220.467 167.322 223.091 176.3 227.011 175.609C227.978 175.436 250.622 150.12 251.56 145.662C251.779 144.61 254.46 124.914 254.255 122.688Z" fill="#FFB27D"/>
<path d="M217.682 151.091C217.682 151.091 217.013 157.533 223.682 151.883L224.221 159.286L214.932 164.232L211.779 158.8L217.682 151.091Z" fill="#FFB27D"/>
<path d="M250.108 111.874C249.981 111.63 249.894 111.362 249.852 111.078C249.852 111.078 249.497 108.535 249.243 106.67C249.075 105.44 249.899 104.444 250.369 104.258C250.666 104.14 252.487 108.909 252.557 113.4C251.489 113.417 250.567 112.757 250.108 111.874Z" fill="#FFC69F"/>
<path d="M238.385 141.795C235.346 142.791 216.838 155.377 215.837 155.765C213.523 158.687 213.133 163.016 214.264 163.498C215.79 164.152 219.189 162.84 221.457 160.757C224.498 157.968 225.38 154.294 226.287 152.248C226.697 151.328 229.39 149.989 230.41 148.643C233.092 145.107 238.038 142.069 238.385 141.795Z" fill="#F6A56E"/>
<path d="M202.97 153.819C202.97 153.819 227.065 134.418 229.728 129.491C229.728 129.491 233.968 131.025 232.276 137.461C230.584 143.897 218.736 155.453 218.028 160.012C215.369 177.138 205.641 182.409 205.641 182.409C205.641 182.409 179.233 172.978 202.97 153.819Z" fill="#FFB27D"/>
<path d="M228.179 136.661C228.4 136.487 228.596 136.275 228.757 136.032C228.757 136.032 230.184 133.847 231.225 132.241C231.911 131.183 231.694 129.808 230.703 128.998C230.46 128.799 230.315 128.7 230.315 128.7C229.145 129.71 225.944 131.764 223.932 135.837C224.9 136.263 227.376 137.29 228.179 136.661Z" fill="#FFC69F"/>
<path d="M240.397 237.564C226.148 237.562 211.025 237.557 195.618 237.551C195.162 227.223 194.757 216.973 194.491 210.032C194.484 209.896 194.479 209.762 194.475 209.629C194.28 204.556 194.164 201.354 194.164 201.354C194.164 201.354 194.212 201.331 194.304 201.29C194.59 201.16 195.314 200.842 196.347 200.428C197.868 199.82 200.062 199.005 202.541 198.283C207.921 196.714 214.636 195.585 218.679 197.96C219.169 198.245 219.619 198.585 220.024 198.984C220.32 199.27 220.589 199.59 220.833 199.942C220.833 199.942 220.839 199.953 220.85 199.975C221.024 200.301 222.46 203.012 224.535 206.955C228.921 215.28 236.162 229.098 240.397 237.564Z" fill="#F99746"/>
<path d="M194.483 210.031C194.483 210.031 205.116 212.904 211.26 212.996L213.528 208.774L215.511 212.345C215.511 212.345 223.274 209.987 224.855 207.682L219.446 197.944L194.246 198.449L194.483 210.031Z" fill="#ED7D2B"/>
<path d="M194.924 193.062C194.924 193.062 191.648 200.672 190.954 209.692C190.954 209.692 203.764 211.114 209.864 210.362L212.535 199.779L216.422 208.975C216.422 208.975 223.479 208.06 225.931 206.156C225.931 206.156 221.364 198.332 218.488 193.149C218.488 193.149 206.615 196.727 194.924 193.062Z" fill="#F3F8FF"/>
<path d="M202.672 207.647C202.355 207.062 202.599 206.344 203.218 206.043C203.836 205.741 204.594 205.97 204.911 206.554C205.229 207.139 204.985 207.857 204.366 208.158C203.748 208.46 202.99 208.231 202.672 207.647Z" fill="#F99746"/>
<path d="M232.704 225.247C233.561 225.594 236.624 225.313 236.723 225.069C236.822 224.824 234.819 222.49 233.962 222.143C233.105 221.795 232.128 222.209 231.781 223.066C231.433 223.923 231.847 224.9 232.704 225.247Z" fill="#A8D29F"/>
<path d="M240.43 226.709C239.949 227.499 239.731 230.567 239.957 230.704C240.182 230.841 242.809 229.241 243.29 228.452C243.772 227.662 243.521 226.631 242.732 226.15C241.942 225.669 240.911 225.919 240.43 226.709Z" fill="#A8D29F"/>
<path d="M236.302 232.712C237.183 232.994 240.216 232.481 240.296 232.229C240.376 231.977 238.201 229.803 237.32 229.522C236.439 229.24 235.497 229.727 235.216 230.608C234.935 231.489 235.421 232.431 236.302 232.712Z" fill="#A8D29F"/>
<path d="M240.763 235.682C240.76 235.612 240.421 228.668 236.619 225.083L236.7 224.998C240.537 228.616 240.878 235.606 240.881 235.677L240.763 235.682Z" fill="#A8D29F"/>
<path d="M253.454 225.396C252.92 225.751 250.801 225.984 250.7 225.832C250.599 225.679 251.636 223.817 252.17 223.463C252.704 223.108 253.424 223.254 253.778 223.788C254.133 224.322 253.987 225.042 253.454 225.396Z" fill="#A8D29F"/>
<path d="M248.41 227.458C248.846 227.928 249.418 229.981 249.284 230.105C249.15 230.23 247.145 229.507 246.709 229.037C246.273 228.568 246.3 227.834 246.77 227.397C247.24 226.961 247.974 226.989 248.41 227.458Z" fill="#A8D29F"/>
<path d="M252.043 230.963C251.484 231.276 249.354 231.347 249.265 231.187C249.176 231.028 250.351 229.25 250.911 228.937C251.47 228.625 252.177 228.824 252.49 229.384C252.803 229.943 252.603 230.65 252.043 230.963Z" fill="#A8D29F"/>
<path d="M249.426 233.596C249.418 233.549 248.687 228.787 250.772 225.827L250.706 225.78C248.601 228.768 249.338 233.561 249.345 233.609L249.426 233.596Z" fill="#A8D29F"/>
<path d="M245.662 235.277L245.42 235.238C244.467 222.912 240.703 214.067 240.65 213.947L240.871 213.852C240.923 213.973 244.715 222.877 245.662 235.277Z" fill="#A8D29F"/>
<path d="M238.097 212.706C238.561 213.232 240.734 214.078 240.884 213.945C241.035 213.813 240.465 211.551 240.001 211.025C239.537 210.499 238.734 210.449 238.208 210.913C237.682 211.378 237.632 212.18 238.097 212.706Z" fill="#CCDBFD"/>
<path d="M241.427 210.873C241.008 211.435 240.628 213.736 240.788 213.856C240.949 213.976 243.045 212.953 243.464 212.391C243.883 211.828 243.767 211.033 243.205 210.614C242.642 210.195 241.847 210.311 241.427 210.873Z" fill="#CCDBFD"/>
<path d="M243.928 213.32C243.251 213.135 240.97 213.622 240.917 213.816C240.865 214.009 242.583 215.586 243.26 215.77C243.937 215.955 244.635 215.556 244.819 214.879C245.003 214.202 244.604 213.504 243.928 213.32Z" fill="#CCDBFD"/>
<path d="M242.387 216.37C242.319 215.672 241.055 213.712 240.856 213.731C240.657 213.75 239.791 215.916 239.859 216.614C239.926 217.312 240.547 217.824 241.245 217.756C241.943 217.689 242.454 217.068 242.387 216.37Z" fill="#CCDBFD"/>
<path d="M238.927 216.22C239.548 215.894 240.886 213.984 240.793 213.806C240.7 213.629 238.367 213.645 237.746 213.971C237.125 214.297 236.886 215.065 237.212 215.686C237.538 216.307 238.306 216.546 238.927 216.22Z" fill="#CCDBFD"/>
<path d="M241.22 213.865C241.256 213.637 241.101 213.422 240.873 213.386C240.644 213.349 240.43 213.505 240.394 213.733C240.357 213.961 240.513 214.175 240.741 214.212C240.969 214.248 241.184 214.093 241.22 213.865Z" fill="#163560"/>
<path d="M245.592 222.674C244.902 223.523 244.157 227.084 244.4 227.281C244.642 227.478 247.976 226.022 248.666 225.174C249.356 224.325 249.228 223.078 248.379 222.387C247.53 221.697 246.283 221.826 245.592 222.674Z" fill="#A8D29F"/>
<path d="M231.933 236.538L231.769 236.534C230.055 228.438 226.781 222.899 226.735 222.824L226.873 222.742C226.918 222.818 230.216 228.393 231.933 236.538Z" fill="#A8D29F"/>
<path d="M224.932 222.225C225.286 222.533 226.802 222.904 226.89 222.803C226.978 222.702 226.402 221.251 226.048 220.943C225.694 220.634 225.157 220.672 224.849 221.026C224.54 221.38 224.578 221.917 224.932 222.225Z" fill="#CCDBFD"/>
<path d="M226.981 220.716C226.752 221.126 226.702 222.687 226.819 222.752C226.936 222.817 228.237 221.955 228.466 221.545C228.695 221.135 228.548 220.617 228.138 220.388C227.728 220.159 227.21 220.306 226.981 220.716Z" fill="#CCDBFD"/>
<path d="M228.855 222.12C228.39 222.057 226.919 222.581 226.901 222.713C226.883 222.846 228.162 223.742 228.627 223.805C229.092 223.868 229.52 223.542 229.583 223.076C229.646 222.611 229.32 222.183 228.855 222.12Z" fill="#CCDBFD"/>
<path d="M228.1 224.28C227.994 223.822 226.983 222.633 226.853 222.663C226.722 222.693 226.338 224.206 226.444 224.664C226.55 225.121 227.007 225.406 227.464 225.3C227.921 225.194 228.206 224.737 228.1 224.28Z" fill="#CCDBFD"/>
<path d="M225.791 224.484C226.175 224.213 226.895 222.828 226.817 222.719C226.74 222.609 225.194 222.824 224.81 223.095C224.427 223.366 224.336 223.897 224.606 224.28C224.877 224.664 225.408 224.755 225.791 224.484Z" fill="#CCDBFD"/>
<path d="M227.102 222.709C227.106 222.554 226.984 222.425 226.83 222.421C226.675 222.417 226.546 222.539 226.542 222.694C226.538 222.848 226.66 222.977 226.815 222.981C226.969 222.985 227.098 222.863 227.102 222.709Z" fill="#163560"/>
<path d="M230.781 228.181C230.397 228.805 230.216 231.233 230.393 231.342C230.571 231.452 232.656 230.194 233.039 229.57C233.423 228.946 233.228 228.13 232.604 227.746C231.981 227.363 231.164 227.558 230.781 228.181Z" fill="#A8D29F"/>
<path d="M258.083 235.468L258.298 235.433C259.146 224.456 262.499 216.578 262.546 216.471L262.349 216.386C262.303 216.495 258.926 224.424 258.083 235.468Z" fill="#A8D29F"/>
<path d="M264.82 215.366C264.407 215.835 262.471 216.588 262.337 216.47C262.203 216.352 262.711 214.338 263.124 213.869C263.537 213.401 264.252 213.357 264.72 213.77C265.189 214.183 265.233 214.898 264.82 215.366Z" fill="#CCDBFD"/>
<path d="M261.853 213.734C262.227 214.235 262.566 216.284 262.423 216.39C262.28 216.497 260.413 215.586 260.04 215.085C259.666 214.584 259.77 213.876 260.271 213.503C260.771 213.129 261.48 213.233 261.853 213.734Z" fill="#CCDBFD"/>
<path d="M259.627 215.912C260.23 215.748 262.261 216.182 262.308 216.354C262.355 216.526 260.824 217.931 260.222 218.095C259.619 218.259 258.997 217.904 258.833 217.301C258.669 216.698 259.024 216.077 259.627 215.912Z" fill="#CCDBFD"/>
<path d="M260.999 218.629C261.059 218.007 262.185 216.262 262.363 216.279C262.54 216.296 263.311 218.225 263.251 218.847C263.191 219.469 262.638 219.924 262.016 219.864C261.394 219.804 260.939 219.251 260.999 218.629Z" fill="#CCDBFD"/>
<path d="M264.08 218.496C263.527 218.205 262.336 216.504 262.419 216.346C262.502 216.188 264.579 216.202 265.132 216.493C265.685 216.783 265.898 217.467 265.608 218.02C265.317 218.573 264.633 218.786 264.08 218.496Z" fill="#CCDBFD"/>
<path d="M262.469 216.705C262.672 216.673 262.811 216.482 262.778 216.279C262.746 216.075 262.555 215.937 262.352 215.969C262.149 216.002 262.01 216.193 262.043 216.396C262.075 216.599 262.266 216.737 262.469 216.705Z" fill="#163560"/>
<path d="M257.582 227.183C258.197 227.939 258.86 231.11 258.645 231.285C258.429 231.461 255.46 230.165 254.845 229.409C254.231 228.653 254.345 227.542 255.101 226.928C255.857 226.313 256.968 226.427 257.582 227.183Z" fill="#A8D29F"/>
<path d="M223.257 237.386C223.257 237.386 224.475 234.185 228.896 233.984C233.318 233.783 236.362 236.396 240.015 235.19C243.668 233.984 249.713 231.261 255.433 233.075C261.152 234.888 262.117 237.386 262.117 237.386H223.257Z" fill="#A8D29F"/>
<path d="M59.9356 237.363H67.5718C67.9811 237.016 67.2886 236.228 66.5652 236.175C66.2511 236.151 65.8537 236.217 65.3998 236.312C65.2947 234.917 64.6946 228.642 62.433 228.895C59.89 229.177 62.433 231.658 63.1518 233.126C63.6843 234.214 64.2461 235.774 64.5028 236.511C64.2963 236.555 64.0826 236.599 63.8643 236.639C63.5272 235.605 62.2731 232.123 60.6782 232.326C58.8057 232.564 59.5583 233.959 60.8855 234.788C61.8593 235.397 63.0549 236.263 63.6231 236.681C63.1416 236.76 62.6393 236.813 62.1297 236.801C60.8216 236.77 60.1832 237.156 59.9356 237.363Z" fill="#A8D29F"/>
<path d="M139.155 237.145H146.791C147.2 236.798 146.508 236.01 145.785 235.957C145.47 235.933 145.073 235.999 144.619 236.095C144.514 234.699 143.914 228.425 141.652 228.677C139.109 228.959 141.652 231.44 142.371 232.909C142.904 233.997 143.466 235.557 143.722 236.293C143.516 236.338 143.302 236.381 143.084 236.422C142.747 235.387 141.493 231.906 139.898 232.109C138.025 232.346 138.778 233.742 140.105 234.57C141.079 235.179 142.274 236.045 142.843 236.464C142.361 236.542 141.859 236.595 141.349 236.583C140.041 236.553 139.403 236.938 139.155 237.145Z" fill="#A8D29F"/>
<path d="M145.836 236.342L146.029 236.311C146.79 226.461 149.798 219.392 149.84 219.296L149.664 219.22C149.622 219.317 146.592 226.432 145.836 236.342Z" fill="#A8D29F"/>
<path d="M151.881 218.304C151.51 218.725 149.773 219.401 149.653 219.295C149.533 219.189 149.988 217.381 150.359 216.961C150.73 216.541 151.371 216.501 151.792 216.872C152.212 217.243 152.252 217.884 151.881 218.304Z" fill="#CCDBFD"/>
<path d="M149.219 216.839C149.554 217.289 149.858 219.128 149.73 219.223C149.602 219.319 147.927 218.502 147.592 218.052C147.257 217.603 147.349 216.967 147.799 216.632C148.248 216.297 148.884 216.39 149.219 216.839Z" fill="#CCDBFD"/>
<path d="M147.221 218.794C147.762 218.647 149.585 219.036 149.627 219.191C149.669 219.345 148.296 220.605 147.755 220.753C147.214 220.9 146.656 220.581 146.509 220.04C146.361 219.5 146.68 218.942 147.221 218.794Z" fill="#CCDBFD"/>
<path d="M148.453 221.233C148.507 220.675 149.517 219.108 149.676 219.124C149.835 219.139 150.527 220.87 150.473 221.428C150.419 221.986 149.923 222.394 149.365 222.34C148.807 222.286 148.399 221.79 148.453 221.233Z" fill="#CCDBFD"/>
<path d="M151.217 221.112C150.721 220.852 149.652 219.325 149.726 219.183C149.801 219.042 151.665 219.054 152.161 219.315C152.657 219.576 152.848 220.189 152.588 220.685C152.327 221.182 151.714 221.373 151.217 221.112Z" fill="#CCDBFD"/>
<path d="M149.78 219.5C149.963 219.471 150.087 219.299 150.058 219.117C150.029 218.935 149.857 218.81 149.675 218.839C149.493 218.869 149.369 219.04 149.398 219.222C149.427 219.404 149.598 219.529 149.78 219.5Z" fill="#233862"/>
<path d="M146.605 223.765C147.087 224.358 147.607 226.845 147.438 226.983C147.269 227.12 144.94 226.104 144.457 225.511C143.975 224.918 144.065 224.046 144.658 223.564C145.251 223.082 146.123 223.172 146.605 223.765Z" fill="#A8D29F"/>
<path d="M149.106 228.632C148.25 229.049 146.359 231.585 146.478 231.83C146.597 232.074 149.76 232.146 150.616 231.729C151.471 231.312 151.826 230.28 151.409 229.425C150.992 228.57 149.961 228.215 149.106 228.632Z" fill="#A8D29F"/>
<path d="M335.457 237.093H327.821C327.412 236.746 328.104 235.958 328.828 235.905C329.142 235.881 329.539 235.947 329.993 236.043C330.098 234.647 330.698 228.373 332.96 228.625C335.503 228.907 332.96 231.388 332.241 232.857C331.709 233.945 331.147 235.505 330.89 236.241C331.097 236.286 331.31 236.33 331.529 236.37C331.866 235.335 333.12 231.854 334.715 232.057C336.587 232.294 335.835 233.69 334.508 234.518C333.534 235.128 332.338 235.994 331.77 236.412C332.251 236.49 332.754 236.543 333.263 236.532C334.571 236.501 335.21 236.886 335.457 237.093Z" fill="#A8D29F"/>
<path d="M92.4317 236.56L92.2633 236.533C91.6002 227.953 88.9802 221.796 88.9435 221.713L89.0968 221.646C89.1333 221.731 91.7725 227.929 92.4317 236.56Z" fill="#A8D29F"/>
<path d="M87.1659 220.849C87.4891 221.215 89.0019 221.804 89.1065 221.711C89.2109 221.619 88.8145 220.045 88.4914 219.679C88.1684 219.313 87.6098 219.278 87.2437 219.601C86.8777 219.924 86.8429 220.483 87.1659 220.849Z" fill="#CCDBFD"/>
<path d="M89.4845 219.573C89.1926 219.964 88.9277 221.566 89.0395 221.65C89.1511 221.733 90.6104 221.021 90.9021 220.63C91.1938 220.238 91.113 219.684 90.7215 219.392C90.33 219.101 89.7762 219.182 89.4845 219.573Z" fill="#CCDBFD"/>
<path d="M91.2248 221.276C90.7538 221.148 89.166 221.487 89.1294 221.621C89.0927 221.756 90.2889 222.853 90.7599 222.982C91.231 223.11 91.7169 222.832 91.8452 222.361C91.9736 221.89 91.6958 221.404 91.2248 221.276Z" fill="#CCDBFD"/>
<path d="M90.1521 223.4C90.1051 222.914 89.2251 221.549 89.0865 221.563C88.9478 221.576 88.3454 223.084 88.3924 223.57C88.4394 224.056 88.8714 224.411 89.3573 224.364C89.8432 224.317 90.1991 223.886 90.1521 223.4Z" fill="#CCDBFD"/>
<path d="M87.744 223.295C88.1763 223.068 89.1074 221.738 89.0425 221.615C88.9777 221.492 87.3543 221.503 86.922 221.73C86.4897 221.957 86.3233 222.491 86.5503 222.923C86.7773 223.356 87.3117 223.522 87.744 223.295Z" fill="#CCDBFD"/>
<path d="M89.3225 221.665C89.3478 221.506 89.2396 221.357 89.0809 221.332C88.9221 221.306 88.7729 221.415 88.7476 221.573C88.7223 221.732 88.8305 221.881 88.9892 221.907C89.148 221.932 89.2972 221.824 89.3225 221.665Z" fill="#233862"/>
<path d="M91.6389 224.092C91.1586 224.683 90.64 227.161 90.8086 227.298C90.9772 227.435 93.2978 226.422 93.7782 225.832C94.2585 225.241 94.1691 224.373 93.5784 223.892C92.9876 223.412 92.1193 223.501 91.6389 224.092Z" fill="#A8D29F"/>
<path d="M90.4574 231.21C90.9563 231.453 92.0593 232.932 91.9899 233.075C91.9205 233.217 90.0756 233.259 89.5767 233.016C89.0779 232.773 88.8706 232.171 89.1138 231.672C89.3571 231.174 89.9587 230.967 90.4574 231.21Z" fill="#A8D29F"/>
<path d="M97.2394 236.56L97.4327 236.529C98.1941 226.679 101.202 219.61 101.244 219.514L101.068 219.438C101.026 219.535 97.9962 226.65 97.2394 236.56Z" fill="#A8D29F"/>
<path d="M103.285 218.522C102.914 218.942 101.177 219.618 101.057 219.512C100.937 219.407 101.392 217.599 101.763 217.179C102.134 216.759 102.775 216.719 103.196 217.089C103.616 217.46 103.656 218.102 103.285 218.522Z" fill="#CCDBFD"/>
<path d="M100.623 217.057C100.958 217.506 101.262 219.345 101.134 219.441C101.006 219.537 99.3306 218.719 98.9956 218.27C98.6607 217.821 98.7534 217.185 99.2029 216.85C99.6523 216.515 100.288 216.607 100.623 217.057Z" fill="#CCDBFD"/>
<path d="M98.6251 219.012C99.1659 218.865 100.989 219.254 101.031 219.409C101.073 219.563 99.6996 220.823 99.1588 220.971C98.6181 221.118 98.0602 220.799 97.9128 220.258C97.7653 219.718 98.0843 219.16 98.6251 219.012Z" fill="#CCDBFD"/>
<path d="M99.8567 221.45C99.9105 220.892 100.921 219.326 101.08 219.341C101.239 219.357 101.931 221.088 101.877 221.646C101.823 222.204 101.327 222.612 100.769 222.558C100.211 222.504 99.8027 222.008 99.8567 221.45Z" fill="#CCDBFD"/>
<path d="M102.622 221.33C102.125 221.069 101.056 219.543 101.131 219.401C101.205 219.259 103.069 219.272 103.565 219.533C104.061 219.793 104.253 220.407 103.992 220.903C103.731 221.399 103.118 221.591 102.622 221.33Z" fill="#CCDBFD"/>
<path d="M101.189 219.737C101.371 219.708 101.495 219.537 101.466 219.354C101.437 219.172 101.266 219.048 101.084 219.077C100.901 219.106 100.777 219.277 100.806 219.459C100.835 219.642 101.006 219.766 101.189 219.737Z" fill="#233862"/>
<path d="M97.2947 226.488C97.8463 227.166 98.4415 230.012 98.2479 230.169C98.0544 230.327 95.3902 229.164 94.8386 228.485C94.287 227.807 94.3897 226.81 95.068 226.259C95.7462 225.707 96.7431 225.81 97.2947 226.488Z" fill="#A8D29F"/>
<path d="M99.506 230.417C98.9334 230.697 97.6669 232.395 97.7466 232.559C97.8263 232.722 99.9446 232.77 100.517 232.491C101.09 232.212 101.328 231.521 101.049 230.949C100.769 230.376 100.079 230.138 99.506 230.417Z" fill="#A8D29F"/>
<path d="M88.3896 237.363C88.3896 237.363 90.7418 234.255 94.0872 235.392C97.4326 236.529 101.892 235.494 101.88 237.052L88.3896 237.363Z" fill="#A8D29F"/>
<path d="M270.823 141.289C270.823 141.289 270.331 139.078 269.231 138.324C268.131 137.57 266.467 137.869 264.914 137.012C263.361 136.156 262.419 135.63 262.519 136.384C262.619 137.137 264.327 139.019 265.495 139.516C266.662 140.012 267.982 140.244 268.357 141.025C268.733 141.806 268.781 142.521 268.781 142.521L270.823 141.289Z" fill="#FFB27D"/>
<path d="M268.213 138.985C268.213 138.985 265.698 137.003 265.421 136.616C265.144 136.228 266.563 136.654 267.359 137.102C268.155 137.55 269.231 138.324 269.231 138.324L268.213 138.985Z" fill="#FFB27D"/>
<path d="M290.609 143.175C290.12 143.282 278.712 151.524 277.332 149.962C276.936 149.514 271.015 140.661 271.015 140.661C271.015 140.661 268.466 141.27 267.982 143.351C267.982 143.351 271.526 156.236 276.232 158.04C279.367 159.241 291.569 153.588 291.569 153.588L290.609 143.175Z" fill="#ED7D2B"/>
<path d="M318.199 228.52C318.199 228.52 320.093 230.249 319.724 231.478C319.354 232.706 317.644 233.525 317.413 235.027C317.182 236.529 316.258 237.348 315.426 237.348C314.594 237.348 311.46 237.348 311.46 237.348C311.46 237.348 310.848 236.291 312.327 235.973C313.805 235.654 314.363 233.89 314.271 232.251C314.178 230.613 314.409 228.429 314.409 228.429L317.552 227.701L318.199 228.52Z" fill="#305387"/>
<path d="M294.953 232.993C294.953 232.993 295.293 236.928 294.461 237.338L283.816 237.316C283.816 237.316 283.816 236.087 285.526 235.814C287.235 235.541 290.239 234.54 290.748 232.31C291.256 230.081 294.953 232.993 294.953 232.993Z" fill="#305387"/>
<path d="M285.965 177.404C285.965 177.404 286.527 184.302 287.187 192.594C288.084 203.858 289.162 217.693 289.269 220.315C289.453 224.866 290.194 232.146 290.194 232.146C290.194 232.146 291.949 233.876 295.462 233.147C295.462 233.147 298.593 222.754 299.487 211.758C299.501 211.578 299.515 211.396 299.529 211.214C300.36 200.02 301.654 176.448 301.654 176.448L285.965 177.404Z" fill="#AEC3FF"/>
<path d="M285.965 177.403C285.965 177.403 286.527 184.301 287.187 192.593L299.487 211.757C299.501 211.577 299.515 211.395 299.529 211.214C300.36 200.02 301.654 176.448 301.654 176.448L285.965 177.403Z" fill="#91B0F2"/>
<path d="M288.529 178.223C288.529 178.223 298.65 203.205 305.305 214.945C311.96 226.685 314.04 229.962 314.04 229.962C314.04 229.962 317.852 228.46 318.199 227.436C318.199 227.436 315.654 204.771 311.197 199.246C308.679 196.124 305.721 186.755 305.582 183.479C305.444 180.202 304.681 173.718 304.681 173.718L288.529 178.223Z" fill="#AEC3FF"/>
<path d="M301.545 142.043C301.545 142.043 294.436 144.74 290.609 143.175C290.609 143.175 291.227 142.522 292.299 141.874C292.987 141.458 293.402 140.704 293.36 139.901C293.347 139.651 293.338 139.416 293.334 139.196C293.285 137.841 293.416 136.887 293.416 136.887L296.164 135.24L298.832 133.477C298.15 139.031 301.545 142.043 301.545 142.043Z" fill="#FFB27D"/>
<path d="M305.765 176.403C305.791 176.82 304.906 177.319 304.515 177.509C301.617 178.864 298.907 179.826 295.816 180.198C292.168 180.66 287.822 179.943 286.336 180.01C286.184 180.013 286.044 179.959 285.921 179.855C285.812 179.785 285.633 175.375 285.573 169.829C285.568 169.606 285.562 169.379 285.573 169.156L285.571 169.082C285.549 166.913 285.571 164.64 285.62 162.366C285.653 160.594 285.71 158.845 285.798 157.207C285.904 155.156 286.057 153.278 286.269 151.741C286.366 151.04 286.475 150.412 286.597 149.869C287.149 147.469 288.199 145.649 289.38 144.234C289.979 143.518 290.692 142.906 291.477 142.402L292.332 141.855C293.706 142.09 294.864 141.937 296.291 141.201C297.85 140.398 299.531 139.537 299.809 139.741C301.91 141.201 303.388 144.56 304.237 148.876C304.707 151.276 304.982 153.962 305.05 156.783C305.052 156.882 305.055 156.982 305.057 157.082C305.079 157.991 305.079 158.921 305.058 159.846C305.055 160.017 305.049 160.188 305.044 160.357C304.963 162.556 304.979 164.643 305.046 166.554C305.055 166.836 305.066 167.114 305.077 167.388C305.201 170.261 305.432 172.681 305.597 174.386C305.677 175.253 305.739 175.923 305.765 176.403Z" fill="#F99746"/>
<path d="M298.692 135.611C298.692 135.611 296.693 138.604 293.334 139.196C293.22 137.482 293.591 134.849 293.591 134.849L296.164 135.241L298.692 135.611Z" fill="#ED985F"/>
<path d="M291.598 135.413C291.598 135.413 297.422 138.558 299.315 134.963C301.207 131.368 303.233 129.353 299.594 127.193C295.955 125.033 294.505 126.026 293.576 127.071C292.647 128.116 290.131 134.503 291.598 135.413Z" fill="#FFB27D"/>
<path d="M304.145 128.258C304.224 128.213 304.371 128.206 304.664 128.29C304.664 128.29 304.484 128.066 304.179 127.953C304.257 127.532 304.289 126.75 303.66 126.34C303.66 126.34 303.962 126.665 303.863 127.107C303.349 126.012 301.846 124.825 296.986 123.562C290.58 121.898 291.254 126.601 291.897 127.357C292.54 128.112 295.023 127.51 296.486 128.149C297.948 128.789 297.483 131.061 297.89 131.536C298.297 132.011 298.279 131.414 299.077 131.34C299.876 131.267 299.546 132.434 299.089 133.109C298.632 133.784 299.242 135.093 299.242 135.093C299.242 135.093 299.242 135.093 300.557 134.392C301.873 133.691 304.288 129.63 304.175 128.548C304.165 128.452 304.156 128.355 304.145 128.258Z" fill="#2C3A64"/>
<path d="M311.297 175.834C311.246 175.952 309.541 178.38 309.789 180.355C309.949 181.629 312.829 184.907 312.719 183.147C312.48 179.33 313.271 179.745 313.812 176.784L311.297 175.834Z" fill="#FFB27D"/>
<path d="M310.751 176.761C310.751 176.761 308.325 178.38 308.681 178.657C309.037 178.934 310.501 177.984 310.501 177.984L310.751 176.761Z" fill="#FFB27D"/>
<path d="M305.044 160.357C304.963 162.556 304.979 164.643 305.045 166.554L305.044 166.559C301.123 163.333 297.823 153.594 297.747 153.41L305.05 156.783C305.051 156.882 305.055 156.982 305.056 157.082C305.078 157.991 305.078 158.921 305.058 159.846C305.055 160.017 305.048 160.188 305.044 160.357Z" fill="#ED7D2B"/>
<path d="M295.089 145.133C295.569 141.493 299.809 139.741 301.26 141.167C301.314 141.22 310.318 150.187 313.351 158.802C315.487 164.872 314.221 176.874 314.221 176.874C314.221 176.874 311.537 177.256 310.574 176.064C310.574 176.064 309.178 166.256 307.715 163.57C306.728 161.758 294.083 151.44 294.646 148.14C294.795 147.267 294.947 146.212 295.089 145.133Z" fill="#F99746"/>
<path d="M287.586 110.437C280.684 102.996 273.393 113.523 273.393 113.523C273.393 113.523 264.354 104.453 258.878 112.999C253.403 121.544 275.318 135.097 275.318 135.097C275.318 135.097 294.487 117.879 287.586 110.437Z" fill="#F78248"/>
<path d="M285.618 113.675C285.015 113.951 284.3 113.787 283.881 113.272C283.432 112.721 282.738 112.11 281.824 112.013C281.208 111.948 280.762 111.397 280.828 110.782C280.893 110.167 281.444 109.721 282.059 109.786C284.041 109.995 285.327 111.394 285.988 112.354C286.303 112.813 286.126 113.445 285.618 113.675Z" fill="#FFB699"/>
<path d="M273.4 132.152C272.163 131.214 268.763 128.24 268.763 128.24C268.222 127.827 267.386 126.788 267.798 126.247C268.21 125.705 269.718 126.778 270.259 127.19C270.259 127.19 272.752 129.588 274.078 130.327C275.535 131.139 276.17 131.831 275.758 132.372C275.547 132.648 274.486 132.977 273.4 132.152Z" fill="#FFB699"/>
<path d="M351.946 238.079H29.962C29.7417 238.079 29.5615 237.899 29.5615 237.679V237.453C29.5615 237.233 29.7417 237.053 29.962 237.053H351.946C352.166 237.053 352.346 237.233 352.346 237.453V237.679C352.346 237.899 352.166 238.079 351.946 238.079Z" fill="#233862"/>
</svg>
