<svg width="1000" height="444" viewBox="0 0 1000 444" fill="none" xmlns="http://www.w3.org/2000/svg">
<path d="M97.8643 405.674C72.0442 379.859 68.5464 351.011 93.5103 316.11C118.474 281.209 125.49 261.202 104.839 192.209C88.541 137.757 145.37 71.6721 210.264 100.265C283.637 132.593 368.816 -7.78872 518.339 54.0625C647.876 107.646 672.855 -28.6586 822.792 98.2574C953.079 208.54 936.681 304.646 899.897 405.675C741.003 405.674 97.8643 405.674 97.8643 405.674Z" fill="#D2E4FF"/>
<path d="M293.032 334.794H289.473V397.146H293.032V334.794Z" fill="#355389"/>
<path d="M292.185 223.631L274.651 349.484H309.719L292.185 223.631Z" fill="#3C8F7C"/>
<path d="M275.763 341.499L307.225 331.581L306.749 328.167L276.282 337.772L275.763 341.499Z" fill="#50BFA5"/>
<path d="M281.302 301.74L302.151 295.167L301.676 291.754L281.822 298.013L281.302 301.74Z" fill="#50BFA5"/>
<path d="M262.366 339.231H259.345V372.721H262.366V339.231Z" fill="#355389"/>
<path d="M260.855 274.263L250.993 353.964H270.717L260.855 274.263Z" fill="#3C8F7C"/>
<path d="M254.57 325.057L268.633 337.116L268.091 332.746L255.006 321.526L254.57 325.057Z" fill="#50BFA5"/>
<path d="M256.732 307.587L265.342 310.531L264.938 307.259L257.103 304.581L256.732 307.587Z" fill="#50BFA5"/>
<path d="M210.454 385.672C210.701 384.213 210.829 382.719 210.829 381.2C210.829 364.256 194.949 350.521 175.361 350.521C155.772 350.521 139.893 364.256 139.893 381.2C139.893 382.719 140.021 384.213 140.268 385.672H210.454Z" fill="#3C8F7C"/>
<path d="M250.594 378.133C250.841 376.074 250.969 373.968 250.969 371.825C250.969 347.931 235.09 328.56 215.501 328.56C195.913 328.56 180.033 347.931 180.033 371.825C180.033 373.968 180.161 376.074 180.408 378.133H250.594Z" fill="#50BFA5"/>
<path d="M237.608 404.645C237.362 403.185 237.233 401.692 237.233 400.172C237.233 383.229 253.113 369.493 272.701 369.493C292.29 369.493 308.17 383.229 308.17 400.172C308.17 401.691 308.041 403.185 307.795 404.645H237.608Z" fill="#50BFA5"/>
<path d="M180.844 404.645C180.532 402.586 180.369 400.48 180.369 398.338C180.369 374.443 200.5 355.072 225.332 355.072C250.163 355.072 270.294 374.443 270.294 398.338C270.294 400.48 270.131 402.586 269.819 404.645H180.844Z" fill="#3C8F7C"/>
<path d="M215.367 355.072C202.956 355.072 191.869 361.217 184.552 370.855C180.826 369.97 176.867 369.493 172.762 369.493C150.728 369.493 132.866 383.229 132.866 400.173C132.866 401.691 133.01 403.185 133.287 404.645H254.842C255.119 402.586 255.264 400.48 255.264 398.338C255.264 374.443 237.401 355.072 215.367 355.072Z" fill="#50BFA5"/>
<path d="M252.579 240.609C252.429 239.589 250.909 238.795 250.258 239.7C249.609 240.603 249.57 239.993 249.062 241.946C247.605 247.55 245.135 252.971 242.078 257.709C236.22 266.787 229.909 271.367 222.666 275.904C225.039 268.779 226.299 261.175 225.679 253.503C225.453 250.707 225.062 247.808 223.552 245.243C223.131 244.526 221.848 244.673 221.809 245.472C221.617 249.43 222.925 252.415 222.452 259.5C221.322 276.405 211.155 294.337 200.795 306.894C200.588 285.636 198.876 261.478 192.328 240.036C191.254 236.519 189.807 233.174 188.425 229.738C188.1 228.93 186.977 229.277 187.214 230.08C187.551 231.223 191.198 245.978 191.434 246.994C195.207 263.324 196.938 281.413 197.398 297.909C186.803 285.647 178.996 271.305 174.383 256.329C173.02 251.902 172.262 247.332 170.567 242.986C170.333 242.388 169.325 242.324 169.277 242.986C168.813 249.496 172.599 261.011 175.109 267.268C180.197 279.947 187.299 291.313 196.382 301.465C196.735 301.86 195.777 404.743 195.777 404.743L200.666 404.59C200.666 404.59 200.847 340.321 200.818 312.376C201.958 311.714 202.605 310.536 205.333 307.059C211.646 299.012 217.65 288.999 221.343 279.556C224.199 279.394 243.801 269.419 251.457 246.702C251.677 246.047 252.657 242.972 252.769 242.286C252.864 241.699 252.664 241.189 252.579 240.609Z" fill="#0E2E35"/>
<path d="M184.579 208.178C184.816 205.085 184.939 201.923 184.939 198.705C184.939 162.82 169.707 133.729 150.92 133.729C132.131 133.729 116.9 162.82 116.9 198.705C116.9 201.923 117.023 205.085 117.26 208.178H184.579Z" fill="#184655"/>
<path d="M223.08 192.209C223.316 187.848 223.439 183.387 223.439 178.85C223.439 128.241 208.208 87.2151 189.42 87.2151C170.632 87.2151 155.401 128.241 155.401 178.85C155.401 183.388 155.524 187.848 155.76 192.209H223.08Z" fill="#3C8F7C"/>
<path d="M210.624 248.361C210.388 245.268 210.264 242.106 210.264 238.888C210.264 203.002 225.495 173.912 244.284 173.912C263.072 173.912 278.303 203.002 278.303 238.888C278.303 242.106 278.18 245.268 277.943 248.361H210.624Z" fill="#3C8F7C"/>
<path d="M156.179 248.361C155.879 244 155.723 239.54 155.723 235.002C155.723 184.394 175.031 143.368 198.849 143.368C222.667 143.368 241.975 184.394 241.975 235.002C241.975 239.54 241.819 244 241.519 248.361H156.179V248.361Z" fill="#184655"/>
<path d="M189.291 143.368C177.387 143.368 166.753 156.383 159.734 176.795C156.161 174.921 152.363 173.912 148.427 173.912C127.293 173.912 110.16 203.003 110.16 238.888C110.16 242.106 110.298 245.269 110.565 248.361H227.154C227.42 244 227.559 239.54 227.559 235.002C227.558 184.394 210.426 143.368 189.291 143.368Z" fill="#3C8F7C"/>
<path d="M871.033 330.921C870.977 330.542 870.414 330.248 870.173 330.584C869.932 330.918 869.918 330.692 869.729 331.416C869.189 333.493 868.274 335.503 867.14 337.26C864.969 340.625 862.629 342.323 859.943 344.005C860.823 341.364 861.29 338.545 861.061 335.7C860.977 334.664 860.832 333.589 860.272 332.638C860.116 332.372 859.64 332.427 859.626 332.723C859.555 334.191 860.04 335.297 859.864 337.924C859.445 344.191 855.676 350.838 851.836 355.494C851.759 347.613 851.124 338.657 848.697 330.708C848.299 329.404 847.762 328.164 847.25 326.89C847.129 326.591 846.713 326.72 846.801 327.017C846.926 327.441 848.278 332.911 848.365 333.288C849.764 339.341 850.406 346.047 850.577 352.163C846.648 347.617 843.754 342.3 842.045 336.748C841.539 335.107 841.258 333.413 840.63 331.802C840.543 331.58 840.169 331.556 840.152 331.802C839.979 334.215 841.383 338.484 842.314 340.804C844.2 345.504 846.833 349.718 850.2 353.481C850.331 353.628 849.976 391.597 849.976 391.597H851.788C851.788 391.597 851.855 367.886 851.845 357.526C852.267 357.281 852.507 356.844 853.518 355.555C855.859 352.572 858.084 348.86 859.453 345.359C860.512 345.299 867.779 341.601 870.617 333.179C870.699 332.936 871.062 331.796 871.104 331.542C871.139 331.325 871.065 331.136 871.033 330.921Z" fill="#0E2E35"/>
<path d="M845.825 318.898C845.912 317.751 845.958 316.579 845.958 315.386C845.958 302.083 840.312 291.298 833.346 291.298C826.381 291.298 820.735 302.083 820.735 315.386C820.735 316.579 820.78 317.751 820.868 318.898H845.825Z" fill="#184655"/>
<path d="M860.097 312.978C860.185 311.361 860.231 309.708 860.231 308.025C860.231 289.264 854.585 274.054 847.619 274.054C840.654 274.054 835.008 289.264 835.008 308.025C835.008 309.708 835.053 311.361 835.141 312.978H860.097Z" fill="#3C8F7C"/>
<path d="M855.48 333.795C855.392 332.648 855.346 331.476 855.346 330.283C855.346 316.979 860.993 306.195 867.958 306.195C874.923 306.195 880.57 316.979 880.57 330.283C880.57 331.476 880.524 332.648 880.436 333.795H855.48Z" fill="#3C8F7C"/>
<path d="M835.296 333.794C835.185 332.178 835.127 330.524 835.127 328.842C835.127 310.08 842.285 294.871 851.114 294.871C859.944 294.871 867.102 310.08 867.102 328.842C867.102 330.524 867.044 332.178 866.933 333.794H835.296Z" fill="#184655"/>
<path d="M847.571 294.871C843.158 294.871 839.216 299.696 836.614 307.264C835.289 306.569 833.881 306.195 832.422 306.195C824.587 306.195 818.236 316.979 818.236 330.283C818.236 331.476 818.287 332.648 818.386 333.795H861.608C861.707 332.178 861.758 330.524 861.758 328.842C861.758 310.08 855.406 294.871 847.571 294.871Z" fill="#3C8F7C"/>
<path d="M770.674 385.672C770.92 384.213 771.049 382.719 771.049 381.2C771.049 364.256 755.169 350.521 735.581 350.521C715.992 350.521 700.113 364.256 700.113 381.2C700.113 382.719 700.241 384.213 700.488 385.672H770.674Z" fill="#3C8F7C"/>
<path d="M810.814 378.133C811.061 376.074 811.189 373.968 811.189 371.825C811.189 347.931 795.309 328.56 775.721 328.56C756.133 328.56 740.253 347.931 740.253 371.825C740.253 373.968 740.381 376.074 740.628 378.133H810.814Z" fill="#50BFA5"/>
<path d="M804.904 404.645C804.657 403.185 804.529 401.692 804.529 400.172C804.529 383.229 820.409 369.493 839.997 369.493C859.585 369.493 875.465 383.229 875.465 400.172C875.465 401.691 875.337 403.185 875.09 404.645H804.904Z" fill="#50BFA5"/>
<path d="M741.064 404.645C740.752 402.586 740.588 400.48 740.588 398.338C740.588 374.443 760.719 355.072 785.551 355.072C810.383 355.072 830.514 374.443 830.514 398.338C830.514 400.48 830.351 402.586 830.038 404.645H741.064Z" fill="#3C8F7C"/>
<path d="M775.587 355.072C763.176 355.072 752.089 361.217 744.772 370.855C741.046 369.97 737.086 369.493 732.982 369.493C710.948 369.493 693.085 383.229 693.085 400.173C693.085 401.691 693.23 403.185 693.507 404.645H815.062C815.339 402.586 815.484 400.48 815.484 398.338C815.484 374.443 797.621 355.072 775.587 355.072Z" fill="#50BFA5"/>
<path d="M624.141 385.672C624.387 384.213 624.515 382.719 624.515 381.2C624.515 364.256 608.636 350.521 589.047 350.521C569.459 350.521 553.579 364.256 553.579 381.2C553.579 382.719 553.708 384.213 553.954 385.672H624.141Z" fill="#3C8F7C"/>
<path d="M664.281 378.133C664.528 376.074 664.656 373.968 664.656 371.825C664.656 347.931 648.776 328.56 629.187 328.56C609.599 328.56 593.719 347.931 593.719 371.825C593.719 373.968 593.848 376.074 594.094 378.133H664.281Z" fill="#50BFA5"/>
<path d="M651.295 404.645C651.048 403.185 650.92 401.692 650.92 400.172C650.92 383.229 666.799 369.493 686.388 369.493C705.976 369.493 721.856 383.229 721.856 400.172C721.856 401.691 721.728 403.185 721.481 404.645H651.295Z" fill="#50BFA5"/>
<path d="M594.53 404.645C594.218 402.586 594.055 400.48 594.055 398.338C594.055 374.443 614.186 355.072 639.018 355.072C663.85 355.072 683.981 374.443 683.981 398.338C683.981 400.48 683.818 402.586 683.505 404.645H594.53Z" fill="#3C8F7C"/>
<path d="M629.053 355.072C616.642 355.072 605.555 361.217 598.238 370.855C594.512 369.97 590.553 369.493 586.449 369.493C564.415 369.493 546.552 383.229 546.552 400.173C546.552 401.691 546.696 403.185 546.974 404.645H668.529C668.806 402.586 668.95 400.48 668.95 398.338C668.95 374.443 651.088 355.072 629.053 355.072Z" fill="#50BFA5"/>
<path d="M433.045 374.942C433.51 372.657 433.752 370.319 433.752 367.94C433.752 341.414 403.764 319.911 366.772 319.911C329.779 319.911 299.79 341.414 299.79 367.94C299.79 370.319 300.033 372.657 300.499 374.942H433.045Z" fill="#3C8F7C"/>
<path d="M508.849 363.139C509.316 359.915 509.558 356.618 509.558 353.264C509.558 315.856 479.569 285.53 442.576 285.53C405.584 285.53 375.595 315.856 375.595 353.264C375.595 356.619 375.837 359.915 376.303 363.139H508.849Z" fill="#50BFA5"/>
<path d="M484.325 404.645C483.859 402.359 483.617 400.021 483.617 397.643C483.617 371.117 513.605 349.613 550.598 349.613C587.591 349.613 617.58 371.117 617.58 397.643C617.58 400.021 617.337 402.359 616.872 404.645H484.325Z" fill="#50BFA5"/>
<path d="M377.127 404.645C376.537 401.421 376.229 398.124 376.229 394.77C376.229 357.362 414.246 327.036 461.141 327.036C508.036 327.036 546.053 357.362 546.053 394.77C546.053 398.124 545.745 401.421 545.155 404.645H377.127Z" fill="#3C8F7C"/>
<path d="M442.323 327.036C418.885 327.036 397.947 336.657 384.128 351.745C377.091 350.359 369.615 349.613 361.864 349.613C320.252 349.613 286.519 371.117 286.519 397.643C286.519 400.021 286.792 402.359 287.316 404.645H516.872C517.395 401.421 517.668 398.125 517.668 394.77C517.668 357.362 483.935 327.036 442.323 327.036Z" fill="#50BFA5"/>
<path d="M712.353 257.428C712.488 256.512 713.851 255.8 714.436 256.612C715.018 257.422 715.053 256.875 715.509 258.627C716.816 263.655 719.032 268.519 721.775 272.77C727.031 280.915 732.694 285.025 739.193 289.096C737.063 282.703 735.933 275.88 736.489 268.996C736.691 266.488 737.043 263.886 738.397 261.585C738.775 260.942 739.926 261.074 739.961 261.791C740.134 265.342 738.96 268.02 739.384 274.377C740.398 289.546 749.52 305.634 758.816 316.901C759.001 297.828 760.537 276.152 766.413 256.914C767.376 253.758 768.674 250.757 769.915 247.674C770.206 246.949 771.214 247.261 771.002 247.981C770.699 249.006 767.426 262.245 767.215 263.157C763.829 277.808 762.277 294.038 761.863 308.84C771.37 297.837 778.375 284.97 782.513 271.532C783.736 267.56 784.416 263.459 785.937 259.561C786.147 259.024 787.052 258.966 787.095 259.561C787.511 265.401 784.114 275.733 781.862 281.347C777.297 292.724 770.924 302.921 762.775 312.031C762.458 312.385 763.318 404.28 763.318 404.28H758.931C758.931 404.28 758.769 346.894 758.795 321.821C757.772 321.226 757.191 320.169 754.744 317.05C749.079 309.829 743.693 300.846 740.379 292.373C737.817 292.228 720.229 283.277 713.359 262.895C713.161 262.307 712.283 259.548 712.182 258.933C712.097 258.405 712.277 257.948 712.353 257.428Z" fill="#0E2E35"/>
<path d="M773.365 228.329C773.153 225.554 773.043 222.716 773.043 219.83C773.043 187.632 786.709 161.53 803.566 161.53C820.424 161.53 834.09 187.632 834.09 219.83C834.09 222.716 833.979 225.554 833.767 228.329H773.365Z" fill="#184655"/>
<path d="M738.821 214C738.609 210.088 738.498 206.086 738.498 202.015C738.498 156.606 752.164 119.796 769.022 119.796C785.88 119.796 799.545 156.606 799.545 202.015C799.545 206.086 799.435 210.088 799.223 214H738.821Z" fill="#3C8F7C"/>
<path d="M749.997 264.383C750.209 261.608 750.319 258.77 750.319 255.883C750.319 223.685 736.654 197.583 719.796 197.583C702.938 197.583 689.273 223.685 689.273 255.883C689.273 258.77 689.383 261.608 689.595 264.383H749.997Z" fill="#3C8F7C"/>
<path d="M798.847 264.382C799.116 260.469 799.256 256.468 799.256 252.396C799.256 206.988 781.932 170.178 760.562 170.178C739.191 170.178 721.867 206.988 721.867 252.396C721.867 256.468 722.007 260.469 722.276 264.382H798.847Z" fill="#184655"/>
<path d="M769.137 170.178C779.818 170.178 789.359 181.856 795.657 200.17C798.863 198.489 802.271 197.583 805.802 197.583C824.765 197.583 840.137 223.685 840.137 255.883C840.137 258.77 840.013 261.608 839.774 264.382H735.165C734.926 260.469 734.802 256.468 734.802 252.396C734.802 206.988 750.175 170.178 769.137 170.178Z" fill="#3C8F7C"/>
<path d="M911.016 407.363H75.4135C74.5196 407.363 73.7952 406.638 73.7952 405.744C73.7952 404.851 74.5198 404.126 75.4135 404.126H911.016C911.909 404.126 912.634 404.851 912.634 405.744C912.634 406.638 911.91 407.363 911.016 407.363Z" fill="#F7A491"/>
<path opacity="0.5" d="M369.915 125.02C368.87 120.446 364.802 117.033 359.939 117.033C359.047 117.033 358.181 117.149 357.355 117.365C354.955 112.2 349.747 108.622 343.707 108.622C342.145 108.622 340.639 108.861 339.223 109.305C335.971 103.887 330.064 100.265 323.315 100.265C315.286 100.265 308.447 105.392 305.856 112.571C304.022 111.542 301.91 110.953 299.661 110.953C292.623 110.953 286.918 116.694 286.918 123.776C286.918 124.196 286.939 124.611 286.979 125.02H369.915V125.02Z" fill="#6A9AD3"/>
<path opacity="0.5" d="M597.48 173.907C596.435 169.333 592.367 165.92 587.504 165.92C586.612 165.92 585.746 166.036 584.92 166.252C582.52 161.088 577.311 157.509 571.272 157.509C569.71 157.509 568.204 157.748 566.788 158.192C563.536 152.774 557.629 149.152 550.88 149.152C542.851 149.152 536.012 154.28 533.421 161.458C531.587 160.429 529.475 159.84 527.226 159.84C520.189 159.84 514.483 165.581 514.483 172.663C514.483 173.082 514.505 173.497 514.544 173.907H597.48V173.907Z" fill="#6A9AD3"/>
<path opacity="0.5" d="M694.294 112.642C693.249 108.068 689.182 104.655 684.319 104.655C683.426 104.655 682.56 104.771 681.734 104.987C679.335 99.8226 674.126 96.2442 668.086 96.2442C666.524 96.2442 665.018 96.4833 663.602 96.9273C660.351 91.5095 654.443 87.8872 647.695 87.8872C639.666 87.8872 632.827 93.0148 630.236 100.193C628.401 99.1643 626.29 98.5757 624.041 98.5757C617.003 98.5757 611.298 104.317 611.298 111.398C611.298 111.818 611.319 112.233 611.358 112.642H694.294Z" fill="#6A9AD3"/>
<path d="M291.493 255.953H286.508V330.232H291.493V255.953Z" fill="#31535B"/>
<path d="M537.462 255.953H532.477V330.232H537.462V255.953Z" fill="#31535B"/>
<path d="M550.805 245.699H273.164C271.073 245.699 269.378 247.393 269.378 249.485V256.68C269.378 258.772 271.073 260.466 273.164 260.466H550.805C552.897 260.466 554.592 258.772 554.592 256.68V249.485C554.592 247.393 552.897 245.699 550.805 245.699Z" fill="#F7CC7F"/>
<path d="M550.805 266.671H273.164C271.073 266.671 269.378 268.365 269.378 270.457V277.652C269.378 279.744 271.073 281.438 273.164 281.438H550.805C552.897 281.438 554.592 279.744 554.592 277.652V270.457C554.592 268.365 552.897 266.671 550.805 266.671Z" fill="#F7CC7F"/>
<path d="M550.805 287.643H273.164C271.073 287.643 269.378 289.337 269.378 291.429V298.624C269.378 300.716 271.073 302.41 273.164 302.41H550.805C552.897 302.41 554.592 300.716 554.592 298.624V291.429C554.592 289.337 552.897 287.643 550.805 287.643Z" fill="#F7CC7F"/>
<path d="M555.981 335.931H267.989V333.811C267.989 328.687 272.143 324.532 277.267 324.532H546.703C551.827 324.532 555.981 328.687 555.981 333.811V335.931H555.981Z" fill="#F7CC7F"/>
<path d="M556.401 334.441H266.985C265.822 334.441 264.88 335.383 264.88 336.546V337.506C264.88 338.669 265.822 339.611 266.985 339.611H556.401C557.563 339.611 558.505 338.669 558.505 337.506V336.546C558.505 335.383 557.563 334.441 556.401 334.441Z" fill="#31535B"/>
<path d="M282.264 339.611H276.708V404.486H282.264V339.611Z" fill="#31535B"/>
<path d="M549.633 339.611H544.076V404.486H549.633V339.611Z" fill="#31535B"/>
<path d="M354.939 389.279C354.939 389.279 354.433 397.659 354.43 397.676C354.244 398.74 353.511 401.368 353.511 402.335C353.511 405.968 370.764 399.251 366.897 397.641C366.547 397.494 364.714 396.392 364.599 395.156C364.421 393.25 363.972 389.396 363.972 389.396L354.939 389.279Z" fill="#F7A491"/>
<path d="M366.854 397.606C366.854 397.606 362.804 398.718 360.729 398.995C358.655 399.273 355.92 396.933 354.452 397.566C352.837 398.262 352.901 404.523 352.901 404.523C352.901 404.523 374.623 406.306 380.73 404.461C383.151 403.73 375.136 400.194 366.854 397.606Z" fill="#B75742"/>
<path d="M384.228 389.279C384.228 389.279 383.722 397.659 383.718 397.676C383.533 398.74 382.8 401.368 382.8 402.335C382.8 405.968 400.053 399.251 396.186 397.641C395.836 397.494 393.224 397.033 393.109 395.796C392.931 393.891 392.6 387.998 392.6 387.998L384.228 389.279Z" fill="#F7A491"/>
<path d="M396.144 397.606C396.144 397.606 392.093 398.718 390.018 398.995C387.944 399.273 385.208 396.933 383.741 397.566C382.126 398.262 382.189 404.523 382.189 404.523C382.189 404.523 403.911 406.306 410.02 404.461C412.439 403.73 404.424 400.194 396.144 397.606Z" fill="#B75742"/>
<path d="M328.65 299.388L369.891 299.566C369.891 299.566 388.52 299.077 391.465 305.52C394.41 311.962 393.71 393.779 393.71 393.779C393.71 393.779 383.766 395.258 383.257 394.713L372.06 345.728C370.863 341.576 370.456 337.236 370.859 332.935L371.929 321.542L354.912 322.411C354.912 322.411 335.62 322.104 329.259 315.706C322.898 309.306 328.65 299.388 328.65 299.388Z" fill="#13375B"/>
<path d="M300.693 294.84L345.037 297.56C345.037 297.56 364.122 299.111 367.066 305.553C370.011 311.996 365.187 394.515 365.187 394.515C365.187 394.515 354.117 395.197 354.139 394.712C354.166 394.133 349.596 356.913 347.061 345.126C346.256 341.385 345.975 337.551 346.224 333.733L347.825 324.478C347.825 324.478 307.823 326.589 305.778 324.532C299.418 318.134 300.693 294.84 300.693 294.84Z" fill="#355389"/>
<path d="M350.265 248.666L338.392 249.253V260.671L350.548 259.856L350.265 248.666Z" fill="#89A6E5"/>
<path d="M339.728 254.281C339.728 254.281 329.411 246.742 326.293 241.342C323.174 235.943 328.416 239.459 333.772 238.038C335.8 237.5 335.286 225.616 339.12 229.478C345.41 235.816 350.547 248.403 350.547 248.403L339.728 254.281Z" fill="#3C8F7C"/>
<path d="M324.45 224.022C324.45 224.022 312.993 221.211 307.379 227.26C302.979 232.001 299.775 304.053 299.775 304.053C299.775 304.053 338.022 302.437 343.296 293.283C343.296 293.283 345.817 258.255 345.613 253.858C345.408 249.461 340.592 231.464 339.249 229.532C337.905 227.603 324.45 224.022 324.45 224.022Z" fill="#96D9C9"/>
<path d="M324.231 208.345C324.231 208.345 324.174 208.67 324.072 209.223C323.578 211.878 321.678 220.686 320.395 223.107C318.844 226.032 325.705 235.365 332.309 234.226C334.274 233.886 330.646 225.651 330.821 224.779C331.155 223.109 331.607 220.831 332.07 218.496C332.332 217.177 332.596 215.841 332.845 214.586C333.551 211.018 334.127 208.099 334.127 208.099L324.231 208.345Z" fill="#F7A491"/>
<path d="M323.994 209.664C324.097 209.111 324.154 208.786 324.154 208.786L334.049 208.54C334.049 208.54 333.473 211.459 332.767 215.027C332.52 216.275 332.257 217.604 331.997 218.915C330.47 218.69 328.872 217.949 327.272 216.551C325.527 215.027 324.384 213.194 323.694 211.239C323.816 210.614 323.917 210.076 323.994 209.664Z" fill="#F47458"/>
<path d="M392.437 252.1C392.437 252.1 392.071 250.751 392.984 248.513C393.568 247.076 393.49 244.286 394.319 244.798C395.149 245.312 394.259 247.856 394.954 247.631C395.648 247.407 397.85 242.216 398.6 242.681C399.352 243.145 396.962 247.91 397.583 247.708C398.205 247.507 399.926 242.924 400.988 243.581C402.05 244.238 398.486 248.783 399.055 249.136C399.625 249.488 401.801 246.564 402.655 247.092C403.51 247.622 399.503 250.942 399.868 250.824C400.234 250.706 402.834 249.73 403.014 250.247C403.218 250.834 397.824 253.194 397.323 254.503C396.822 255.813 388.553 269.224 385.811 269.526C383.069 269.827 369.854 262.817 368.669 260.202C367.483 257.588 368.289 254.593 370.044 254.025C371.798 253.458 384.172 260.489 384.723 260.311C385.273 260.133 392.437 252.1 392.437 252.1Z" fill="#F7A491"/>
<path d="M394.837 247.248C395.148 247.59 395.353 247.997 395.501 248.424C395.505 248.499 396.084 249.849 395.181 251.246C395.407 250.25 395.655 249.143 394.837 247.248Z" fill="#F48C7F"/>
<path d="M352.352 316.984C353.483 317.974 357.011 318.922 357.011 318.922C356.426 323.045 352.898 332.911 352.898 332.911C352.898 332.911 351.503 332.236 351.394 331.045C351.286 329.853 350.757 324.388 348.901 322.762C348.418 322.339 343.051 317.57 338.721 313.098C340.233 311.385 344.996 311.021 346.262 309.144C348.763 311.422 351.978 316.655 352.352 316.984Z" fill="#F7A491"/>
<path d="M354.039 317.917C354.039 317.917 351.709 326.042 351.062 327.073C350.535 327.915 351.555 335.773 352.712 335.539C353.868 335.305 359.809 321.462 359.481 319.997C359.152 318.532 354.039 317.917 354.039 317.917Z" fill="#96D9C9"/>
<path d="M344.57 330.889C345.064 332.263 347.729 334.771 347.729 334.771C345.052 337.919 336.74 344.42 336.74 344.42C336.74 344.42 335.842 343.179 336.368 342.132C336.893 341.087 339.549 334.586 338.736 332.329C338.525 331.74 336.973 327.364 335.515 324.89C337.764 324.199 339.969 323.134 342.083 322.188C343.133 325.301 344.405 330.432 344.57 330.889Z" fill="#F7A491"/>
<path d="M345.498 284.05C345.498 284.05 330.114 299.238 328.547 302.168C327.376 304.357 334.475 326.87 334.475 326.87C334.475 326.87 341.15 326.362 343.942 323.669C343.942 323.669 340.41 307.964 341.144 307.256C341.877 306.548 359.454 296.351 359.454 296.351L357.271 287.044L345.498 284.05Z" fill="#B75742"/>
<path d="M362.163 274.216C362.163 274.216 356.046 282.316 352.884 284.115C350.464 285.493 330.461 295.456 331.499 301.629C332.087 305.133 341.422 317.899 341.422 317.899L349.499 311.668C349.499 311.668 344.834 305.714 345.06 304.831C345.286 303.947 363.198 301.406 367.529 297.347C371.861 293.288 369.219 281.522 369.219 281.522L362.163 274.216Z" fill="#F47458"/>
<path d="M357.416 249.906C357.416 249.906 352.3 249.329 350.456 248.659C348.613 247.991 336.522 287.896 340.751 288.805C349.585 290.701 369.468 294.921 369.468 294.921C369.468 294.921 372.77 287.185 370.944 279.054C369.311 271.785 368.859 267.42 368.859 264.775L376.708 268.346L380.216 255.67C380.216 255.67 369.528 251.376 365.783 250.605C364.739 250.39 357.416 249.906 357.416 249.906Z" fill="#9BC1F9"/>
<path d="M345.487 332.354C345.487 332.354 338.819 338.437 337.612 339.024C336.629 339.503 334.355 346.701 335.604 347.097C336.855 347.495 349.232 338.574 349.74 337.084C350.249 335.594 345.487 332.354 345.487 332.354Z" fill="#96D9C9"/>
<path d="M357.274 223.225C357.274 223.225 353.226 221.758 350.61 225.859C347.994 229.96 349.408 229.572 348.135 231.622C346.863 233.673 343.54 233.248 343.54 236.43C343.54 239.611 345.025 240.106 345.025 240.106C345.025 240.106 343.681 242.581 345.165 245.126C346.65 247.671 350.353 249.864 353.451 249.51C353.451 249.51 358.104 252.062 362.771 250.856C367.437 249.652 365.811 249.652 367.72 249.652C369.629 249.652 374.791 247.035 373.943 243.217C373.943 243.217 377.087 239.482 374.036 236.43C370.984 233.378 370.407 230.278 368.639 226.177C366.872 222.076 359.395 222.236 357.274 223.225Z" fill="#13375B"/>
<path d="M354.569 245.056C354.569 245.056 354.739 250.686 354.21 251.216C353.681 251.744 352.944 252.622 353.721 253.964C354.499 255.307 357.874 254.451 359.448 253.681C360.957 252.943 361.932 251.57 361.932 251.57L361.145 242.651L354.569 245.056Z" fill="#F7A491"/>
<path d="M356.814 247.388C357.898 247.01 359.793 246.276 361.255 243.9L361.145 242.651L354.569 245.056C354.569 245.056 354.61 246.429 354.589 247.883C355.51 247.845 356.297 247.57 356.814 247.388Z" fill="#F47458"/>
<path d="M362.303 236.283C362.303 236.283 362.463 232.974 364.496 233.617C366.53 234.26 364.98 239.256 363.294 239.091C361.609 238.927 362.303 236.283 362.303 236.283Z" fill="#F7A491"/>
<path d="M355.912 225.471C355.912 225.471 352.731 225.399 351.104 227.875C349.479 230.348 347.711 237.419 350.398 242.298C353.085 247.177 356.514 245.976 357.928 245.479C359.341 244.984 362.135 243.888 363.549 239.328C364.963 234.767 363.938 224.517 355.912 225.471Z" fill="#F7A491"/>
<path d="M356.699 263.293C356.947 262.857 356.956 261.801 358.795 258.346C359.326 257.348 360.7 256.519 360.7 256.519C360.7 256.519 362.397 255.511 362.749 255.848C363.1 256.185 363.054 256.799 362.819 257.105C362.584 257.41 361.861 257.727 361.626 258.032C361.392 258.338 361.518 259.564 361.72 259.964C361.922 260.363 366.824 257.224 366.824 257.224C366.824 257.224 368.186 256.256 368.614 255.898C368.978 255.592 369.999 254.59 369.999 254.59C369.999 254.59 371.528 253.246 371.918 253.755C372.149 254.056 371.124 255.634 369.891 256.984C368.562 258.438 367.012 259.666 367.117 259.836C367.364 260.239 370.094 258.581 370.094 258.581C370.094 258.581 371.199 257.498 371.816 257.199C372.385 256.416 373.657 255.446 374.09 256.098C374.17 256.219 372.822 258.048 372.822 258.048C372.822 258.048 371.742 259.046 371.256 259.555C370.4 260.45 368.806 261.327 368.18 261.885C367.659 262.35 367.97 262.375 367.975 262.455C367.979 262.517 368.758 262.011 369.837 261.336C370.381 260.998 371.067 260.737 371.637 260.241C372.165 259.782 372.982 259.259 373.481 258.957C374.895 258.101 375.184 259.162 373.997 260.179C373.545 260.567 373.05 260.983 372.546 261.405C370.588 263.043 368.466 264.097 368.561 264.359C368.685 264.698 372.439 262.536 372.439 262.536C372.439 262.536 374.796 261.963 373.041 263.462C371.005 265.202 369.106 266.088 369.021 266.121C368.436 266.352 366.626 267.797 364.469 268.271C362.88 268.62 360.584 269.058 359.486 269.265L356.699 263.293Z" fill="#F8A492"/>
<path d="M313.81 256.128L324.83 254.035C324.83 254.035 327.36 263.162 327.854 264.152C327.854 264.152 348.521 264.177 356.699 263.293L359.609 269.248C358.027 269.461 356.699 269.517 355.931 269.656C354.423 269.926 330.448 274.555 330.448 274.555C330.448 274.555 320.793 275.981 319.705 274.571C318.615 273.16 313.81 256.128 313.81 256.128Z" fill="#F7A491"/>
<path d="M314.4 266.15C314.4 266.15 304.131 242.599 303.941 235.972C303.752 229.347 310.428 222.185 316.108 223.668C321.787 225.152 328.568 260.183 328.568 260.183L314.4 266.15Z" fill="#3C8F7C"/>
<path d="M357.228 240.128L352.301 239.874C352.301 239.874 352.318 241.751 354.481 241.926C357.119 242.139 357.228 240.128 357.228 240.128Z" fill="white"/>
<path d="M327.612 189.328C327.342 189.143 321.263 204.12 324.131 209.408C327 214.697 334.37 218.082 338.006 215.434C342.029 212.503 346.163 195.79 341.124 189.813C336.086 183.835 327.612 189.328 327.612 189.328Z" fill="#F7A491"/>
<path d="M340.911 180.91C335.894 180.656 332.056 182.776 330.603 183.725C328.373 183.425 325.123 183.864 320.791 188.113C315.466 193.337 316.462 200.899 319.946 205.378C323.43 209.86 323.214 213.332 323.214 213.332C323.214 213.332 325.096 208.943 325.336 207.303C325.481 206.32 325.542 205.23 325.364 204.278C324.896 201.764 328.572 201.119 329.976 199.488C331.057 198.233 331.937 194.951 333.669 192.861L335.473 191.391C335.473 191.391 339.176 189.783 342.02 191.237C344.865 192.691 347.348 181.236 340.911 180.91Z" fill="#0E2E35"/>
<path d="M329.063 202.197C328.608 204.098 327.349 205.426 326.251 205.164C325.153 204.901 324.632 203.148 325.088 201.248C325.543 199.347 326.801 198.018 327.9 198.281C328.997 198.543 329.518 200.296 329.063 202.197Z" fill="#F7A491"/>
<path d="M334.379 208.228L340.439 209.456C340.439 209.456 339.833 211.727 337.152 211.266C333.885 210.7 334.379 208.228 334.379 208.228Z" fill="white"/>
<path d="M449.693 272.54C449.198 271.743 453.265 270.006 453.295 269.068C453.326 268.131 447.755 269.42 447.386 268.692C446.706 267.355 453.409 266.905 453.135 266.268C452.86 265.631 445.932 265.752 446.393 264.432C446.855 263.11 453.575 265.063 453.584 264.241C453.594 263.42 447.162 262.997 446.894 261.265C446.751 260.34 457.768 263.397 458.798 262.623C459.827 261.85 456.521 258.143 457.288 257.287C458.055 256.43 462.712 265.135 463.406 265.293C464.098 265.452 479.036 269.818 484.021 269.875C484.672 267.108 487.031 259.016 487.206 257.392C490.271 258.638 493.433 258.301 496.545 259.359C495.663 264.829 491.041 278.468 489.799 279.431C486.018 282.365 466.797 272.797 463.045 271.272C459.289 269.745 457.599 270.951 455.243 270.754C452.888 270.559 450.188 273.34 449.693 272.54Z" fill="#F48C7F"/>
<path d="M450.346 383.662C450.346 383.662 449.461 393.327 450.043 396.48C450.121 396.901 450.292 397.436 450.492 398.025C451.092 399.792 449.279 403.478 449.279 403.478L427.424 405.269C426.224 405.274 427.027 404.513 428.002 403.815C429.6 402.673 430.887 401.92 435.974 399.542C436.306 399.388 437.516 398.64 437.952 398.381C439.058 397.726 440.174 396.687 441.137 395.644C442.739 393.907 442.983 385.388 442.983 385.388L450.346 383.662Z" fill="#F7A491"/>
<path d="M425.416 367.635C425.416 367.635 420.599 376.061 419.82 379.169C419.716 379.586 419.651 380.144 419.588 380.762C419.399 382.62 415.666 386.846 415.666 386.846L395.594 377.778C394.5 377.284 395.546 376.925 396.723 376.696C398.651 376.319 400.134 376.169 405.749 376.117C406.116 376.114 407.527 375.936 408.031 375.881C409.31 375.745 410.756 375.263 412.065 374.712C414.245 373.798 418.002 366.149 418.002 366.149L425.416 367.635Z" fill="#F7A491"/>
<path d="M496.01 212.713C496.83 206.794 502.08 201.846 507.741 199.956C525.714 193.959 535.688 216.331 550.099 221.45C554.421 222.987 558.977 223.904 563.198 225.678C563.889 227.589 564.213 229.593 564.182 231.527C564.097 233.662 563.726 235.705 563.138 237.668L557.359 236.47L561.498 241.891C558.671 247.818 554.018 253.042 549.437 257.994C543.007 264.794 535.271 269.357 526.917 272.564C521.635 267.232 517.054 260.897 512.435 255.11C506.897 248.173 501.724 240.755 498.561 232.437C496.18 226.181 495.057 219.592 496.01 212.713Z" fill="#13375B"/>
<path d="M408.035 375.881C412.668 379.713 416.994 380.631 419.586 380.782C419.398 382.635 417.949 388.531 417.336 388.252C412.311 385.96 407.625 384.971 393.331 378.175C392.819 377.932 393.69 376.188 394.204 375.951C395.625 375.296 407.529 375.935 408.035 375.881Z" fill="#B75742"/>
<path d="M497.79 238.377C491.526 240.51 483.833 265.37 483.833 265.37C483.833 265.37 493.791 269.39 497.472 268.47C497.472 268.47 506.034 246.289 507.44 246.898L497.79 238.377Z" fill="#E25A44"/>
<path d="M506.805 235.522C506.583 235.523 499.906 237.473 497.186 238.62C493.88 240.015 492.118 250.886 492.424 264.266C492.546 266.312 494.088 297.819 494.244 297.92C498.188 300.458 521.69 301.697 523.326 299.536C524.962 297.374 526.222 260.022 527.018 258.713L528.098 242.925C528.098 242.925 527.253 238.569 526.356 238.377C521.394 237.319 510.389 235.496 506.805 235.522Z" fill="#F47458"/>
<path d="M516.45 227.108C516.45 227.108 514.918 235.034 515.225 238.161C515.532 241.286 514.057 251.362 507.439 251.395C500.822 251.429 506.182 238.585 506.806 235.521C507.429 232.458 507.577 222.975 507.577 222.975L516.45 227.108Z" fill="#F7A491"/>
<path d="M507.44 227.733C507.544 225.138 507.577 222.975 507.577 222.975L516.45 227.108C516.45 227.108 516.138 228.729 515.823 230.793C511.938 231.575 509.123 230.137 507.44 227.733Z" fill="#F47458"/>
<path d="M513.07 204.006C513.07 204.006 516.913 204.728 519.396 208.235C521.879 211.743 523.874 222.259 516.3 227.475C508.725 232.69 502.445 225.925 502.099 219.118C501.754 212.311 502.887 203.169 513.07 204.006Z" fill="#F7A491"/>
<path d="M503.241 219.22C504.184 218.8 504.365 217.147 503.645 215.527C502.924 213.908 501.576 212.935 500.632 213.354C499.689 213.774 499.508 215.427 500.229 217.046C500.949 218.666 502.297 219.639 503.241 219.22Z" fill="#F7A491"/>
<path d="M511.918 203.825C511.918 203.825 517.171 214.551 521.475 215.37C525.78 216.191 525.915 221.677 525.915 221.677C525.915 221.677 525.365 209.015 521.259 206.254C517.152 203.492 511.918 203.825 511.918 203.825Z" fill="#13375B"/>
<path d="M524.259 218.904C524.757 217.113 524.18 215.389 522.97 215.052C521.76 214.715 520.375 215.893 519.876 217.684C519.378 219.474 519.955 221.199 521.165 221.536C522.375 221.873 523.76 220.694 524.259 218.904Z" fill="#F7A491"/>
<path d="M493.924 295.68V300.646L447.229 310.467L435.64 345.282L442.098 340.873L440.607 394.482L450.428 394.55C450.428 394.55 467.446 349.571 461.864 326.951L513.544 327.741C513.544 327.741 536.965 318.696 524.88 291.425L493.924 295.68Z" fill="#13375B"/>
<path d="M493.924 300.646C493.924 300.646 449.651 299.847 442.045 303.621C438.605 306.269 412.791 372.103 412.791 372.103L424.05 376.308C424.05 376.308 446.448 338.959 447.634 336.294C448.819 333.631 457.495 314.155 460.806 312.168C464.118 310.181 493.924 300.646 493.924 300.646Z" fill="#184655"/>
<path d="M437.965 397.649C443.77 399.213 448.087 398.253 450.508 397.313C451.107 399.077 452.235 405.043 451.562 405.043C446.039 405.043 441.364 406.089 425.539 405.84C424.972 405.83 425.041 403.885 425.41 403.455C426.432 402.268 437.528 397.91 437.965 397.649Z" fill="#B75742"/>
<path d="M506.483 222.975L512.48 223.637C512.48 223.637 512.085 225.94 509.439 225.727C506.213 225.466 506.483 222.975 506.483 222.975Z" fill="white"/>
<path d="M574.215 257.548C573.823 256.699 573.274 255.605 573.283 254.906C573.29 254.208 572.409 253.977 572.083 253.226C571.757 252.472 567.879 254.161 566.626 253.87C565.373 253.578 563.969 257.781 563.386 258.211C562.807 258.64 550.648 268.766 546.049 270.857C545.174 269.358 539.435 261.611 538.646 260.186C536.287 262.587 533.227 263.57 530.75 265.817C533.68 270.489 542.863 281.635 544.385 282.014C549.021 283.166 563.141 266.501 566.03 263.563C568.921 260.624 570.954 261.04 573.062 259.896C575.169 258.752 574.605 258.398 574.215 257.548Z" fill="#F7A491"/>
<path d="M567.408 253.937C568.48 253.675 571.018 254.79 571.461 255.074C571.903 255.357 572.098 255.693 571.611 256.295C571.125 256.897 573.425 259.197 573.425 259.197C567.586 257.905 567.408 253.937 567.408 253.937Z" fill="#E68B78"/>
<path d="M529.695 267.397C529.695 267.397 521.559 255.529 519.785 250.678C518.01 245.827 521.22 238.777 525.819 238.382C530.418 237.988 541.143 259.068 541.143 259.068L529.695 267.397Z" fill="#B75742"/>
<path d="M543.054 327.242L543.061 327.241L543.054 327.242Z" fill="#F47458"/>
<path d="M676.571 292.907C671.452 295.664 671.417 292.039 666.237 290.124C660.616 288.046 660.983 280.417 664.572 278.399C665.487 277.885 667.818 277.856 668.856 277.536C673.569 276.085 676.727 272.397 678.872 276.382C681.49 281.245 681.691 290.151 676.571 292.907Z" fill="#F8A492"/>
<path d="M671.127 291.755C668.195 302.25 656.245 306.796 651.187 307.487C643.483 308.54 635.724 307.143 636.049 299.96C636.374 292.777 634.282 291.799 641.841 288.231C647.807 285.415 651.729 287.325 657.785 287.625C663.712 287.918 669.204 290.689 671.127 291.755Z" fill="white"/>
<path d="M651.625 288.549C649.448 285.514 647.66 282.1 647.816 280.592C648.075 278.087 648.833 273.531 651.643 269.17C651.72 269.052 652.418 267.94 652.499 267.381C652.637 266.427 653.093 264.944 653.558 264.93C653.874 264.921 653.276 266.245 653.374 267.141C653.915 265.595 654.312 264.687 654.536 264.751C654.866 264.845 654.464 266.085 654.232 267.249C654.493 266.763 655.654 264.366 656.058 264.735C656.405 265.053 655.71 266.619 655.18 267.675C655.64 267.184 657.01 264.916 657.344 265.499C657.487 265.749 657.039 266.815 656.797 267.199C656.218 268.121 655.755 269.27 655.902 269.528C655.988 269.678 656.64 269.305 657.272 269.286C657.751 269.272 657.963 269.565 657.605 270.071C657.442 270.303 656.524 270.457 655.508 270.851C654.764 271.139 654.167 271.234 654.22 271.778C654.413 273.766 653.497 279.28 653.443 280.191C653.879 280.435 655.645 281.314 657.66 282.486C655.947 284.827 653.914 286.88 651.625 288.549Z" fill="#F8A492"/>
<path d="M657.962 282.05C660.863 283.737 663.977 286.467 664.674 288.346C666.733 293.896 660.191 295.839 656.737 293.904C655.299 293.099 653.341 290.941 651.625 288.549C653.216 285.657 655.413 283.772 657.962 282.05Z" fill="white"/>
<path d="M630.589 288.417C630.373 286.939 629.941 286.146 629.941 286.146C628.805 285.113 627.744 281.367 625.412 282.31C623.231 283.192 624.291 289.929 626.523 291.055C628.373 291.988 630.429 290.305 630.429 290.305C630.721 289.04 630.589 288.417 630.589 288.417Z" fill="white"/>
<path d="M638 304.459C625.962 300.085 636.084 287.93 636.084 287.93C636.084 287.93 634.791 289.337 630.346 290.202C629.262 290.58 628.834 286.517 629.602 286.172C630.779 286.299 631.995 284.061 634.536 281.721C635.977 280.396 639.553 278.733 641.93 279.576C643.747 280.222 645.237 282.43 645.821 284.697C647.167 289.929 646.584 297.874 644.483 301.538C643.598 303.079 640.331 305.306 638 304.459Z" fill="#F8A492"/>
<path d="M662.744 337.628H655.598C629.808 337.628 608.9 316.72 608.9 290.93H709.442C709.442 316.72 688.534 337.628 662.744 337.628Z" fill="#F7CC7F"/>
<path d="M668.659 290.41L657.544 251.138C656.568 247.689 659.159 244.263 662.744 244.263H662.744C688.535 244.263 709.442 265.17 709.442 290.961H608.9C608.9 290.777 608.902 290.593 608.904 290.41H668.659Z" fill="#F7CC7F"/>
<path d="M709.789 293.691H608.315C606.808 293.691 605.586 292.469 605.586 290.961C605.586 289.453 606.808 288.231 608.315 288.231H709.789C711.296 288.231 712.518 289.454 712.518 290.961C712.518 292.469 711.296 293.691 709.789 293.691Z" fill="#F47458"/>
<path d="M673.969 289.713C674.411 293.216 671.465 296.162 667.962 295.72C665.576 295.419 663.649 293.492 663.348 291.106C662.907 287.603 665.853 284.658 669.355 285.099C671.741 285.4 673.669 287.327 673.969 289.713Z" fill="#100062"/>
<path d="M672.392 289.768C672.818 292.359 670.609 294.568 668.017 294.143C666.448 293.886 665.183 292.62 664.925 291.051C664.5 288.46 666.709 286.251 669.3 286.676C670.869 286.933 672.135 288.199 672.392 289.768Z" fill="#DBE0F0"/>
<path d="M655.503 336.191L619.959 376.067C618.957 377.199 619.064 378.929 620.197 379.93C621.329 380.931 623.058 380.824 624.059 379.692L662.086 337.348C660.08 336.536 655.625 337.573 655.503 336.191Z" fill="white"/>
<path d="M703.607 380.649L567.403 261.58C566.271 260.579 566.164 258.849 567.165 257.717H567.165C568.166 256.585 569.896 256.478 571.028 257.479L707.232 376.548C708.365 377.549 707.632 378.625 706.63 379.758C705.629 380.89 704.74 381.65 703.607 380.649Z" fill="white"/>
<path d="M673.828 345.447L647.224 322.012C646.367 321.258 645.065 321.324 644.289 322.161L642.027 324.6C641.222 325.468 641.291 326.829 642.179 327.611L653.122 337.25L643.658 347.881C642.89 348.744 642.961 350.064 643.816 350.84L646.441 353.222C647.305 354.006 648.643 353.937 649.423 353.068L658.978 342.409L668.728 350.997C669.571 351.74 670.849 351.689 671.631 350.882L673.948 348.492C674.784 347.628 674.73 346.241 673.828 345.447Z" fill="#184655"/>
<path d="M566.464 261.564L593.844 285.681C594.783 286.508 596.215 286.419 597.044 285.481L598.567 283.757C599.397 282.817 599.308 281.381 598.366 280.552L570.993 256.441C569.579 255.19 567.418 255.323 566.167 256.738C564.916 258.153 565.049 260.313 566.464 261.564Z" fill="#184655"/>
<path d="M705.046 404.819C690.446 404.819 678.568 392.941 678.568 378.341C678.568 363.741 690.446 351.863 705.046 351.863C719.646 351.863 731.524 363.741 731.524 378.341C731.524 392.941 719.646 404.819 705.046 404.819ZM705.046 355.172C692.271 355.172 681.877 365.566 681.877 378.341C681.877 391.116 692.271 401.51 705.046 401.51C717.821 401.51 728.215 391.117 728.215 378.341C728.215 365.566 717.821 355.172 705.046 355.172Z" fill="#333333"/>
<path d="M705.046 398.889C693.716 398.889 684.498 389.671 684.498 378.342C684.498 367.011 693.716 357.793 705.046 357.793C716.376 357.793 725.594 367.011 725.594 378.342C725.594 389.671 716.376 398.889 705.046 398.889ZM705.046 358.62C694.172 358.62 685.325 367.467 685.325 378.341C685.325 389.215 694.172 398.062 705.046 398.062C715.92 398.062 724.767 389.215 724.767 378.341C724.767 367.467 715.92 358.62 705.046 358.62Z" fill="#D0F0FD"/>
<path d="M705.046 396.308C695.139 396.308 687.08 388.248 687.08 378.341C687.08 375.448 687.746 372.686 689.061 370.132C689.165 369.928 689.415 369.848 689.618 369.953C689.821 370.058 689.901 370.307 689.797 370.51C688.543 372.946 687.907 375.581 687.907 378.341C687.907 387.792 695.596 395.48 705.046 395.48C707.532 395.48 709.929 394.96 712.17 393.934C712.378 393.84 712.623 393.93 712.719 394.138C712.814 394.346 712.723 394.592 712.515 394.687C710.164 395.762 707.651 396.308 705.046 396.308Z" fill="#D0F0FD"/>
<path d="M717.858 366.756C717.748 366.756 717.637 366.713 717.556 366.625C714.327 363.179 709.767 361.202 705.046 361.202C704.818 361.202 704.633 361.017 704.633 360.788C704.633 360.56 704.818 360.375 705.046 360.375C709.995 360.375 714.775 362.447 718.16 366.06C718.316 366.226 718.308 366.488 718.141 366.644C718.061 366.719 717.959 366.756 717.858 366.756Z" fill="#D0F0FD"/>
<path d="M702.012 377.82C701.666 379.926 703.462 381.721 705.567 381.375C706.725 381.185 707.89 380.02 708.08 378.863C708.426 376.756 706.631 374.961 704.524 375.307C703.367 375.497 702.201 376.663 702.012 377.82Z" fill="#184655"/>
<path d="M621.399 404.819C606.799 404.819 594.92 392.941 594.92 378.341C594.92 363.741 606.799 351.863 621.399 351.863C635.999 351.863 647.877 363.741 647.877 378.341C647.877 392.941 635.999 404.819 621.399 404.819ZM621.399 355.172C608.623 355.172 598.23 365.566 598.23 378.341C598.23 391.116 608.623 401.51 621.399 401.51C634.174 401.51 644.567 391.117 644.567 378.341C644.567 365.566 634.174 355.172 621.399 355.172Z" fill="#333333"/>
<path d="M621.399 398.889C610.068 398.889 600.85 389.671 600.85 378.342C600.85 367.011 610.068 357.793 621.399 357.793C632.729 357.793 641.946 367.011 641.946 378.342C641.946 389.671 632.729 398.889 621.399 398.889ZM621.399 358.62C610.525 358.62 601.678 367.467 601.678 378.341C601.678 389.215 610.525 398.062 621.399 398.062C632.273 398.062 641.119 389.215 641.119 378.341C641.119 367.467 632.273 358.62 621.399 358.62Z" fill="#D0F0FD"/>
<path d="M621.399 396.308C611.492 396.308 603.432 388.248 603.432 378.341C603.432 375.448 604.099 372.686 605.413 370.132C605.518 369.928 605.767 369.848 605.971 369.953C606.174 370.058 606.254 370.307 606.149 370.51C604.895 372.946 604.26 375.581 604.26 378.341C604.26 387.792 611.948 395.48 621.399 395.48C623.885 395.48 626.281 394.96 628.523 393.934C628.731 393.84 628.976 393.93 629.071 394.138C629.166 394.346 629.075 394.592 628.867 394.687C626.517 395.762 624.004 396.308 621.399 396.308Z" fill="#D0F0FD"/>
<path d="M634.21 366.756C634.1 366.756 633.99 366.713 633.908 366.625C630.679 363.179 626.12 361.202 621.399 361.202C621.17 361.202 620.985 361.017 620.985 360.788C620.985 360.56 621.17 360.375 621.399 360.375C626.347 360.375 631.127 362.447 634.512 366.06C634.668 366.226 634.66 366.488 634.493 366.644C634.413 366.719 634.312 366.756 634.21 366.756Z" fill="#D0F0FD"/>
<path d="M618.364 377.82C618.019 379.926 619.814 381.721 621.92 381.375C623.077 381.185 624.243 380.02 624.433 378.863C624.779 376.756 622.983 374.961 620.877 375.307C619.72 375.497 618.554 376.663 618.364 377.82Z" fill="#184655"/>
<path d="M565.997 254.057C566.594 253.649 567.125 253.537 568.691 254.11C570.257 254.684 571.523 255.369 571.461 255.516C571.098 256.02 570.55 256.224 569.09 256.038C567.629 255.852 565.984 256.649 565.665 256.596C565.692 255.242 565.997 254.057 565.997 254.057Z" fill="#F7A491"/>
</svg>
