<svg width="18" height="19" viewBox="0 0 18 19" fill="none" xmlns="http://www.w3.org/2000/svg">
<path fill-rule="evenodd" clip-rule="evenodd" d="M17.1935 4.61422C17.1314 4.61422 17.0674 4.62393 17.0519 4.63557C16.9373 4.71515 15.2973 4.45895 13.8105 4.12705C12.5916 3.85338 11.8307 3.6554 10.3847 3.23616C9.01249 2.83826 8.27494 2.64611 7.13366 2.39185C6.1399 2.16864 5.79248 2.05024 4.89576 1.61741L4.59103 1.4699L4.59103 1.38838C4.59103 1.3418 4.60268 1.28357 4.61627 1.2564C4.62985 1.22923 4.65314 1.171 4.66867 1.12442C4.73466 0.920617 4.82395 0.918676 5.73813 1.10112C6.0448 1.16129 6.46598 1.2137 7.14337 1.27581C8.57384 1.40585 9.33081 1.53201 11.2485 1.95514C13.1758 2.38214 15.3302 2.72957 16.5375 2.80915C17.0849 2.84603 17.1431 2.85573 17.2246 2.92561C17.2634 2.9586 17.3333 3.01295 17.3818 3.04789C17.5177 3.14493 17.6031 3.24004 17.6574 3.3565C17.6846 3.41472 17.7428 3.51759 17.7836 3.58747C17.9466 3.85143 18.0204 4.07658 17.9952 4.21633C17.9874 4.24933 17.9583 4.31726 17.9272 4.36578L17.8709 4.45507L17.64 4.50747C17.5138 4.53659 17.3876 4.57346 17.3585 4.58705C17.3294 4.60258 17.2557 4.61422 17.1935 4.61422ZM15.3419 14.9303C15.3768 14.9148 15.4622 14.9012 15.5301 14.9012C15.6039 14.9012 15.6738 14.8896 15.699 14.874C15.7223 14.8585 15.8329 14.8275 15.9455 14.8042C16.2308 14.744 16.2599 14.7285 16.324 14.5868C16.3706 14.4839 16.3745 14.4567 16.3628 14.3442C16.3434 14.1637 16.2929 14.0297 16.1454 13.7755C16.0736 13.6532 15.9882 13.494 15.9533 13.4242C15.897 13.3097 15.7398 13.135 15.6912 13.135C15.6815 13.135 15.6214 13.0884 15.5573 13.0302C15.4933 12.9719 15.3962 12.9021 15.3419 12.8729C15.2875 12.8458 15.1187 12.7429 14.9673 12.6458C14.8178 12.5488 14.4393 12.3101 14.1307 12.116C13.5526 11.7544 13.4822 11.709 13.0552 11.4333L13.0552 11.4332L12.8109 11.2755C11.2581 10.2701 10.6778 9.90524 9.80244 9.38895C7.98184 8.31561 7.26369 7.91772 5.83322 7.18599C5.34798 6.93755 4.69583 6.594 4.38722 6.42126C4.07667 6.24851 3.63219 6.00978 3.39928 5.89332C2.90434 5.64488 2.87911 5.63906 2.81118 5.77881C2.74907 5.90497 2.75295 6.0059 2.8267 6.11071C2.89076 6.20387 3.66519 6.97443 4.09026 7.37038C4.74435 7.97983 4.85887 8.05941 8.47289 10.4526L8.56692 10.515C10.1984 11.5971 10.2642 11.6407 11.8986 12.7856C12.4111 13.1447 13.17 13.6687 13.5873 13.9502C14.2452 14.3946 14.4665 14.5499 14.6781 14.7149C14.7052 14.7343 14.7654 14.7595 14.8139 14.7673C14.8644 14.777 14.9343 14.8081 14.9712 14.8372C15.1342 14.9692 15.2079 14.9866 15.3419 14.9303ZM6.17289 18.5443C6.20395 18.5307 6.29129 18.5171 6.3631 18.5152C6.4388 18.5132 6.51838 18.4997 6.54749 18.4841C6.57661 18.4667 6.69112 18.4356 6.8037 18.4123C7.09678 18.3541 7.11813 18.3405 7.18412 18.2085C7.28505 18.0008 7.24235 17.7466 7.04437 17.3953C6.9842 17.2885 6.88328 17.1061 6.82117 16.9896C6.73382 16.8246 6.66977 16.7392 6.54555 16.6111C6.3534 16.4093 6.06032 16.0909 5.74394 15.7358C5.05491 14.9613 4.76377 14.6178 3.60115 13.2125C2.95482 12.4303 2.28713 11.6481 1.80384 11.1066C1.22738 10.4583 0.647041 9.88577 0.551934 9.87412C0.46071 9.86054 0.433538 9.88965 0.371427 10.0702C0.311258 10.2429 0.322904 10.2914 0.536407 10.7145C0.858604 11.357 1.12645 11.8112 1.92806 13.0708C3.17996 15.039 3.59727 15.6581 4.61238 17.0575C4.92487 17.4884 5.25289 17.9523 5.34217 18.0901C5.43339 18.2279 5.52268 18.3463 5.54791 18.356C5.5712 18.3657 5.63331 18.3793 5.68378 18.3851C5.75365 18.3948 5.79053 18.4123 5.82935 18.457C5.92833 18.5656 6.04673 18.5967 6.17289 18.5443Z" fill="#53A0FF"/>
</svg>
