<svg width="37" height="36" viewBox="0 0 37 36" fill="none" xmlns="http://www.w3.org/2000/svg">
<path fill-rule="evenodd" clip-rule="evenodd" d="M1.64437 28.4544C1.77102 28.4544 1.90162 28.4347 1.93328 28.4109C2.16678 28.2487 5.51097 28.7711 8.54251 29.4478C11.0279 30.0058 12.5793 30.4095 15.5277 31.2644C18.3257 32.0757 19.8296 32.4675 22.1567 32.9859C24.183 33.4411 24.8914 33.6825 26.7199 34.565L27.3412 34.8658V35.032C27.3412 35.127 27.3175 35.2457 27.2898 35.3011C27.262 35.3565 27.2146 35.4753 27.1829 35.5703C27.0483 35.9858 26.8663 35.9898 25.0022 35.6177C24.3769 35.4951 23.5181 35.3882 22.1369 35.2616C19.2202 34.9964 17.6767 34.7391 13.7666 33.8764C9.83665 33.0057 5.44369 32.2973 2.98205 32.135C1.866 32.0598 1.74727 32.0401 1.58105 31.8976C1.5019 31.8303 1.35943 31.7195 1.26049 31.6482C0.983452 31.4504 0.809316 31.2564 0.698503 31.019C0.643096 30.9003 0.524368 30.6905 0.441258 30.548C0.108818 30.0098 -0.0415719 29.5507 0.0098772 29.2658C0.0257077 29.1985 0.085072 29.06 0.148394 28.961L0.263165 28.779L0.734122 28.6721C0.991367 28.6128 1.24861 28.5376 1.30798 28.5099C1.36734 28.4782 1.51773 28.4544 1.64437 28.4544ZM5.41994 7.41967C5.3487 7.45133 5.17457 7.47904 5.03605 7.47904C4.88566 7.47904 4.74319 7.50278 4.69174 7.53444C4.64424 7.5661 4.41866 7.62943 4.18912 7.67692C3.60735 7.7996 3.54798 7.83126 3.41738 8.12017C3.3224 8.32993 3.31448 8.38533 3.33823 8.61487C3.37781 8.98293 3.4807 9.25601 3.78148 9.77446C3.92792 10.0238 4.10205 10.3483 4.17329 10.4908C4.28806 10.7243 4.60863 11.0805 4.70757 11.0805C4.72735 11.0805 4.85004 11.1755 4.98064 11.2942C5.11124 11.4129 5.30912 11.5554 5.41994 11.6147C5.53075 11.6702 5.87506 11.8799 6.18376 12.0778C6.4885 12.2757 7.26023 12.7625 7.88949 13.1582C9.06827 13.8954 9.21191 13.9881 10.0824 14.5502L10.5807 14.8719C13.7468 16.9219 14.9301 17.6659 16.715 18.7187C20.4272 20.9072 21.8916 21.7186 24.8083 23.2106C25.7977 23.7171 27.1275 24.4176 27.7567 24.7699C28.39 25.1221 29.2963 25.6089 29.7712 25.8463C30.7804 26.3529 30.8318 26.3648 30.9703 26.0798C31.097 25.8226 31.0891 25.6168 30.9387 25.4031C30.8081 25.2131 29.229 23.642 28.3623 22.8346C27.0285 21.5919 26.795 21.4296 19.426 16.5499L19.2342 16.4227C15.9077 14.2163 15.7735 14.1273 12.4408 11.7928C11.3959 11.0607 9.84851 9.99212 8.99763 9.41827C7.65599 8.51198 7.20482 8.19537 6.77344 7.85897C6.71804 7.81939 6.59535 7.76794 6.49641 7.75211C6.39351 7.73232 6.25104 7.669 6.17584 7.60964C5.8434 7.34052 5.69301 7.3049 5.41994 7.41967ZM24.1158 0.0505753C24.0524 0.0782814 23.8743 0.105984 23.7279 0.10994C23.5736 0.113899 23.4113 0.141602 23.3519 0.173264C23.2926 0.208881 23.0591 0.272202 22.8295 0.319695C22.2319 0.438423 22.1884 0.466125 22.0538 0.735245C21.848 1.15871 21.9351 1.67716 22.3388 2.39349C22.4615 2.61116 22.6673 2.98317 22.7939 3.22063C22.972 3.55703 23.1026 3.73117 23.3559 3.99237C23.7477 4.40396 24.3453 5.05301 24.9904 5.77726C26.3953 7.35635 26.989 8.05684 29.3596 10.9222C30.6775 12.5171 32.0389 14.112 33.0244 15.2162C34.1998 16.538 35.3831 17.7055 35.577 17.7293C35.763 17.757 35.8184 17.6976 35.9451 17.3295C36.0678 16.9773 36.044 16.8784 35.6087 16.0156C34.9517 14.7056 34.4056 13.7796 32.7711 11.2111C30.2184 7.19804 29.3675 5.93556 27.2977 3.08212C26.6605 2.20352 25.9917 1.25765 25.8096 0.976658C25.6236 0.695667 25.4416 0.454254 25.3901 0.434467C25.3426 0.414677 25.216 0.386974 25.1131 0.375103C24.9706 0.355312 24.8954 0.319695 24.8163 0.228668C24.6144 0.00704193 24.373 -0.0562782 24.1158 0.0505753Z" fill="#0E0E0F"/>
</svg>
