<svg width="350" height="78" viewBox="0 0 350 78" fill="none" xmlns="http://www.w3.org/2000/svg">
<path d="M93.56 39.258C92.516 39.258 91.67 38.952 91.022 38.34C90.41 37.692 90.104 36.828 90.104 35.748V4.158C90.104 3.114 90.392 2.304 90.968 1.728C91.58 1.152 92.408 0.863999 93.452 0.863999H106.736C110.804 0.863999 113.972 1.89 116.24 3.942C118.508 5.958 119.642 8.802 119.642 12.474C119.642 16.146 118.508 19.008 116.24 21.06C113.972 23.112 110.804 24.138 106.736 24.138H97.07V35.748C97.07 36.828 96.746 37.692 96.098 38.34C95.486 38.952 94.64 39.258 93.56 39.258ZM105.872 18.792C110.66 18.792 113.054 16.704 113.054 12.528C113.054 8.352 110.66 6.264 105.872 6.264H97.07V18.792H105.872Z" fill="#53A0FF"/>
<path d="M135.921 11.88C139.593 11.88 142.311 12.798 144.075 14.634C145.875 16.434 146.775 19.188 146.775 22.896V36.072C146.775 37.044 146.487 37.818 145.911 38.394C145.335 38.934 144.543 39.204 143.535 39.204C142.599 39.204 141.825 38.916 141.213 38.34C140.637 37.764 140.349 37.008 140.349 36.072V34.884C139.737 36.288 138.765 37.386 137.433 38.178C136.137 38.97 134.625 39.366 132.897 39.366C131.133 39.366 129.531 39.006 128.091 38.286C126.651 37.566 125.517 36.576 124.689 35.316C123.861 34.056 123.447 32.652 123.447 31.104C123.447 29.16 123.933 27.63 124.905 26.514C125.913 25.398 127.533 24.588 129.765 24.084C131.997 23.58 135.075 23.328 138.999 23.328H140.349V22.086C140.349 20.322 139.971 19.044 139.215 18.252C138.459 17.424 137.235 17.01 135.543 17.01C134.499 17.01 133.437 17.172 132.357 17.496C131.277 17.784 129.999 18.216 128.523 18.792C127.587 19.26 126.903 19.494 126.471 19.494C125.823 19.494 125.283 19.26 124.851 18.792C124.455 18.324 124.257 17.712 124.257 16.956C124.257 16.344 124.401 15.822 124.689 15.39C125.013 14.922 125.535 14.49 126.255 14.094C127.515 13.41 129.009 12.87 130.737 12.474C132.501 12.078 134.229 11.88 135.921 11.88ZM134.247 34.506C136.047 34.506 137.505 33.912 138.621 32.724C139.773 31.5 140.349 29.934 140.349 28.026V26.892H139.377C136.965 26.892 135.093 27 133.761 27.216C132.429 27.432 131.475 27.81 130.899 28.35C130.323 28.89 130.035 29.628 130.035 30.564C130.035 31.716 130.431 32.67 131.223 33.426C132.051 34.146 133.059 34.506 134.247 34.506Z" fill="#53A0FF"/>
<path d="M156.983 39.258C156.011 39.258 155.201 38.988 154.553 38.448C153.941 37.872 153.635 37.062 153.635 36.018V15.174C153.635 14.13 153.941 13.338 154.553 12.798C155.201 12.258 156.011 11.988 156.983 11.988C157.955 11.988 158.765 12.258 159.413 12.798C160.061 13.338 160.385 14.13 160.385 15.174V36.018C160.385 37.062 160.061 37.872 159.413 38.448C158.765 38.988 157.955 39.258 156.983 39.258ZM156.983 7.182C155.759 7.182 154.787 6.858 154.067 6.21C153.347 5.526 152.987 4.644 152.987 3.564C152.987 2.484 153.347 1.62 154.067 0.972C154.787 0.323999 155.759 0 156.983 0C158.171 0 159.125 0.323999 159.845 0.972C160.601 1.62 160.979 2.484 160.979 3.564C160.979 4.644 160.619 5.526 159.899 6.21C159.179 6.858 158.207 7.182 156.983 7.182Z" fill="#53A0FF"/>
<path d="M182.682 11.88C185.85 11.88 188.208 12.78 189.756 14.58C191.304 16.38 192.078 19.098 192.078 22.734V36.018C192.078 37.026 191.772 37.818 191.16 38.394C190.584 38.97 189.774 39.258 188.73 39.258C187.686 39.258 186.858 38.97 186.246 38.394C185.634 37.818 185.328 37.026 185.328 36.018V23.112C185.328 21.06 184.932 19.566 184.14 18.63C183.384 17.694 182.178 17.226 180.522 17.226C178.578 17.226 177.012 17.838 175.824 19.062C174.672 20.286 174.096 21.924 174.096 23.976V36.018C174.096 37.026 173.79 37.818 173.178 38.394C172.566 38.97 171.738 39.258 170.694 39.258C169.65 39.258 168.822 38.97 168.21 38.394C167.634 37.818 167.346 37.026 167.346 36.018V15.12C167.346 14.184 167.652 13.428 168.264 12.852C168.876 12.276 169.704 11.988 170.748 11.988C171.684 11.988 172.44 12.276 173.016 12.852C173.628 13.392 173.934 14.112 173.934 15.012V16.47C174.834 14.994 176.04 13.86 177.552 13.068C179.064 12.276 180.774 11.88 182.682 11.88Z" fill="#53A0FF"/>
<path d="M222.424 33.696C223.144 34.38 223.504 35.154 223.504 36.018C223.504 36.846 223.198 37.584 222.586 38.232C222.01 38.88 221.326 39.204 220.534 39.204C219.742 39.204 219.004 38.88 218.32 38.232L205.684 26.784V36.018C205.684 37.062 205.36 37.854 204.712 38.394C204.064 38.934 203.254 39.204 202.282 39.204C201.31 39.204 200.5 38.934 199.852 38.394C199.24 37.854 198.934 37.062 198.934 36.018V3.78C198.934 2.736 199.24 1.944 199.852 1.404C200.5 0.863997 201.31 0.593998 202.282 0.593998C203.254 0.593998 204.064 0.863997 204.712 1.404C205.36 1.944 205.684 2.736 205.684 3.78V24.084L217.24 13.014C217.888 12.366 218.626 12.042 219.454 12.042C220.282 12.042 221.002 12.348 221.614 12.96C222.226 13.572 222.532 14.292 222.532 15.12C222.532 15.948 222.19 16.704 221.506 17.388L213.028 25.272L222.424 33.696Z" fill="#53A0FF"/>
<path d="M231.233 39.258C230.261 39.258 229.451 38.988 228.803 38.448C228.191 37.872 227.885 37.062 227.885 36.018V15.174C227.885 14.13 228.191 13.338 228.803 12.798C229.451 12.258 230.261 11.988 231.233 11.988C232.205 11.988 233.015 12.258 233.663 12.798C234.311 13.338 234.635 14.13 234.635 15.174V36.018C234.635 37.062 234.311 37.872 233.663 38.448C233.015 38.988 232.205 39.258 231.233 39.258ZM231.233 7.182C230.009 7.182 229.037 6.858 228.317 6.21C227.597 5.526 227.237 4.644 227.237 3.564C227.237 2.484 227.597 1.62 228.317 0.972C229.037 0.323999 230.009 0 231.233 0C232.421 0 233.375 0.323999 234.095 0.972C234.851 1.62 235.229 2.484 235.229 3.564C235.229 4.644 234.869 5.526 234.149 6.21C233.429 6.858 232.457 7.182 231.233 7.182Z" fill="#53A0FF"/>
<path d="M244.944 39.258C243.972 39.258 243.162 38.988 242.514 38.448C241.902 37.872 241.596 37.062 241.596 36.018V3.78C241.596 2.736 241.902 1.944 242.514 1.404C243.162 0.863997 243.972 0.593998 244.944 0.593998C245.916 0.593998 246.726 0.863997 247.374 1.404C248.022 1.944 248.346 2.736 248.346 3.78V36.018C248.346 37.062 248.022 37.872 247.374 38.448C246.726 38.988 245.916 39.258 244.944 39.258Z" fill="#53A0FF"/>
<path d="M266.755 11.88C270.427 11.88 273.145 12.798 274.909 14.634C276.709 16.434 277.609 19.188 277.609 22.896V36.072C277.609 37.044 277.321 37.818 276.745 38.394C276.169 38.934 275.377 39.204 274.369 39.204C273.433 39.204 272.659 38.916 272.047 38.34C271.471 37.764 271.183 37.008 271.183 36.072V34.884C270.571 36.288 269.599 37.386 268.267 38.178C266.971 38.97 265.459 39.366 263.731 39.366C261.967 39.366 260.365 39.006 258.925 38.286C257.485 37.566 256.351 36.576 255.523 35.316C254.695 34.056 254.281 32.652 254.281 31.104C254.281 29.16 254.767 27.63 255.739 26.514C256.747 25.398 258.367 24.588 260.599 24.084C262.831 23.58 265.909 23.328 269.833 23.328H271.183V22.086C271.183 20.322 270.805 19.044 270.049 18.252C269.293 17.424 268.069 17.01 266.377 17.01C265.333 17.01 264.271 17.172 263.191 17.496C262.111 17.784 260.833 18.216 259.357 18.792C258.421 19.26 257.737 19.494 257.305 19.494C256.657 19.494 256.117 19.26 255.685 18.792C255.289 18.324 255.091 17.712 255.091 16.956C255.091 16.344 255.235 15.822 255.523 15.39C255.847 14.922 256.369 14.49 257.089 14.094C258.349 13.41 259.843 12.87 261.571 12.474C263.335 12.078 265.063 11.88 266.755 11.88ZM265.081 34.506C266.881 34.506 268.339 33.912 269.455 32.724C270.607 31.5 271.183 29.934 271.183 28.026V26.892H270.211C267.799 26.892 265.927 27 264.595 27.216C263.263 27.432 262.309 27.81 261.733 28.35C261.157 28.89 260.869 29.628 260.869 30.564C260.869 31.716 261.265 32.67 262.057 33.426C262.885 34.146 263.893 34.506 265.081 34.506Z" fill="#53A0FF"/>
<path d="M100.46 63.066C101.273 63.306 101.9 63.726 102.34 64.326C102.793 64.9127 103.02 65.6393 103.02 66.506C103.02 67.6927 102.58 68.6327 101.7 69.326C100.833 70.0193 99.6333 70.366 98.1 70.366H92.86C92.3933 70.366 92.0333 70.2393 91.78 69.986C91.5267 69.7327 91.4 69.3727 91.4 68.906V57.726C91.4 57.2593 91.5267 56.8993 91.78 56.646C92.0333 56.3927 92.3933 56.266 92.86 56.266H97.9C99.3667 56.266 100.527 56.5927 101.38 57.246C102.247 57.8993 102.68 58.7927 102.68 59.926C102.68 60.6593 102.48 61.306 102.08 61.866C101.693 62.4127 101.153 62.8127 100.46 63.066ZM94.44 62.006H97.38C98.18 62.006 98.7667 61.8727 99.14 61.606C99.5267 61.326 99.72 60.906 99.72 60.346C99.72 59.7593 99.5267 59.3327 99.14 59.066C98.7667 58.786 98.18 58.646 97.38 58.646H94.44V62.006ZM97.74 67.986C98.5667 67.986 99.1667 67.846 99.54 67.566C99.9133 67.286 100.1 66.8327 100.1 66.206C100.1 65.5793 99.9133 65.1193 99.54 64.826C99.1667 64.5327 98.5667 64.386 97.74 64.386H94.44V67.986H97.74ZM112.889 60.346C113.356 60.346 113.722 60.4727 113.989 60.726C114.269 60.9793 114.409 61.326 114.409 61.766V69.106C114.409 69.5193 114.262 69.8527 113.969 70.106C113.689 70.3593 113.322 70.486 112.869 70.486C112.442 70.486 112.102 70.366 111.849 70.126C111.596 69.886 111.469 69.566 111.469 69.166V68.966C111.162 69.4727 110.756 69.8593 110.249 70.126C109.756 70.3927 109.196 70.526 108.569 70.526C107.329 70.526 106.402 70.186 105.789 69.506C105.189 68.8127 104.889 67.7727 104.889 66.386V61.766C104.889 61.326 105.022 60.9793 105.289 60.726C105.569 60.4727 105.942 60.346 106.409 60.346C106.876 60.346 107.242 60.4727 107.509 60.726C107.776 60.9793 107.909 61.326 107.909 61.766V66.446C107.909 67.0327 108.029 67.466 108.269 67.746C108.522 68.026 108.902 68.166 109.409 68.166C109.996 68.166 110.469 67.966 110.829 67.566C111.202 67.166 111.389 66.6393 111.389 65.986V61.766C111.389 61.326 111.522 60.9793 111.789 60.726C112.056 60.4727 112.422 60.346 112.889 60.346ZM122.066 58.466C121.52 58.506 121.126 58.6727 120.886 58.966C120.646 59.2593 120.526 59.6727 120.526 60.206V60.546H121.926C122.833 60.546 123.286 60.926 123.286 61.686C123.286 62.4327 122.833 62.806 121.926 62.806H120.526V69.046C120.526 69.5127 120.38 69.866 120.086 70.106C119.806 70.346 119.453 70.466 119.026 70.466C118.586 70.466 118.22 70.346 117.926 70.106C117.646 69.866 117.506 69.5127 117.506 69.046V62.806H116.706C115.813 62.806 115.366 62.4327 115.366 61.686C115.366 60.926 115.813 60.546 116.706 60.546H117.506C117.506 59.266 117.86 58.2593 118.566 57.526C119.273 56.7927 120.246 56.3793 121.486 56.286L122.006 56.246L122.366 56.226C123.286 56.226 123.746 56.5793 123.746 57.286C123.746 57.9793 123.36 58.3593 122.586 58.426L122.066 58.466ZM129.313 58.466C128.766 58.506 128.373 58.6727 128.133 58.966C127.893 59.2593 127.773 59.6727 127.773 60.206V60.546H129.173C130.079 60.546 130.533 60.926 130.533 61.686C130.533 62.4327 130.079 62.806 129.173 62.806H127.773V69.046C127.773 69.5127 127.626 69.866 127.333 70.106C127.053 70.346 126.699 70.466 126.273 70.466C125.833 70.466 125.466 70.346 125.173 70.106C124.893 69.866 124.753 69.5127 124.753 69.046V62.806H123.953C123.059 62.806 122.612 62.4327 122.612 61.686C122.612 60.926 123.059 60.546 123.953 60.546H124.753C124.753 59.266 125.106 58.2593 125.813 57.526C126.519 56.7927 127.493 56.3793 128.733 56.286L129.253 56.246L129.613 56.226C130.533 56.226 130.993 56.5793 130.993 57.286C130.993 57.9793 130.606 58.3593 129.833 58.426L129.313 58.466ZM139.274 67.446C139.541 67.446 139.754 67.5527 139.914 67.766C140.088 67.9793 140.174 68.2527 140.174 68.586C140.174 68.8127 140.108 69.026 139.974 69.226C139.841 69.4127 139.654 69.5727 139.414 69.706C138.961 69.946 138.434 70.146 137.834 70.306C137.234 70.4527 136.681 70.526 136.174 70.526C135.108 70.526 134.174 70.3193 133.374 69.906C132.588 69.4927 131.981 68.906 131.554 68.146C131.128 67.3727 130.914 66.466 130.914 65.426C130.914 64.426 131.121 63.5393 131.534 62.766C131.948 61.9927 132.521 61.3927 133.254 60.966C133.988 60.526 134.821 60.306 135.754 60.306C136.648 60.306 137.428 60.506 138.094 60.906C138.774 61.2927 139.301 61.8527 139.674 62.586C140.048 63.306 140.234 64.1527 140.234 65.126C140.234 65.4193 140.161 65.646 140.014 65.806C139.881 65.9527 139.688 66.026 139.434 66.026H133.834C133.928 66.8127 134.168 67.386 134.554 67.746C134.941 68.0927 135.494 68.266 136.214 68.266C136.601 68.266 136.948 68.2193 137.254 68.126C137.561 68.0327 137.901 67.906 138.274 67.746C138.461 67.666 138.641 67.5993 138.814 67.546C138.988 67.4793 139.141 67.446 139.274 67.446ZM135.834 62.386C135.261 62.386 134.801 62.5727 134.454 62.946C134.108 63.306 133.901 63.8327 133.834 64.526H137.694C137.654 63.8193 137.474 63.286 137.154 62.926C136.848 62.566 136.408 62.386 135.834 62.386ZM147.918 60.346C148.318 60.3193 148.632 60.4127 148.858 60.626C149.098 60.826 149.218 61.1327 149.218 61.546C149.218 61.986 149.112 62.3127 148.898 62.526C148.685 62.7393 148.305 62.8727 147.758 62.926L147.158 62.986C146.425 63.066 145.892 63.306 145.558 63.706C145.238 64.106 145.078 64.6193 145.078 65.246V69.066C145.078 69.5327 144.932 69.886 144.638 70.126C144.358 70.366 144.005 70.486 143.578 70.486C143.138 70.486 142.772 70.366 142.478 70.126C142.198 69.886 142.058 69.5327 142.058 69.066V61.726C142.058 61.286 142.205 60.946 142.498 60.706C142.792 60.466 143.145 60.346 143.558 60.346C143.958 60.346 144.292 60.466 144.558 60.706C144.825 60.9327 144.958 61.2527 144.958 61.666V62.206C145.198 61.6327 145.558 61.1927 146.038 60.886C146.532 60.5793 147.065 60.406 147.638 60.366L147.918 60.346ZM151.606 70.486C151.166 70.486 150.799 70.366 150.506 70.126C150.226 69.886 150.086 69.5327 150.086 69.066V61.766C150.086 61.2993 150.232 60.946 150.526 60.706C150.819 60.466 151.179 60.346 151.606 60.346C152.032 60.346 152.386 60.466 152.666 60.706C152.959 60.946 153.106 61.2993 153.106 61.766V69.066C153.106 69.5327 152.959 69.886 152.666 70.126C152.386 70.366 152.032 70.486 151.606 70.486ZM151.606 58.746C151.072 58.746 150.652 58.6127 150.346 58.346C150.039 58.066 149.886 57.6927 149.886 57.226C149.886 56.7593 150.039 56.3927 150.346 56.126C150.652 55.8593 151.072 55.726 151.606 55.726C152.126 55.726 152.539 55.866 152.846 56.146C153.166 56.4127 153.326 56.7727 153.326 57.226C153.326 57.6927 153.172 58.066 152.866 58.346C152.559 58.6127 152.139 58.746 151.606 58.746ZM161.578 60.306C162.751 60.306 163.624 60.6527 164.198 61.346C164.771 62.026 165.058 63.0593 165.058 64.446V69.066C165.058 69.506 164.918 69.8527 164.638 70.106C164.371 70.3593 164.004 70.486 163.538 70.486C163.071 70.486 162.704 70.3593 162.438 70.106C162.171 69.8527 162.038 69.506 162.038 69.066V64.586C162.038 63.9193 161.911 63.4327 161.658 63.126C161.418 62.8193 161.038 62.666 160.518 62.666C159.891 62.666 159.384 62.866 158.998 63.266C158.624 63.666 158.438 64.1993 158.438 64.866V69.066C158.438 69.506 158.304 69.8527 158.038 70.106C157.771 70.3593 157.404 70.486 156.938 70.486C156.471 70.486 156.098 70.3593 155.818 70.106C155.551 69.8527 155.418 69.506 155.418 69.066V61.726C155.418 61.3127 155.558 60.9793 155.838 60.726C156.131 60.4727 156.504 60.346 156.958 60.346C157.371 60.346 157.704 60.4727 157.958 60.726C158.224 60.966 158.358 61.2793 158.358 61.666V61.946C158.704 61.4127 159.151 61.006 159.698 60.726C160.258 60.446 160.884 60.306 161.578 60.306ZM175.832 60.346C176.286 60.346 176.646 60.4793 176.912 60.746C177.192 60.9993 177.332 61.3393 177.332 61.766V69.306C177.332 70.8927 176.872 72.0927 175.952 72.906C175.032 73.7193 173.686 74.126 171.912 74.126C170.419 74.126 169.192 73.8593 168.232 73.326C167.992 73.1927 167.806 73.026 167.672 72.826C167.539 72.6393 167.472 72.426 167.472 72.186C167.472 71.8527 167.552 71.5793 167.712 71.366C167.872 71.1527 168.086 71.046 168.352 71.046C168.499 71.046 168.672 71.0727 168.872 71.126C169.072 71.1927 169.279 71.266 169.492 71.346C169.919 71.506 170.312 71.6327 170.672 71.726C171.032 71.8193 171.419 71.866 171.832 71.866C172.686 71.866 173.319 71.6727 173.732 71.286C174.146 70.8993 174.352 70.3127 174.352 69.526V68.446C174.072 68.9527 173.652 69.3527 173.092 69.646C172.532 69.9393 171.906 70.086 171.212 70.086C170.359 70.086 169.599 69.886 168.932 69.486C168.279 69.086 167.766 68.5193 167.392 67.786C167.019 67.0393 166.832 66.1793 166.832 65.206C166.832 64.2327 167.019 63.3793 167.392 62.646C167.766 61.8993 168.279 61.326 168.932 60.926C169.599 60.5127 170.359 60.306 171.212 60.306C171.892 60.306 172.506 60.4527 173.052 60.746C173.612 61.026 174.039 61.4193 174.332 61.926V61.726C174.332 61.2993 174.466 60.966 174.732 60.726C175.012 60.4727 175.379 60.346 175.832 60.346ZM172.092 67.786C172.799 67.786 173.346 67.5593 173.732 67.106C174.132 66.6527 174.332 66.0193 174.332 65.206C174.332 64.3927 174.132 63.7593 173.732 63.306C173.346 62.8393 172.799 62.606 172.092 62.606C171.386 62.606 170.832 62.8393 170.432 63.306C170.032 63.7593 169.832 64.3927 169.832 65.206C169.832 66.0193 170.032 66.6527 170.432 67.106C170.832 67.5593 171.386 67.786 172.092 67.786ZM191.962 70.546C190.575 70.546 189.362 70.2527 188.322 69.666C187.282 69.0793 186.482 68.2393 185.922 67.146C185.362 66.0527 185.082 64.7727 185.082 63.306C185.082 61.8393 185.362 60.566 185.922 59.486C186.482 58.3927 187.282 57.5527 188.322 56.966C189.362 56.3793 190.575 56.086 191.962 56.086C193.709 56.086 195.215 56.566 196.482 57.526C196.682 57.686 196.822 57.846 196.902 58.006C196.982 58.166 197.022 58.366 197.022 58.606C197.022 58.9527 196.922 59.2527 196.722 59.506C196.535 59.746 196.302 59.866 196.022 59.866C195.835 59.866 195.669 59.846 195.522 59.806C195.389 59.7527 195.235 59.666 195.062 59.546C194.529 59.1993 194.035 58.9527 193.582 58.806C193.129 58.646 192.642 58.566 192.122 58.566C190.842 58.566 189.875 58.966 189.222 59.766C188.582 60.5527 188.262 61.7327 188.262 63.306C188.262 66.4793 189.549 68.066 192.122 68.066C192.615 68.066 193.082 67.9927 193.522 67.846C193.962 67.686 194.475 67.4327 195.062 67.086C195.262 66.966 195.429 66.886 195.562 66.846C195.695 66.7927 195.849 66.766 196.022 66.766C196.302 66.766 196.535 66.8927 196.722 67.146C196.922 67.386 197.022 67.6793 197.022 68.026C197.022 68.266 196.975 68.4727 196.882 68.646C196.802 68.806 196.669 68.9593 196.482 69.106C195.215 70.066 193.709 70.546 191.962 70.546ZM205.017 60.306C207.297 60.306 208.437 61.686 208.437 64.446V69.066C208.437 69.506 208.297 69.8527 208.017 70.106C207.75 70.3593 207.383 70.486 206.917 70.486C206.45 70.486 206.083 70.3593 205.817 70.106C205.55 69.8527 205.417 69.506 205.417 69.066V64.406C205.417 63.8193 205.29 63.386 205.037 63.106C204.797 62.8127 204.417 62.666 203.897 62.666C203.27 62.666 202.763 62.866 202.377 63.266C202.003 63.666 201.817 64.1993 201.817 64.866V69.066C201.817 69.506 201.683 69.8527 201.417 70.106C201.15 70.3593 200.783 70.486 200.317 70.486C199.85 70.486 199.477 70.3593 199.197 70.106C198.93 69.8527 198.797 69.506 198.797 69.066V57.546C198.797 57.1327 198.937 56.7993 199.217 56.546C199.51 56.2927 199.89 56.166 200.357 56.166C200.797 56.166 201.15 56.286 201.417 56.526C201.683 56.766 201.817 57.086 201.817 57.486V61.846C202.163 61.3393 202.61 60.9593 203.157 60.706C203.703 60.4393 204.323 60.306 205.017 60.306ZM216.551 60.346C216.951 60.3193 217.265 60.4127 217.491 60.626C217.731 60.826 217.851 61.1327 217.851 61.546C217.851 61.986 217.745 62.3127 217.531 62.526C217.318 62.7393 216.938 62.8727 216.391 62.926L215.791 62.986C215.058 63.066 214.525 63.306 214.191 63.706C213.871 64.106 213.711 64.6193 213.711 65.246V69.066C213.711 69.5327 213.565 69.886 213.271 70.126C212.991 70.366 212.638 70.486 212.211 70.486C211.771 70.486 211.405 70.366 211.111 70.126C210.831 69.886 210.691 69.5327 210.691 69.066V61.726C210.691 61.286 210.838 60.946 211.131 60.706C211.425 60.466 211.778 60.346 212.191 60.346C212.591 60.346 212.925 60.466 213.191 60.706C213.458 60.9327 213.591 61.2527 213.591 61.666V62.206C213.831 61.6327 214.191 61.1927 214.671 60.886C215.165 60.5793 215.698 60.406 216.271 60.366L216.551 60.346ZM223.243 70.526C222.203 70.526 221.29 70.3193 220.503 69.906C219.717 69.4793 219.11 68.886 218.683 68.126C218.257 67.3527 218.043 66.446 218.043 65.406C218.043 64.366 218.257 63.466 218.683 62.706C219.11 61.9327 219.717 61.3393 220.503 60.926C221.29 60.5127 222.203 60.306 223.243 60.306C224.283 60.306 225.197 60.5127 225.983 60.926C226.77 61.3393 227.377 61.9327 227.803 62.706C228.23 63.466 228.443 64.366 228.443 65.406C228.443 66.446 228.23 67.3527 227.803 68.126C227.377 68.886 226.77 69.4793 225.983 69.906C225.197 70.3193 224.283 70.526 223.243 70.526ZM223.243 68.226C224.71 68.226 225.443 67.286 225.443 65.406C225.443 64.4593 225.25 63.7527 224.863 63.286C224.49 62.8193 223.95 62.586 223.243 62.586C221.777 62.586 221.043 63.526 221.043 65.406C221.043 67.286 221.777 68.226 223.243 68.226ZM236.441 60.306C237.614 60.306 238.488 60.6527 239.061 61.346C239.634 62.026 239.921 63.0593 239.921 64.446V69.066C239.921 69.506 239.781 69.8527 239.501 70.106C239.234 70.3593 238.868 70.486 238.401 70.486C237.934 70.486 237.568 70.3593 237.301 70.106C237.034 69.8527 236.901 69.506 236.901 69.066V64.586C236.901 63.9193 236.774 63.4327 236.521 63.126C236.281 62.8193 235.901 62.666 235.381 62.666C234.754 62.666 234.248 62.866 233.861 63.266C233.488 63.666 233.301 64.1993 233.301 64.866V69.066C233.301 69.506 233.168 69.8527 232.901 70.106C232.634 70.3593 232.268 70.486 231.801 70.486C231.334 70.486 230.961 70.3593 230.681 70.106C230.414 69.8527 230.281 69.506 230.281 69.066V61.726C230.281 61.3127 230.421 60.9793 230.701 60.726C230.994 60.4727 231.368 60.346 231.821 60.346C232.234 60.346 232.568 60.4727 232.821 60.726C233.088 60.966 233.221 61.2793 233.221 61.666V61.946C233.568 61.4127 234.014 61.006 234.561 60.726C235.121 60.446 235.748 60.306 236.441 60.306ZM243.696 70.486C243.256 70.486 242.889 70.366 242.596 70.126C242.316 69.886 242.176 69.5327 242.176 69.066V61.766C242.176 61.2993 242.322 60.946 242.616 60.706C242.909 60.466 243.269 60.346 243.696 60.346C244.122 60.346 244.476 60.466 244.756 60.706C245.049 60.946 245.196 61.2993 245.196 61.766V69.066C245.196 69.5327 245.049 69.886 244.756 70.126C244.476 70.366 244.122 70.486 243.696 70.486ZM243.696 58.746C243.162 58.746 242.742 58.6127 242.436 58.346C242.129 58.066 241.976 57.6927 241.976 57.226C241.976 56.7593 242.129 56.3927 242.436 56.126C242.742 55.8593 243.162 55.726 243.696 55.726C244.216 55.726 244.629 55.866 244.936 56.146C245.256 56.4127 245.416 56.7727 245.416 57.226C245.416 57.6927 245.262 58.066 244.956 58.346C244.649 58.6127 244.229 58.746 243.696 58.746ZM252.048 70.526C251.034 70.526 250.148 70.3193 249.388 69.906C248.628 69.4927 248.041 68.906 247.628 68.146C247.228 67.386 247.028 66.4927 247.028 65.466C247.028 64.4393 247.241 63.5393 247.668 62.766C248.108 61.9793 248.721 61.3727 249.508 60.946C250.294 60.5193 251.201 60.306 252.228 60.306C252.761 60.306 253.294 60.3793 253.828 60.526C254.374 60.6727 254.861 60.8793 255.288 61.146C255.701 61.3993 255.908 61.7727 255.908 62.266C255.908 62.6127 255.828 62.8993 255.668 63.126C255.508 63.3393 255.294 63.446 255.028 63.446C254.854 63.446 254.688 63.4193 254.528 63.366C254.381 63.2993 254.181 63.206 253.928 63.086C253.648 62.9393 253.394 62.826 253.168 62.746C252.954 62.666 252.708 62.626 252.428 62.626C251.681 62.626 251.108 62.866 250.708 63.346C250.321 63.8127 250.128 64.4993 250.128 65.406C250.128 66.3127 250.321 67.006 250.708 67.486C251.108 67.966 251.681 68.206 252.428 68.206C252.708 68.206 252.954 68.1727 253.168 68.106C253.381 68.026 253.641 67.906 253.948 67.746C254.201 67.626 254.401 67.5393 254.548 67.486C254.694 67.4193 254.854 67.386 255.028 67.386C255.281 67.386 255.488 67.4993 255.648 67.726C255.821 67.9527 255.908 68.2393 255.908 68.586C255.908 69.0793 255.701 69.446 255.288 69.686C254.861 69.9527 254.368 70.1593 253.808 70.306C253.248 70.4527 252.661 70.526 252.048 70.526ZM268.296 70.546C267.243 70.546 266.263 70.426 265.356 70.186C264.45 69.9327 263.71 69.5793 263.136 69.126C262.936 68.9793 262.79 68.826 262.696 68.666C262.616 68.4927 262.576 68.2793 262.576 68.026C262.576 67.6927 262.676 67.3993 262.876 67.146C263.09 66.8927 263.33 66.766 263.596 66.766C263.743 66.766 263.883 66.7927 264.016 66.846C264.163 66.886 264.336 66.966 264.536 67.086C265.11 67.446 265.69 67.7127 266.276 67.886C266.863 68.046 267.51 68.126 268.216 68.126C269.096 68.126 269.77 67.9793 270.236 67.686C270.703 67.3927 270.936 66.9727 270.936 66.426C270.936 66.0127 270.716 65.6793 270.276 65.426C269.85 65.1727 269.083 64.9327 267.976 64.706C266.736 64.4527 265.743 64.146 264.996 63.786C264.263 63.426 263.723 62.9793 263.376 62.446C263.043 61.9127 262.876 61.266 262.876 60.506C262.876 59.666 263.116 58.9127 263.596 58.246C264.09 57.566 264.763 57.0393 265.616 56.666C266.483 56.2793 267.456 56.086 268.536 56.086C270.43 56.086 271.99 56.5593 273.216 57.506C273.416 57.666 273.556 57.8327 273.636 58.006C273.73 58.166 273.776 58.366 273.776 58.606C273.776 58.9393 273.67 59.2327 273.456 59.486C273.256 59.7393 273.023 59.866 272.756 59.866C272.61 59.866 272.47 59.846 272.336 59.806C272.216 59.766 272.043 59.6793 271.816 59.546C271.27 59.1993 270.763 58.9393 270.296 58.766C269.843 58.5927 269.263 58.506 268.556 58.506C267.743 58.506 267.103 58.666 266.636 58.986C266.17 59.2927 265.936 59.7193 265.936 60.266C265.936 60.586 266.023 60.8527 266.196 61.066C266.383 61.266 266.683 61.446 267.096 61.606C267.523 61.766 268.123 61.9327 268.896 62.106C270.71 62.506 272.01 63.0193 272.796 63.646C273.596 64.2727 273.996 65.1327 273.996 66.226C273.996 67.0793 273.756 67.8327 273.276 68.486C272.81 69.1393 272.143 69.646 271.276 70.006C270.423 70.366 269.43 70.546 268.296 70.546ZM283.944 60.346C284.41 60.346 284.777 60.4727 285.044 60.726C285.324 60.9793 285.464 61.326 285.464 61.766V69.106C285.464 69.5193 285.317 69.8527 285.024 70.106C284.744 70.3593 284.377 70.486 283.924 70.486C283.497 70.486 283.157 70.366 282.904 70.126C282.65 69.886 282.524 69.566 282.524 69.166V68.966C282.217 69.4727 281.81 69.8593 281.304 70.126C280.81 70.3927 280.25 70.526 279.624 70.526C278.384 70.526 277.457 70.186 276.844 69.506C276.244 68.8127 275.944 67.7727 275.944 66.386V61.766C275.944 61.326 276.077 60.9793 276.344 60.726C276.624 60.4727 276.997 60.346 277.464 60.346C277.93 60.346 278.297 60.4727 278.564 60.726C278.83 60.9793 278.964 61.326 278.964 61.766V66.446C278.964 67.0327 279.084 67.466 279.324 67.746C279.577 68.026 279.957 68.166 280.464 68.166C281.05 68.166 281.524 67.966 281.884 67.566C282.257 67.166 282.444 66.6393 282.444 65.986V61.766C282.444 61.326 282.577 60.9793 282.844 60.726C283.11 60.4727 283.477 60.346 283.944 60.346ZM293.121 58.466C292.574 58.506 292.181 58.6727 291.941 58.966C291.701 59.2593 291.581 59.6727 291.581 60.206V60.546H292.981C293.888 60.546 294.341 60.926 294.341 61.686C294.341 62.4327 293.888 62.806 292.981 62.806H291.581V69.046C291.581 69.5127 291.434 69.866 291.141 70.106C290.861 70.346 290.508 70.466 290.081 70.466C289.641 70.466 289.274 70.346 288.981 70.106C288.701 69.866 288.561 69.5127 288.561 69.046V62.806H287.761C286.868 62.806 286.421 62.4327 286.421 61.686C286.421 60.926 286.868 60.546 287.761 60.546H288.561C288.561 59.266 288.914 58.2593 289.621 57.526C290.328 56.7927 291.301 56.3793 292.541 56.286L293.061 56.246L293.421 56.226C294.341 56.226 294.801 56.5793 294.801 57.286C294.801 57.9793 294.414 58.3593 293.641 58.426L293.121 58.466ZM300.367 58.466C299.821 58.506 299.427 58.6727 299.187 58.966C298.947 59.2593 298.827 59.6727 298.827 60.206V60.546H300.227C301.134 60.546 301.587 60.926 301.587 61.686C301.587 62.4327 301.134 62.806 300.227 62.806H298.827V69.046C298.827 69.5127 298.681 69.866 298.387 70.106C298.107 70.346 297.754 70.466 297.327 70.466C296.887 70.466 296.521 70.346 296.227 70.106C295.947 69.866 295.807 69.5127 295.807 69.046V62.806H295.007C294.114 62.806 293.667 62.4327 293.667 61.686C293.667 60.926 294.114 60.546 295.007 60.546H295.807C295.807 59.266 296.161 58.2593 296.867 57.526C297.574 56.7927 298.547 56.3793 299.787 56.286L300.307 56.246L300.667 56.226C301.587 56.226 302.047 56.5793 302.047 57.286C302.047 57.9793 301.661 58.3593 300.887 58.426L300.367 58.466ZM310.329 67.446C310.596 67.446 310.809 67.5527 310.969 67.766C311.142 67.9793 311.229 68.2527 311.229 68.586C311.229 68.8127 311.162 69.026 311.029 69.226C310.896 69.4127 310.709 69.5727 310.469 69.706C310.016 69.946 309.489 70.146 308.889 70.306C308.289 70.4527 307.736 70.526 307.229 70.526C306.162 70.526 305.229 70.3193 304.429 69.906C303.642 69.4927 303.036 68.906 302.609 68.146C302.182 67.3727 301.969 66.466 301.969 65.426C301.969 64.426 302.176 63.5393 302.589 62.766C303.002 61.9927 303.576 61.3927 304.309 60.966C305.042 60.526 305.876 60.306 306.809 60.306C307.702 60.306 308.482 60.506 309.149 60.906C309.829 61.2927 310.356 61.8527 310.729 62.586C311.102 63.306 311.289 64.1527 311.289 65.126C311.289 65.4193 311.216 65.646 311.069 65.806C310.936 65.9527 310.742 66.026 310.489 66.026H304.889C304.982 66.8127 305.222 67.386 305.609 67.746C305.996 68.0927 306.549 68.266 307.269 68.266C307.656 68.266 308.002 68.2193 308.309 68.126C308.616 68.0327 308.956 67.906 309.329 67.746C309.516 67.666 309.696 67.5993 309.869 67.546C310.042 67.4793 310.196 67.446 310.329 67.446ZM306.889 62.386C306.316 62.386 305.856 62.5727 305.509 62.946C305.162 63.306 304.956 63.8327 304.889 64.526H308.749C308.709 63.8193 308.529 63.286 308.209 62.926C307.902 62.566 307.462 62.386 306.889 62.386ZM318.973 60.346C319.373 60.3193 319.686 60.4127 319.913 60.626C320.153 60.826 320.273 61.1327 320.273 61.546C320.273 61.986 320.166 62.3127 319.953 62.526C319.74 62.7393 319.36 62.8727 318.813 62.926L318.213 62.986C317.48 63.066 316.946 63.306 316.613 63.706C316.293 64.106 316.133 64.6193 316.133 65.246V69.066C316.133 69.5327 315.986 69.886 315.693 70.126C315.413 70.366 315.06 70.486 314.633 70.486C314.193 70.486 313.826 70.366 313.533 70.126C313.253 69.886 313.113 69.5327 313.113 69.066V61.726C313.113 61.286 313.26 60.946 313.553 60.706C313.846 60.466 314.2 60.346 314.613 60.346C315.013 60.346 315.346 60.466 315.613 60.706C315.88 60.9327 316.013 61.2527 316.013 61.666V62.206C316.253 61.6327 316.613 61.1927 317.093 60.886C317.586 60.5793 318.12 60.406 318.693 60.366L318.973 60.346ZM322.66 70.486C322.22 70.486 321.854 70.366 321.56 70.126C321.28 69.886 321.14 69.5327 321.14 69.066V61.766C321.14 61.2993 321.287 60.946 321.58 60.706C321.874 60.466 322.234 60.346 322.66 60.346C323.087 60.346 323.44 60.466 323.72 60.706C324.014 60.946 324.16 61.2993 324.16 61.766V69.066C324.16 69.5327 324.014 69.886 323.72 70.126C323.44 70.366 323.087 70.486 322.66 70.486ZM322.66 58.746C322.127 58.746 321.707 58.6127 321.4 58.346C321.094 58.066 320.94 57.6927 320.94 57.226C320.94 56.7593 321.094 56.3927 321.4 56.126C321.707 55.8593 322.127 55.726 322.66 55.726C323.18 55.726 323.594 55.866 323.9 56.146C324.22 56.4127 324.38 56.7727 324.38 57.226C324.38 57.6927 324.227 58.066 323.92 58.346C323.614 58.6127 323.194 58.746 322.66 58.746ZM332.633 60.306C333.806 60.306 334.679 60.6527 335.253 61.346C335.826 62.026 336.113 63.0593 336.113 64.446V69.066C336.113 69.506 335.973 69.8527 335.693 70.106C335.426 70.3593 335.059 70.486 334.593 70.486C334.126 70.486 333.759 70.3593 333.493 70.106C333.226 69.8527 333.093 69.506 333.093 69.066V64.586C333.093 63.9193 332.966 63.4327 332.713 63.126C332.473 62.8193 332.093 62.666 331.573 62.666C330.946 62.666 330.439 62.866 330.053 63.266C329.679 63.666 329.493 64.1993 329.493 64.866V69.066C329.493 69.506 329.359 69.8527 329.093 70.106C328.826 70.3593 328.459 70.486 327.993 70.486C327.526 70.486 327.153 70.3593 326.873 70.106C326.606 69.8527 326.473 69.506 326.473 69.066V61.726C326.473 61.3127 326.613 60.9793 326.893 60.726C327.186 60.4727 327.559 60.346 328.013 60.346C328.426 60.346 328.759 60.4727 329.013 60.726C329.279 60.966 329.413 61.2793 329.413 61.666V61.946C329.759 61.4127 330.206 61.006 330.753 60.726C331.313 60.446 331.939 60.306 332.633 60.306ZM346.887 60.346C347.34 60.346 347.7 60.4793 347.967 60.746C348.247 60.9993 348.387 61.3393 348.387 61.766V69.306C348.387 70.8927 347.927 72.0927 347.007 72.906C346.087 73.7193 344.74 74.126 342.967 74.126C341.474 74.126 340.247 73.8593 339.287 73.326C339.047 73.1927 338.86 73.026 338.727 72.826C338.594 72.6393 338.527 72.426 338.527 72.186C338.527 71.8527 338.607 71.5793 338.767 71.366C338.927 71.1527 339.14 71.046 339.407 71.046C339.554 71.046 339.727 71.0727 339.927 71.126C340.127 71.1927 340.334 71.266 340.547 71.346C340.974 71.506 341.367 71.6327 341.727 71.726C342.087 71.8193 342.474 71.866 342.887 71.866C343.74 71.866 344.374 71.6727 344.787 71.286C345.2 70.8993 345.407 70.3127 345.407 69.526V68.446C345.127 68.9527 344.707 69.3527 344.147 69.646C343.587 69.9393 342.96 70.086 342.267 70.086C341.414 70.086 340.654 69.886 339.987 69.486C339.334 69.086 338.82 68.5193 338.447 67.786C338.074 67.0393 337.887 66.1793 337.887 65.206C337.887 64.2327 338.074 63.3793 338.447 62.646C338.82 61.8993 339.334 61.326 339.987 60.926C340.654 60.5127 341.414 60.306 342.267 60.306C342.947 60.306 343.56 60.4527 344.107 60.746C344.667 61.026 345.094 61.4193 345.387 61.926V61.726C345.387 61.2993 345.52 60.966 345.787 60.726C346.067 60.4727 346.434 60.346 346.887 60.346ZM343.147 67.786C343.854 67.786 344.4 67.5593 344.787 67.106C345.187 66.6527 345.387 66.0193 345.387 65.206C345.387 64.3927 345.187 63.7593 344.787 63.306C344.4 62.8393 343.854 62.606 343.147 62.606C342.44 62.606 341.887 62.8393 341.487 63.306C341.087 63.7593 340.887 64.3927 340.887 65.206C340.887 66.0193 341.087 66.6527 341.487 67.106C341.887 67.5593 342.44 67.786 343.147 67.786Z" fill="#53A0FF"/>
<circle cx="35" cy="39" r="34.5" fill="white" stroke="#53A0FF"/>
<circle cx="35" cy="39" r="28.1364" fill="white" stroke="#53A0FF"/>
<circle cx="35" cy="39" r="21.7727" fill="white" stroke="#53A0FF"/>
<circle cx="35" cy="39" r="16.5" fill="white" stroke="#53A0FF" stroke-width="2"/>
<circle cx="35" cy="39" r="10.1364" fill="white" stroke="#53A0FF" stroke-width="2"/>
<circle cx="35" cy="39" r="3.27273" fill="white" stroke="#53A0FF" stroke-width="3"/>
</svg>
