<svg width="629" height="371" viewBox="0 0 629 371" fill="none" xmlns="http://www.w3.org/2000/svg">
<path d="M810.9 319.292C810.922 323.659 810.678 328.016 810.157 332.321C809.292 339.503 807.662 346.546 805.223 353.291C803.509 358.047 801.39 362.65 798.856 367.047C798.128 368.314 797.362 369.559 796.564 370.786H24.8664C24.8664 370.786 -45.415 212.678 50.3334 136.134C51.5308 135.18 52.7318 134.239 53.9367 133.321C55.0492 132.478 56.1654 131.651 57.2851 130.838C58.3718 130.042 59.4696 129.269 60.5671 128.507C89.4268 108.481 121.029 98.5775 154.18 92.4387C155.347 92.2209 156.515 92.0105 157.691 91.8033C158.803 91.6039 159.916 91.4112 161.031 91.2223C187.907 86.6703 215.732 84.2734 243.886 80.7158C253.683 79.4743 263.524 78.0951 273.377 76.4321C312.807 69.785 352.45 58.6251 390.616 33.9783C402.668 26.1945 414.816 19.8994 426.916 14.9404C427.747 14.599 428.579 14.2615 429.414 13.935C430.231 13.612 431.044 13.2961 431.861 12.9875C455.809 3.87153 479.476 -0.0637782 501.724 0.00153141C502.6 0.00153141 503.473 0.00861464 504.344 0.0230921C505.176 0.0375696 506.008 0.0594422 506.835 0.0848583C513.898 0.298804 520.802 0.920048 527.517 1.90001C530.329 2.31021 533.105 2.78217 535.839 3.31945C539.864 4.10702 543.807 5.022 547.662 6.06406C597.214 19.4239 632.294 52.9724 634.304 87.6686C635.661 111.056 638.484 133.524 644.737 153.02C647.635 162.045 651.267 170.438 655.832 177.986C657.073 180.044 658.386 182.034 659.768 183.962C673.416 202.949 694.152 215.459 725.758 217.539C747.726 218.988 766.233 228.656 780.318 242.963C780.448 243.097 780.581 243.228 780.714 243.366C799.897 263.086 810.778 291.457 810.9 319.292Z" fill="#D2E4FF"/>
<path d="M399.894 271.457C399.059 265.269 389.319 263.231 387.118 261.678C385.801 260.747 382.745 256.639 380.627 253.648C380.932 253.444 381.1 253.323 381.1 253.323C374.933 234.696 369.848 219.444 365.654 206.95C366.152 206.012 366.626 204.581 367.005 202.432C368.519 193.844 360.9 190.585 360.9 190.585C360.862 190.564 360.82 190.542 360.779 190.52C365.32 152.981 354.393 150.428 354.393 150.428C354.393 150.428 350.455 149.111 345.72 149.712C344.109 145.899 340.884 143.554 335.561 143.259C333.961 143.17 332.215 143.518 330.349 144.242C330.597 143.813 330.841 143.383 331.081 142.951C332.189 142.197 341.531 135.596 340.726 127.66C340.566 126.085 340.227 124.897 339.779 124.004C339.652 123.362 339.484 122.759 339.295 122.197C340.125 118.206 340.174 114.968 339.23 113.114C337.509 109.731 334.292 107.368 331.869 105.969C332.885 105.756 334.216 106.311 334.216 106.311C332.915 105.148 328.729 104.433 328.729 104.433C313.817 83.5891 290.82 110.585 286.634 117.619C282.445 124.65 277.192 132.459 263.023 131.911C235.145 130.832 233.372 158.376 239.076 172.48C239.156 172.678 252.822 196.452 252.822 196.452C253.081 195.986 253.508 195.398 254.081 194.712C253.143 204.632 252.698 212.763 251.15 215.044C247.907 219.823 232.599 248.271 245.841 261.553C235.396 258.182 220.621 270.791 218.838 272.361H218.658V370.786H342.984V370.786H405.147V344.967V272.362C403.59 272.061 401.827 271.758 399.894 271.457ZM316.399 254.174C317.649 252.324 322.244 243.891 327.873 232.597C327.705 243.941 327.635 252.162 327.635 252.162C327.461 253.757 328.046 254.948 329.095 255.834C328.452 257.285 327.652 258.69 327.024 260.058C326.323 261.583 326.027 263.3 325.924 264.819C315.413 264.335 307.435 264.242 304.812 264.718C304.349 264.802 303.81 264.886 303.209 264.969C309.459 262.065 313.811 258.003 316.399 254.174ZM359.413 267.03C357.065 262.826 349.069 263.203 347.229 261.678C345.824 260.512 344.882 259.293 344.255 258.092C344.816 258.043 345.142 258.004 345.142 258.004C347.533 250.151 349.61 242.872 351.409 236.12C358.271 247.457 363.949 255.828 363.949 255.828C364.647 257.502 365.893 258.3 367.404 258.532C367.314 259.025 367.157 259.531 366.914 260.058C365.722 262.65 365.699 265.794 365.812 267.579C363.69 267.39 361.553 267.206 359.413 267.03Z" fill="#C3DAFC"/>
<path d="M810.9 319.292C810.87 323.659 810.626 328.012 810.157 332.321C809.477 338.58 808.32 344.748 806.668 350.731C806.224 352.351 805.744 353.959 805.223 355.549C803.509 360.817 801.39 365.914 798.856 370.786H535.839V3.31897C539.864 4.10655 543.807 5.02152 547.662 6.06358C552.37 7.33406 556.945 8.78277 561.377 10.4017C588.81 20.4143 610.622 36.7913 623.033 55.6474C629.714 65.8022 633.669 76.6748 634.304 87.6677C635.661 111.055 638.484 133.523 644.737 153.019C647.635 162.044 651.267 170.438 655.832 177.985C657.073 180.043 658.385 182.033 659.768 183.961C673.416 202.948 694.152 215.458 725.758 217.538C747.726 218.987 766.233 228.655 780.318 242.962C780.448 243.096 780.581 243.227 780.714 243.365C799.897 263.086 810.778 291.457 810.9 319.292Z" fill="#EBF3FA"/>
<path d="M504.822 257.095L465.883 254.095C465.883 254.095 464.95 248.266 466.983 243.843C468.932 239.599 466.251 236.529 463.583 231.474C466.058 233.977 474.579 233.608 480.209 232.864C480.898 233.963 487.843 244.074 490.147 245.7C492.691 247.496 504.038 249.855 504.822 257.095Z" fill="#233862"/>
<path d="M459.091 254.095H420.152C420.152 254.095 419.218 248.266 421.252 243.843C423.201 239.599 426.597 235.044 423.929 229.989C426.404 232.492 434.219 232.218 439.848 231.474C440.537 232.572 437.243 239.751 444.415 245.7C446.81 247.685 458.307 246.856 459.091 254.095Z" fill="#233862"/>
<path d="M452.629 118.158C452.629 118.158 434.087 111.946 426.97 130.451C393.012 157.474 344.446 226.483 340.348 231.307C332.139 240.968 338.482 254.416 372.052 254.095C391.678 253.907 403.691 245.056 409.071 237.097C410.505 234.977 415.772 225.308 422.225 212.36C422.033 225.365 421.953 234.79 421.953 234.79C420.945 244.008 442.023 241.488 442.023 241.488C477.771 124.026 452.629 118.158 452.629 118.158Z" fill="#163560"/>
<path d="M435.246 75.3792C433.273 71.5012 429.585 68.792 426.808 67.1882C427.972 66.9433 429.498 67.5804 429.498 67.5804C428.006 66.2475 423.207 65.4274 423.207 65.4274C406.112 41.5315 379.748 72.4811 374.948 80.5448C370.146 88.6049 364.122 97.5575 347.879 96.9295C315.918 95.6931 315.963 126.603 320.425 143.44C322.784 152.341 337.117 173.155 337.117 173.155C340.804 166.514 373.049 136.098 395.134 136.303C402.55 133.362 410.384 124.698 410.996 124.012C405.192 131.151 400.981 134.526 398.174 136.139C419.171 132.948 440.477 85.6579 435.246 75.3792Z" fill="#B5453C"/>
<path d="M396.454 136.297C396.513 136.377 393.567 147.086 384.714 142.389C378.902 139.306 369.575 126.153 373.169 121.696C374.878 119.577 382.403 115.553 390.239 101.922L391.18 102.72L406.995 116.159C406.995 116.159 403.395 121.442 400.374 126.627C397.835 130.979 395.707 135.263 396.454 136.297Z" fill="#F4A269"/>
<path d="M390.599 99.3519C390.599 99.3519 390.893 88.3062 394.219 80.8847C396.593 75.586 411.021 59.6517 427.251 73.9992C427.251 73.9992 432.121 77.9368 434.804 84.4157C436.938 89.5684 438.754 98.8552 422.015 110.029L416.852 114.127L390.599 99.3519Z" fill="#B5453C"/>
<path d="M369.34 115.858C369.34 115.858 375.151 116.946 377.607 113.712C380.063 110.478 385.412 103.637 386.661 107.563C387.909 111.489 399.708 122.903 402.436 123.202C405.165 123.502 407.077 124.252 405.533 125.642C403.989 127.032 404.633 132.592 403.089 133.098C401.546 133.603 372.896 115.551 369.34 115.858Z" fill="#F99746"/>
<path d="M405.872 123.661C405.872 123.661 383.063 109.174 392.465 95.359C401.868 81.5446 405.256 70.3705 420.217 79.0361C435.178 87.7014 434.391 94.8121 432.394 100.173C430.398 105.534 412.048 127.073 405.872 123.661Z" fill="#FFB27D"/>
<path d="M406.995 134.867C406.995 134.867 368.369 106.906 354.85 117.438C334.91 132.971 338.898 185.413 334.267 192.237C329.636 199.061 303.54 247.993 345.982 252.97C388.425 257.948 398.201 231.663 400.131 211.95C402.06 192.237 406.995 134.867 406.995 134.867Z" fill="#F99746"/>
<path d="M356.17 134.515C356.17 134.515 345.048 194.917 367.09 211.418C389.132 227.92 400.228 132.647 356.17 134.515Z" fill="#ED7D2B"/>
<path d="M378.355 124.863C378.355 124.863 378.778 117.806 385.117 120.504C391.456 123.203 403.183 127.251 407.726 125.59C412.269 123.929 400.419 146.242 389.598 138.77C378.778 131.297 378.355 124.863 378.355 124.863Z" fill="#ED7D2B"/>
<path d="M430.723 85.4622C430.723 85.4622 413.497 97.5908 402.384 93.745C391.27 89.8985 388.861 84.6965 388.861 84.6965C388.861 84.6965 400.003 83.8092 408.27 74.8975C408.27 74.8975 431.323 74.6862 430.723 85.4622Z" fill="#B5453C"/>
<path d="M460.089 164.197C460.089 164.197 468.824 167.932 467.088 177.778C465.351 187.625 461.878 184.326 461.878 184.326L460.089 164.197Z" fill="#FFB27D"/>
<path d="M428.295 85.7692C428.295 85.7692 430.442 92.4221 429.168 96.6779C427.894 100.934 423.463 108.503 425.778 109.671C425.778 109.671 437.942 101.726 436.961 92.0557C435.92 81.8018 428.295 85.7692 428.295 85.7692Z" fill="#B5453C"/>
<path d="M443.009 118.158C443.009 118.158 443.007 118.163 443.006 118.165C441.285 113.305 437.517 110.299 431.039 109.94C402.726 108.367 334.663 225.236 329.505 231.307C321.296 240.968 327.639 254.416 361.209 254.095C380.835 253.907 388.576 244.677 393.956 236.718C396.418 233.075 414.266 205.223 427.985 176.547C439.487 203.465 463.583 238.993 463.583 238.993C467.164 247.57 483.247 236.122 483.247 236.122C444.703 119.71 443.009 118.158 443.009 118.158Z" fill="#1C468A"/>
<path d="M352.975 121.709C352.975 121.709 342.8 137.147 374.442 151.313C406.083 165.478 409.808 168.935 415.98 170.199C425.593 172.169 462.521 171.892 462.521 171.892C462.521 171.892 463.489 166.139 460.089 164.197C454.643 161.085 423.19 156.034 418.948 154.368C414.707 152.701 369.515 104.981 352.975 121.709Z" fill="#ED985F"/>
<path d="M361.956 115.089C361.956 115.089 378.118 115.73 411.833 146.242C411.833 146.242 416.992 152.396 419.558 152.806C422.125 153.217 429.078 155.012 429.23 156.75C429.384 158.488 420.667 180.282 409.574 180.906C398.481 181.528 345.054 142.707 348.699 130.097C352.344 117.488 361.956 115.089 361.956 115.089Z" fill="#F99746"/>
<path d="M439.549 257.947H297.017V370.786H439.549V257.947Z" fill="#C6601A"/>
<path d="M510.816 257.948H381.857V370.786H510.816V257.948Z" fill="#F1A34F"/>
<path d="M405.696 281.896C407.001 281.896 408.059 280.891 408.059 279.651C408.059 278.411 407.001 277.406 405.696 277.406C404.39 277.406 403.332 278.411 403.332 279.651C403.332 280.891 404.39 281.896 405.696 281.896Z" fill="#D3671E"/>
<path d="M492.431 281.896C493.737 281.896 494.795 280.891 494.795 279.651C494.795 278.411 493.737 277.406 492.431 277.406C491.126 277.406 490.068 278.411 490.068 279.651C490.068 280.891 491.126 281.896 492.431 281.896Z" fill="#D3671E"/>
<path d="M405.696 352.978C407.001 352.978 408.059 351.972 408.059 350.732C408.059 349.492 407.001 348.487 405.696 348.487C404.39 348.487 403.332 349.492 403.332 350.732C403.332 351.972 404.39 352.978 405.696 352.978Z" fill="#D3671E"/>
<path d="M492.431 352.978C493.737 352.978 494.795 351.972 494.795 350.732C494.795 349.492 493.737 348.487 492.431 348.487C491.126 348.487 490.068 349.492 490.068 350.732C490.068 351.972 491.126 352.978 492.431 352.978Z" fill="#D3671E"/>
<path d="M311.903 281.896C312.711 281.896 313.367 280.891 313.367 279.651C313.367 278.411 312.711 277.406 311.903 277.406C311.094 277.406 310.439 278.411 310.439 279.651C310.439 280.891 311.094 281.896 311.903 281.896Z" fill="#B25618"/>
<path d="M365.625 281.896C366.434 281.896 367.09 280.891 367.09 279.651C367.09 278.411 366.434 277.406 365.625 277.406C364.817 277.406 364.161 278.411 364.161 279.651C364.161 280.891 364.817 281.896 365.625 281.896Z" fill="#B25618"/>
<path d="M311.903 352.978C312.711 352.978 313.367 351.972 313.367 350.732C313.367 349.492 312.711 348.487 311.903 348.487C311.094 348.487 310.439 349.492 310.439 350.732C310.439 351.972 311.094 352.978 311.903 352.978Z" fill="#B25618"/>
<path d="M365.625 352.978C366.434 352.978 367.09 351.972 367.09 350.732C367.09 349.492 366.434 348.487 365.625 348.487C364.817 348.487 364.161 349.492 364.161 350.732C364.161 351.972 364.817 352.978 365.625 352.978Z" fill="#B25618"/>
<path d="M297.017 258.13C297.017 258.13 316.386 240.556 329.163 245.915C345.982 252.97 385.753 251.004 395.787 249.184C405.821 247.365 484.203 252.8 510.816 257.948L297.017 258.13Z" fill="#D3671E"/>
<path d="M510.816 341.186V370.786H381.857V257.948H403.492L403.916 258.129C403.916 258.13 415.494 334.67 510.816 341.186Z" fill="#E78B37"/>
<path d="M157.688 91.804V170.876H57.2835V130.836C56.1647 131.65 55.0485 132.478 53.9383 133.321V174.163H161.031V91.2233C159.915 91.4118 158.802 91.6035 157.688 91.804Z" fill="#BDD8FF"/>
<path d="M154.178 92.4379V167.41H60.5664V128.505C89.4268 108.48 121.03 98.577 154.178 92.4379Z" fill="#BDD8FF"/>
<path d="M504.344 0.0212402V36.8301H429.413V13.9331C428.578 14.26 427.746 14.5975 426.915 14.9385V39.2807H506.835V0.0830064C506.007 0.0575904 505.176 0.0360395 504.344 0.0212402Z" fill="#BDD8FF"/>
<path d="M501.724 0.000806748V34.2427H431.86V12.9868C455.808 3.8708 479.476 -0.0648246 501.724 0.000806748Z" fill="#BDD8FF"/>
<path d="M195.559 211.874C191.455 195.707 165.886 200.759 165.886 200.759C165.886 200.759 148.524 229.052 143.473 229.726C138.422 230.4 153.89 202.443 153.89 202.443C144.104 201.432 119.166 214.232 119.166 214.232C119.166 214.232 120.744 247.241 115.694 246.567C110.643 245.894 115.694 217.264 115.694 217.264C106.223 220.295 97.3846 232.083 97.3846 232.083C86.3364 251.283 110.012 265.429 110.012 265.429C110.012 265.429 110.327 276.881 103.698 290.018C103.698 290.018 95.3652 303.523 98.0373 320.988H90.7054C92.1107 308.42 86.227 298.883 86.227 298.883C81.1981 288.918 81.4375 280.23 81.4375 280.23C81.4375 280.23 99.3985 269.499 91.0165 254.933C91.0165 254.933 84.3111 245.99 77.1269 243.69C77.1269 243.69 80.9587 265.41 77.1269 265.921C73.2957 266.432 74.4927 241.391 74.4927 241.391C74.4927 241.391 55.5742 231.681 48.1502 232.448C48.1502 232.448 59.8845 253.656 56.053 253.145C52.2215 252.634 39.0504 231.17 39.0504 231.17C39.0504 231.17 19.6527 227.337 16.5397 239.602C13.4268 251.868 18.4557 258 21.3292 258.767C24.2028 259.533 42.6425 259.278 42.1637 261.833C41.6845 264.388 29.2317 268.476 22.2868 266.177C22.2868 266.177 29.9502 286.363 40.008 285.341C50.0661 284.318 53.1791 277.675 59.4057 277.164C65.632 276.653 70.1821 278.442 67.0688 280.23C63.9555 282.019 53.4185 280.816 48.3896 285.378C43.3607 289.94 39.2895 292.751 48.629 294.795C57.9686 296.839 74.7318 295.562 78.0848 287.896C78.2312 287.56 78.3698 287.245 78.5037 286.938C78.3013 287.571 78.0848 287.896 78.0848 287.896C79.8079 288.969 82.3912 294.082 84.1847 298.006C84.4395 298.674 84.8443 299.598 85.4453 300.852C85.4453 300.853 85.4453 300.853 85.4453 300.853C85.6886 301.42 85.8835 301.884 86.0178 302.208C88.086 307.73 88.1669 315.772 87.9409 320.989H80.0106H68.4892H61.3121V322.507H62.8606C63.3817 340.957 73.3671 356.866 87.8138 364.899H69.8644C66.8169 364.899 64.3465 367.535 64.3465 370.786H153.857C153.857 367.535 151.386 364.899 148.339 364.899H130.613C145.06 356.866 155.046 340.957 155.566 322.507H156.645V320.989H107.215C108.338 318.359 109.708 315.779 111.309 313.877C111.504 313.662 111.786 313.354 112.135 312.978C112.946 312.178 113.51 311.578 113.893 311.13C116.38 308.58 119.823 305.325 121.48 305.01C121.48 305.01 121.397 304.686 121.41 304.122C121.432 304.407 121.456 304.699 121.48 305.01C122.048 312.114 134.963 318.318 142.909 319.593C150.855 320.869 148.399 317.384 145.66 312.217C142.923 307.049 134.258 304.737 132.282 302.357C130.305 299.978 134.392 299.972 139.179 302.305C143.967 304.638 144.622 310.859 152.302 314.783C159.982 318.708 171.537 305.11 171.537 305.11C165.417 304.778 156.676 297.686 156.993 295.516C157.309 293.346 171.83 299.26 174.312 299.544C176.794 299.828 182.442 296.534 183.316 285.864C184.19 275.196 167.799 272.219 167.799 272.219C167.799 272.219 164.02 275.218 159.751 278.236C158.909 277.071 157.54 275.781 155.941 274.341C157.351 273.011 158.617 271.865 159.407 271.159C160.982 271.618 162.704 271.971 164.622 272.167C177.881 273.514 187.982 246.905 187.982 246.905C178.827 249.936 162.412 244.547 161.781 241.179C161.15 237.81 185.457 238.147 189.245 237.137C193.034 236.126 199.663 228.042 195.559 211.874ZM128.218 287.92C127.464 287.505 127.515 286.112 128 284.28C129.046 284.533 130.121 284.751 131.214 284.937C130.11 287.054 129.043 288.374 128.218 287.92ZM112.049 311.181C112.049 311.181 107.701 314.618 104.668 320.989H101.532C101.144 314.298 100.992 302.362 103.974 294.4C104.151 293.973 104.408 293.361 104.729 292.613C105.521 290.959 106.054 289.741 106.39 288.862C108.754 283.689 112.16 276.948 114.431 275.534C114.431 275.534 114.146 275.105 113.878 274.27C114.055 274.675 114.238 275.092 114.431 275.534C114.994 276.823 115.847 277.973 116.928 278.996C112.612 287.57 120.914 297.906 120.914 297.906C120.914 297.906 118.74 304.854 112.049 311.181ZM146.917 268.773C140.13 266.775 131.943 267.148 128.952 265.43C124.848 263.072 130.846 260.714 139.054 261.388C144.574 261.841 148.242 265.95 154.084 269.003C151.809 268.79 149.299 268.739 146.917 268.773Z" fill="#C3DAFC"/>
<path d="M604.858 247.514C604.111 248.766 604.362 250.272 605.418 250.88C606.474 251.487 607.934 250.965 608.68 249.714C609.426 248.462 609.88 243.397 609.88 243.397C609.88 243.397 605.604 246.263 604.858 247.514Z" fill="#D2E4FF"/>
<path d="M611.784 207.732C611.198 208.714 611.395 209.897 612.223 210.373C613.052 210.85 614.198 210.44 614.784 209.458C615.369 208.476 615.725 204.501 615.725 204.501C615.725 204.501 612.37 206.75 611.784 207.732Z" fill="#D2E4FF"/>
<path d="M614.563 184.144C613.977 185.127 614.173 186.309 615.002 186.786C615.83 187.263 616.976 186.853 617.562 185.871C618.147 184.889 618.504 180.914 618.504 180.914C618.504 180.914 615.148 183.162 614.563 184.144Z" fill="#D2E4FF"/>
<path d="M587.679 217.91C587.093 218.892 587.29 220.075 588.118 220.551C588.946 221.028 590.093 220.618 590.678 219.636C591.264 218.654 591.62 214.679 591.62 214.679C591.62 214.679 588.264 216.928 587.679 217.91Z" fill="#D2E4FF"/>
<path d="M614.812 136.572C615.678 135.12 616.204 129.245 616.204 129.245C616.204 129.245 611.244 132.569 610.378 134.021C609.512 135.472 609.803 137.22 611.028 137.925C612.252 138.629 613.947 138.023 614.812 136.572Z" fill="#D2E4FF"/>
<path d="M587.447 99.7893C586.581 101.241 586.872 102.99 588.096 103.694C589.321 104.399 591.015 103.793 591.881 102.342C592.747 100.89 593.273 95.0137 593.273 95.0137C593.273 95.0137 588.312 98.338 587.447 99.7893Z" fill="#D2E4FF"/>
<path d="M577.908 169.764C577.042 171.216 577.333 172.964 578.558 173.668C579.782 174.373 581.477 173.767 582.342 172.316C583.208 170.864 583.734 164.989 583.734 164.989C583.734 164.989 578.774 168.312 577.908 169.764Z" fill="#D2E4FF"/>
<path d="M188.048 289.894C188.048 289.894 174.436 274.294 187.209 264.385C187.209 264.385 196.539 258.836 204.147 259.287C204.147 259.287 193.367 277.044 196.854 278.81C200.341 280.576 207.414 258.173 207.414 258.173C207.414 258.173 228.645 256.151 235.475 259.376C235.475 259.376 217.325 273.967 221.148 274.835C224.97 275.704 244.575 261.383 244.575 261.383C244.575 261.383 264.335 264.687 263.282 276.528C262.228 288.369 255.419 292.026 252.427 291.711C249.434 291.396 231.928 284.832 231.547 287.241C231.166 289.65 241.704 297.521 249.082 297.89C249.082 297.89 235.151 312.983 225.892 308.627C216.633 304.271 215.842 297.366 210.07 294.776C204.298 292.187 199.371 292.193 201.754 294.835C204.137 297.476 214.583 300.043 217.884 305.778C221.184 311.513 224.146 315.382 214.566 313.966C204.987 312.549 189.415 305.664 188.732 297.779C188.048 289.894 188.048 289.894 188.048 289.894Z" fill="#6A9AD3"/>
<path d="M253.572 276.848C253.572 276.848 199.901 274.816 188.048 289.894C188.048 289.894 185.427 297.606 177.361 304.629L176.103 307.995C176.103 307.995 185.404 298.362 188.732 297.779C188.732 297.779 183.527 279.098 253.572 276.848Z" fill="#5588BC"/>
<path d="M177.361 304.629C177.361 304.629 165.84 312.998 165.04 327.952L167.131 328.136C167.131 328.136 170.81 312.673 177.461 306.627C184.111 300.58 177.361 304.629 177.361 304.629Z" fill="#5588BC"/>
<path d="M140.455 270.275C140.455 270.275 162.108 258.363 152.003 242.198C152.003 242.198 143.919 232.271 135.258 229.718C135.258 229.718 139.877 253.826 135.258 254.393C130.638 254.96 132.082 227.166 132.082 227.166C132.082 227.166 109.273 216.388 100.323 217.239C100.323 217.239 114.47 240.779 109.851 240.212C105.231 239.645 89.3518 215.821 89.3518 215.821C89.3518 215.821 65.9657 211.567 62.2125 225.181C58.4592 238.794 64.5224 245.601 67.9868 246.452C71.4515 247.303 93.6828 247.019 93.105 249.855C92.5276 252.691 77.5143 257.229 69.1416 254.677C69.1416 254.677 78.3806 277.082 90.5066 275.948C102.633 274.813 106.386 267.439 113.893 266.872C121.399 266.305 126.885 268.29 123.131 270.275C119.378 272.261 106.675 270.925 100.612 275.989C94.5484 281.053 89.6403 284.172 100.9 286.442C112.16 288.71 132.37 287.292 136.412 278.784C140.455 270.275 140.455 270.275 140.455 270.275Z" fill="#77A4E5"/>
<path d="M72.8951 229.435C72.8951 229.435 133.526 248.72 140.455 270.275C140.455 270.275 140.166 279.918 146.229 290.979V295.233C146.229 295.233 139.877 280.769 136.413 278.784C136.413 278.784 149.982 260.065 72.8951 229.435Z" fill="#6A9AD3"/>
<path d="M146.229 290.979C146.229 290.979 155.579 304.927 150.248 321.905L147.843 321.27C147.843 321.27 150.178 302.57 145.286 293.164C140.394 283.759 146.229 290.979 146.229 290.979Z" fill="#6A9AD3"/>
<path d="M174.904 253.847C174.904 253.847 146.361 238.145 159.681 216.835C159.681 216.835 170.337 203.75 181.754 200.385C181.754 200.385 175.665 232.163 181.754 232.911C187.843 233.659 185.94 197.021 185.94 197.021C185.94 197.021 216.007 182.815 227.804 183.936C227.804 183.936 209.156 214.966 215.245 214.218C221.335 213.471 242.267 182.067 242.267 182.067C242.267 182.067 273.094 176.458 278.041 194.404C282.988 212.349 274.996 221.322 270.43 222.443C265.863 223.565 236.558 223.191 237.319 226.929C238.08 230.668 257.87 236.649 268.907 233.285C268.907 233.285 256.729 262.82 240.744 261.324C224.759 259.829 219.812 250.109 209.917 249.361C200.022 248.613 192.791 251.23 197.738 253.847C202.686 256.464 219.431 254.704 227.424 261.379C235.416 268.053 241.886 272.165 227.043 275.157C212.201 278.147 185.56 276.278 180.232 265.062C174.904 253.847 174.904 253.847 174.904 253.847Z" fill="#9FC1F4"/>
<path d="M263.96 200.011C263.96 200.011 184.038 225.434 174.904 253.847C174.904 253.847 175.285 266.558 167.293 281.139V286.747C167.293 286.747 175.665 267.68 180.233 265.063C180.232 265.063 162.345 240.388 263.96 200.011Z" fill="#9FC1F4"/>
<path d="M167.293 281.139C167.293 281.139 154.967 299.525 161.994 321.906L165.164 321.069C165.164 321.069 162.087 296.418 168.536 284.019C174.984 271.622 167.293 281.139 167.293 281.139Z" fill="#9FC1F4"/>
<path d="M173.942 370.439C204.822 370.439 229.855 345.849 229.855 315.515H118.03C118.03 345.849 143.063 370.439 173.942 370.439Z" fill="#77A4E5"/>
<path d="M187.701 370.019C185.427 370.298 183.108 370.44 180.754 370.44C149.875 370.44 124.844 345.848 124.844 315.515H138.735C138.735 343.539 160.099 366.659 187.701 370.019Z" fill="#AFCDFB"/>
<path d="M231.126 315.515H116.191V317.199H231.126V315.515Z" fill="#77A4E5"/>
<path d="M227.765 370.787H119.85C119.85 367.177 122.828 364.252 126.502 364.252H221.112C224.787 364.252 227.765 367.177 227.765 370.787Z" fill="#77A4E5"/>
<path d="M623.032 55.6474C615.955 57.9857 610.049 60.8683 606.575 64.4005C591.057 80.1929 561.376 78.1596 561.376 78.1596V10.4017C588.81 20.4147 610.622 36.7913 623.032 55.6474Z" fill="#9FC1F4"/>
<path d="M561.376 350.731V10.4017C556.945 8.78245 552.37 7.33406 547.662 6.06358C543.807 5.02152 539.863 4.10687 535.839 3.31897V350.731V370.786H561.376H798.855C801.39 365.914 803.508 360.817 805.223 355.549C805.744 353.959 806.224 352.351 806.668 350.731H561.376V350.731Z" fill="#BDD8FF"/>
<path d="M540.422 277.266C540.422 277.266 515.608 273.812 514.167 269.878C514.167 269.878 515.89 266.321 513.166 265.393C512.435 265.143 511.208 264.684 510.662 265.365L510.696 272.62C510.696 272.62 513.37 275.181 514.871 277.246C515.698 278.386 531.732 284.98 531.732 284.98L540.422 277.266Z" fill="#163560"/>
<path d="M591.551 330.488C593.903 327.149 591.459 303.558 574.52 310.721C570.923 311.789 566.593 314.345 561.409 319.011C561.409 319.011 553.967 336.235 583.313 347.629C583.313 347.629 586.221 348.864 586.634 351.489C587.048 354.115 587.512 365.969 586.515 366.327C585.52 366.685 584.046 365.326 582.972 366.821C581.898 368.317 582.276 370.786 582.276 370.786H592.939C592.939 370.786 598.036 344.184 597.749 342.068C597.462 339.952 588.76 334.45 591.551 330.488Z" fill="#163560"/>
<path d="M549.715 234.068C549.715 234.068 555.359 245.694 552.243 249.181L543.474 242.263C543.474 242.262 543.431 238.839 549.715 234.068Z" fill="#233862"/>
<path d="M610.18 296.675C607.878 292.574 604.427 285.718 608.98 282.92C612.861 280.534 611.374 275.563 609.13 274.373C604.404 271.868 599.603 275.036 597.353 278.131C593.072 284.02 598.759 293.224 598.759 293.224C604.135 304.595 593.067 310.515 587.73 312.627C584.684 308.175 581.542 304.833 578.742 302.225C576.904 300.512 575.216 299.116 573.8 297.929C558.777 285.314 562.415 280.7 558.849 275.029C558.148 273.905 555.384 270.851 554.65 269.873C553.923 268.903 553.66 265.452 553.573 262.414C555.261 261.001 555.448 259.418 555.448 259.418C555.608 260.061 555.434 260.717 555.434 260.717C557.185 259.322 556.788 256.108 556.788 256.108C557.175 256.574 557.328 257.569 557.328 257.569C558.208 252.567 555.074 248.488 555.05 248.458C555.603 243.76 551.637 235.589 551.637 235.589C551.637 235.589 551.92 241.647 552.519 244.736C551.533 243.73 550.362 242.868 549.018 242.213C545.885 240.685 541.604 239.246 537.072 243.614C536.044 244.606 532.995 245.409 531.557 245.227C530.764 245.127 528.961 249.026 528.889 249.559C528.102 255.456 530.009 258.374 533.439 261.392C533.92 262.721 534.289 264.508 533.446 265.71C533.446 265.71 534.17 265.42 534.258 265.191C534.198 265.506 533.805 267.36 532.773 268.191C532.773 268.191 533.237 268.138 533.471 268.03C532.571 269.152 529.15 273.796 529.196 279.518C522 279.577 515.155 279.144 514.491 277.333C514.491 277.333 516.043 274.349 513.491 272.848C512.827 272.457 511.701 272.184 510.693 272.212L510.568 280.358C510.568 280.358 513.695 282.636 515.195 284.701C515.71 285.41 525.78 289.875 533.312 293.146C537.698 311.819 551.782 322.614 556.443 325.743C557.116 331.448 560.564 338.869 570.452 347.515C570.452 347.515 572.75 349.657 572.22 352.262C571.689 354.867 567.977 366.155 566.916 366.155C565.856 366.155 562.32 364.65 560.788 365.692C559.256 366.734 561.377 370.786 561.377 370.786H563.56H569.981H572.163C572.163 370.786 585.482 349.252 585.953 347.168C586.424 345.084 580.178 336.979 584.185 334.201C585.903 333.009 588.288 326.475 587.793 320.476C593.055 318.671 617.387 309.512 610.18 296.675Z" fill="#2B478B"/>
<path d="M545.394 243.785L554.168 250.702C554.668 250.139 554.942 249.364 555.05 248.458C555.603 243.76 551.637 235.588 551.637 235.588C545.352 240.357 545.394 243.785 545.394 243.785Z" fill="#2B478B"/>
<path d="M531.301 245.26C531.301 245.26 531.788 244.928 532.309 245.184C532.309 245.184 532.175 247.145 530.22 247.265C530.22 247.265 530.782 245.564 531.301 245.26Z" fill="#163560"/>
<path d="M534.887 249.66C534.961 249.684 542.277 252.363 547.519 258.275C542.186 252.256 535.042 249.449 534.966 249.425L534.887 249.66Z" fill="#163560"/>
<path d="M534.206 250.168C534.284 250.216 541.951 255.34 546.295 263.617C541.877 255.192 534.444 249.968 534.364 249.919L534.206 250.168Z" fill="#163560"/>
<path d="M533.417 250.78C533.473 250.834 538.864 256.38 540.955 263.947C538.83 256.246 533.65 250.657 533.592 250.603L533.417 250.78Z" fill="#163560"/>
</svg>
