<svg width="382" height="175" viewBox="0 0 382 175" fill="none" xmlns="http://www.w3.org/2000/svg">
<path d="M381.999 150.413C382.01 152.47 381.895 154.522 381.649 156.551C381.242 159.934 380.474 163.251 379.325 166.429C378.517 168.669 377.52 170.838 376.326 172.909C375.983 173.506 375.622 174.093 375.246 174.671H11.7141C11.7141 174.671 -21.3942 100.189 23.7111 64.1307C24.2752 63.6809 24.8409 63.2379 25.4085 62.8053C25.9326 62.4084 26.4584 62.0186 26.9859 61.6355C27.4978 61.2608 28.015 60.8968 28.532 60.5376C42.1273 51.1039 57.0145 46.4384 72.6311 43.5465C73.1811 43.4439 73.7314 43.3448 74.2851 43.2472C74.8091 43.1532 75.3332 43.0624 75.8588 42.9735C88.5193 40.8291 101.627 39.7 114.89 38.0241C119.505 37.4392 124.141 36.7895 128.783 36.0061C147.357 32.8748 166.033 27.6176 184.012 16.0069C189.689 12.3401 195.412 9.37461 201.112 7.03851C201.503 6.87771 201.895 6.71873 202.289 6.5649C202.674 6.41273 203.057 6.26391 203.441 6.11856C214.723 1.82419 225.872 -0.0296573 236.353 0.00110881C236.765 0.00110881 237.176 0.00444558 237.587 0.0112657C237.979 0.0180857 238.371 0.0283895 238.76 0.0403625C242.087 0.141148 245.34 0.433805 248.503 0.895448C249.828 1.08868 251.135 1.31102 252.424 1.56412C254.319 1.93513 256.177 2.36616 257.993 2.85705C281.336 9.15061 297.861 24.9547 298.809 41.2994C299.448 52.3165 300.778 62.9011 303.723 72.085C305.088 76.3366 306.8 80.2906 308.95 83.8462C309.535 84.8158 310.153 85.7532 310.804 86.6612C317.233 95.6058 327.002 101.499 341.891 102.479C352.239 103.162 360.958 107.716 367.593 114.456C367.654 114.519 367.717 114.58 367.779 114.645C376.816 123.935 381.942 137.3 381.999 150.413Z" fill="#D2E4FF"/>
<path d="M188.382 127.878C187.989 124.963 183.401 124.003 182.364 123.271C181.744 122.833 180.304 120.898 179.306 119.489C179.45 119.392 179.529 119.336 179.529 119.336C176.624 110.561 174.228 103.376 172.253 97.4901C172.487 97.0483 172.71 96.3743 172.889 95.3619C173.602 91.3161 170.013 89.781 170.013 89.781C169.995 89.7711 169.975 89.7607 169.956 89.7505C172.095 72.0664 166.948 70.8639 166.948 70.8639C166.948 70.8639 165.093 70.2431 162.862 70.5266C162.103 68.73 160.584 67.6258 158.076 67.4865C157.323 67.4448 156.5 67.6086 155.621 67.9495C155.738 67.7476 155.853 67.5448 155.966 67.3414C156.488 66.9865 160.889 63.8767 160.509 60.1381C160.434 59.3964 160.275 58.8364 160.063 58.4161C160.003 58.1134 159.924 57.8293 159.835 57.5648C160.226 55.6847 160.249 54.1593 159.805 53.2859C158.994 51.6921 157.479 50.5789 156.337 49.9201C156.816 49.8195 157.443 50.0809 157.443 50.0809C156.83 49.5333 154.858 49.1963 154.858 49.1963C147.833 39.3772 137 52.0946 135.028 55.408C133.054 58.7201 130.58 62.3989 123.905 62.1406C110.772 61.6324 109.937 74.608 112.624 81.2519C112.662 81.3453 119.1 92.5449 119.1 92.5449C119.222 92.3255 119.423 92.0481 119.693 91.725C119.251 96.3984 119.041 100.228 118.312 101.303C116.784 103.554 109.573 116.956 115.811 123.212C110.89 121.625 103.93 127.565 103.09 128.304H103.005V174.67H161.573V174.67H190.857V162.507V128.305C190.123 128.162 189.293 128.02 188.382 127.878ZM149.05 119.737C149.638 118.865 151.803 114.892 154.455 109.572C154.376 114.916 154.343 118.789 154.343 118.789C154.261 119.54 154.536 120.101 155.03 120.519C154.728 121.202 154.351 121.864 154.055 122.508C153.724 123.227 153.585 124.035 153.537 124.751C148.585 124.523 144.827 124.479 143.591 124.704C143.373 124.743 143.119 124.783 142.836 124.822C145.78 123.454 147.83 121.54 149.05 119.737ZM169.312 125.793C168.207 123.813 164.439 123.99 163.573 123.271C162.911 122.722 162.467 122.148 162.172 121.582C162.436 121.559 162.59 121.541 162.59 121.541C163.716 117.841 164.694 114.412 165.542 111.232C168.775 116.572 171.449 120.516 171.449 120.516C171.778 121.304 172.365 121.68 173.077 121.79C173.035 122.022 172.96 122.26 172.846 122.509C172.285 123.729 172.274 125.21 172.327 126.051C171.327 125.962 170.32 125.876 169.312 125.793Z" fill="#C3DAFC"/>
<path d="M381.999 150.412C381.985 152.47 381.87 154.52 381.649 156.55C381.329 159.499 380.784 162.404 380.006 165.223C379.797 165.986 379.571 166.743 379.325 167.492C378.517 169.974 377.52 172.375 376.326 174.67H252.424V1.56348C254.319 1.93449 256.177 2.36552 257.993 2.85641C260.211 3.45491 262.366 4.13737 264.454 4.9C277.377 9.61676 287.652 17.3316 293.499 26.2144C296.646 30.9981 298.509 36.12 298.809 41.2986C299.448 52.3157 300.778 62.9003 303.723 72.0842C305.088 76.3358 306.8 80.2898 308.95 83.8454C309.535 84.815 310.153 85.7524 310.804 86.6604C317.233 95.605 327.002 101.498 341.891 102.478C352.239 103.161 360.958 107.715 367.593 114.455C367.654 114.518 367.717 114.58 367.779 114.645C376.816 123.935 381.942 137.3 381.999 150.412Z" fill="#EBF3FA"/>
<path d="M237.812 121.112L219.469 119.699C219.469 119.699 219.029 116.953 219.987 114.87C220.905 112.87 219.642 111.424 218.385 109.043C219.551 110.222 223.565 110.048 226.217 109.698C226.542 110.215 229.813 114.978 230.899 115.744C232.097 116.59 237.443 117.702 237.812 121.112Z" fill="#233862"/>
<path d="M216.269 119.699H197.925C197.925 119.699 197.486 116.953 198.444 114.87C199.362 112.871 200.962 110.725 199.705 108.344C200.871 109.522 204.552 109.393 207.204 109.043C207.529 109.56 205.977 112.942 209.355 115.744C210.483 116.68 215.9 116.289 216.269 119.699Z" fill="#233862"/>
<path d="M213.225 55.6621C213.225 55.6621 204.49 52.7354 201.137 61.4531C185.14 74.1829 162.262 106.692 160.331 108.964C156.464 113.515 159.452 119.851 175.267 119.699C184.512 119.611 190.171 115.441 192.706 111.692C193.381 110.693 195.862 106.138 198.902 100.039C198.812 106.165 198.774 110.605 198.774 110.605C198.299 114.947 208.229 113.76 208.229 113.76C225.069 58.4261 213.225 55.6621 213.225 55.6621Z" fill="#163560"/>
<path d="M205.036 35.5097C204.107 33.6828 202.37 32.4065 201.061 31.651C201.609 31.5357 202.328 31.8358 202.328 31.8358C201.626 31.2079 199.365 30.8216 199.365 30.8216C191.312 19.5647 178.892 34.1445 176.631 37.9431C174.369 41.74 171.531 45.9574 163.879 45.6616C148.823 45.0792 148.844 59.6402 150.946 67.5716C152.057 71.7649 158.809 81.5702 158.809 81.5702C160.546 78.4417 175.736 64.1129 186.14 64.2099C189.634 62.8241 193.324 58.7426 193.612 58.4198C190.878 61.7826 188.894 63.3725 187.572 64.1325C197.463 62.629 207.5 40.3518 205.036 35.5097Z" fill="#B5453C"/>
<path d="M186.762 64.2071C186.79 64.2448 185.402 69.2894 181.231 67.0768C178.494 65.6243 174.1 59.4282 175.793 57.3288C176.598 56.3307 180.143 54.4347 183.834 48.0135L184.277 48.3896L191.728 54.7203C191.728 54.7203 190.032 57.2093 188.608 59.6516C187.412 61.7017 186.41 63.7199 186.762 64.2071Z" fill="#F4A269"/>
<path d="M184.004 46.8028C184.004 46.8028 184.142 41.5993 185.709 38.1032C186.827 35.6071 193.624 28.1008 201.27 34.8596C201.27 34.8596 203.564 36.7145 204.828 39.7666C205.833 42.1939 206.689 46.5688 198.803 51.8326L196.371 53.763L184.004 46.8028Z" fill="#B5453C"/>
<path d="M173.989 54.5784C173.989 54.5784 176.726 55.0909 177.883 53.5676C179.04 52.044 181.56 48.8213 182.149 50.6708C182.737 52.5204 188.295 57.8972 189.58 58.0383C190.865 58.1795 191.766 58.5328 191.039 59.1875C190.312 59.8424 190.615 62.4616 189.888 62.6999C189.16 62.938 175.664 54.4341 173.989 54.5784Z" fill="#F99746"/>
<path d="M191.199 58.2544C191.199 58.2544 180.453 51.4299 184.883 44.9218C189.312 38.414 190.908 33.1502 197.956 37.2324C205.004 41.3144 204.633 44.6641 203.693 47.1897C202.752 49.7151 194.108 59.8617 191.199 58.2544Z" fill="#FFB27D"/>
<path d="M191.728 63.533C191.728 63.533 173.532 50.3612 167.163 55.3226C157.77 62.6401 159.649 87.3446 157.467 90.5591C155.285 93.7737 142.992 116.825 162.986 119.169C182.979 121.514 187.585 109.132 188.494 99.8456C189.403 90.5591 191.728 63.533 191.728 63.533Z" fill="#F99746"/>
<path d="M167.785 63.3675C167.785 63.3675 162.545 91.8214 172.929 99.5948C183.312 107.368 188.539 62.4876 167.785 63.3675Z" fill="#ED7D2B"/>
<path d="M178.236 58.8207C178.236 58.8207 178.435 55.4962 181.421 56.7673C184.407 58.0384 189.932 59.9453 192.072 59.163C194.212 58.3806 188.63 68.8919 183.532 65.3721C178.435 61.8517 178.236 58.8207 178.236 58.8207Z" fill="#ED7D2B"/>
<path d="M202.906 40.2596C202.906 40.2596 194.79 45.9731 189.555 44.1614C184.32 42.3494 183.185 39.8989 183.185 39.8989C183.185 39.8989 188.434 39.4809 192.328 35.2827C192.328 35.2827 203.188 35.1832 202.906 40.2596Z" fill="#B5453C"/>
<path d="M216.739 77.3499C216.739 77.3499 220.854 79.1096 220.036 83.748C219.218 88.3864 217.582 86.8323 217.582 86.8323L216.739 77.3499Z" fill="#FFB27D"/>
<path d="M201.762 40.4043C201.762 40.4043 202.773 43.5383 202.173 45.5431C201.573 47.5479 199.485 51.1138 200.576 51.6638C200.576 51.6638 206.306 47.9214 205.844 43.3657C205.353 38.5353 201.762 40.4043 201.762 40.4043Z" fill="#B5453C"/>
<path d="M208.693 55.662C208.693 55.662 208.692 55.6643 208.692 55.6652C207.881 53.3758 206.106 51.9598 203.054 51.7904C189.717 51.0496 157.653 106.104 155.223 108.964C151.356 113.515 154.344 119.851 170.159 119.699C179.404 119.611 183.051 115.263 185.585 111.513C186.745 109.797 195.153 96.6767 201.616 83.1677C207.034 95.8486 218.385 112.585 218.385 112.585C220.072 116.625 227.648 111.232 227.648 111.232C209.491 56.393 208.693 55.662 208.693 55.662Z" fill="#1C468A"/>
<path d="M166.28 57.3349C166.28 57.3349 161.487 64.6073 176.392 71.2805C191.298 77.9534 193.053 79.5819 195.96 80.1777C200.489 81.1058 217.885 80.9752 217.885 80.9752C217.885 80.9752 218.341 78.265 216.739 77.3499C214.174 75.8842 199.357 73.5048 197.359 72.7197C195.361 71.9346 174.071 49.4545 166.28 57.3349Z" fill="#ED985F"/>
<path d="M170.51 54.2164C170.51 54.2164 178.124 54.5183 194.006 68.8919C194.006 68.8919 196.437 71.791 197.646 71.9842C198.855 72.1776 202.13 73.023 202.202 73.842C202.274 74.6609 198.168 84.9277 192.943 85.2212C187.717 85.5145 162.548 67.2267 164.265 61.2864C165.983 55.3464 170.51 54.2164 170.51 54.2164Z" fill="#F99746"/>
<path d="M207.063 121.514H139.919V174.67H207.063V121.514Z" fill="#C6601A"/>
<path d="M240.636 121.515H179.886V174.67H240.636V121.515Z" fill="#F1A34F"/>
<path d="M191.115 132.796C191.73 132.796 192.229 132.323 192.229 131.738C192.229 131.154 191.73 130.681 191.115 130.681C190.501 130.681 190.002 131.154 190.002 131.738C190.002 132.323 190.501 132.796 191.115 132.796Z" fill="#D3671E"/>
<path d="M231.975 132.796C232.59 132.796 233.088 132.323 233.088 131.738C233.088 131.154 232.59 130.681 231.975 130.681C231.36 130.681 230.861 131.154 230.861 131.738C230.861 132.323 231.36 132.796 231.975 132.796Z" fill="#D3671E"/>
<path d="M191.115 166.281C191.73 166.281 192.229 165.808 192.229 165.223C192.229 164.639 191.73 164.166 191.115 164.166C190.501 164.166 190.002 164.639 190.002 165.223C190.002 165.808 190.501 166.281 191.115 166.281Z" fill="#D3671E"/>
<path d="M231.975 166.281C232.59 166.281 233.088 165.808 233.088 165.223C233.088 164.639 232.59 164.166 231.975 164.166C231.36 164.166 230.861 164.639 230.861 165.223C230.861 165.808 231.36 166.281 231.975 166.281Z" fill="#D3671E"/>
<path d="M146.931 132.796C147.312 132.796 147.621 132.323 147.621 131.738C147.621 131.154 147.312 130.681 146.931 130.681C146.551 130.681 146.242 131.154 146.242 131.738C146.242 132.323 146.551 132.796 146.931 132.796Z" fill="#B25618"/>
<path d="M172.239 132.796C172.62 132.796 172.929 132.323 172.929 131.738C172.929 131.154 172.62 130.681 172.239 130.681C171.858 130.681 171.549 131.154 171.549 131.738C171.549 132.323 171.858 132.796 172.239 132.796Z" fill="#B25618"/>
<path d="M146.931 166.281C147.312 166.281 147.621 165.808 147.621 165.223C147.621 164.639 147.312 164.166 146.931 164.166C146.551 164.166 146.242 164.639 146.242 165.223C146.242 165.808 146.551 166.281 146.931 166.281Z" fill="#B25618"/>
<path d="M172.239 166.281C172.62 166.281 172.929 165.808 172.929 165.223C172.929 164.639 172.62 164.166 172.239 164.166C171.858 164.166 171.549 164.639 171.549 165.223C171.549 165.808 171.858 166.281 172.239 166.281Z" fill="#B25618"/>
<path d="M139.919 121.6C139.919 121.6 149.044 113.322 155.062 115.846C162.986 119.169 181.721 118.243 186.448 117.386C191.174 116.529 228.099 119.09 240.636 121.514L139.919 121.6Z" fill="#D3671E"/>
<path d="M240.636 160.726V174.67H179.886V121.515H190.077L190.277 121.6C190.277 121.6 195.731 157.656 240.636 160.726Z" fill="#E78B37"/>
<path d="M74.2838 43.2471V80.4963H26.9851V61.6343C26.4581 62.0176 25.9323 62.4077 25.4093 62.8049V82.0446H75.8585V42.9735C75.3328 43.0623 74.8084 43.1527 74.2838 43.2471Z" fill="#BDD8FF"/>
<path d="M72.6304 43.5457V78.8635H28.5317V60.536C42.1273 51.1029 57.0149 46.4377 72.6304 43.5457Z" fill="#BDD8FF"/>
<path d="M237.587 0.0100098V17.35H202.288V6.56364C201.895 6.71763 201.503 6.87661 201.111 7.03726V18.5044H238.76V0.0391066C238.37 0.0271336 237.979 0.0169814 237.587 0.0100098Z" fill="#BDD8FF"/>
<path d="M236.352 0.000380044V16.1311H203.441V6.11783C214.723 1.82346 225.872 -0.0305376 236.352 0.000380044Z" fill="#BDD8FF"/>
<path d="M367.908 169.343C367.908 169.343 375.121 131.625 365.827 130.891C356.532 130.157 367.908 169.343 367.908 169.343Z" fill="#9FC1F4"/>
<path d="M366.634 170.23C366.634 170.23 353.043 145.858 345.294 146.757C337.546 147.656 366.634 170.23 366.634 170.23Z" fill="#9FC1F4"/>
<path d="M92.1241 99.81C90.1909 92.1937 78.1457 94.5737 78.1457 94.5737C78.1457 94.5737 69.9667 107.902 67.5874 108.22C65.208 108.537 72.4947 95.3671 72.4947 95.3671C67.8848 94.891 56.1369 100.921 56.1369 100.921C56.1369 100.921 56.8804 116.471 54.5011 116.153C52.1217 115.836 54.5011 102.349 54.5011 102.349C50.0398 103.777 45.876 109.33 45.876 109.33C40.6715 118.375 51.8244 125.039 51.8244 125.039C51.8244 125.039 51.9732 130.434 48.8503 136.622C48.8503 136.622 44.9247 142.984 46.1835 151.212H42.7296C43.3916 145.291 40.6199 140.798 40.6199 140.798C38.2509 136.104 38.3637 132.011 38.3637 132.011C38.3637 132.011 46.8247 126.956 42.8762 120.094C42.8762 120.094 39.7174 115.881 36.333 114.798C36.333 114.798 38.1381 125.03 36.333 125.27C34.5282 125.511 35.0921 113.715 35.0921 113.715C35.0921 113.715 26.18 109.141 22.6827 109.502C22.6827 109.502 28.2105 119.493 26.4055 119.252C24.6006 119.011 18.3959 108.9 18.3959 108.9C18.3959 108.9 9.25803 107.094 7.79157 112.872C6.32511 118.65 8.69413 121.539 10.0478 121.9C11.4015 122.261 20.0881 122.141 19.8625 123.344C19.6368 124.548 13.7705 126.474 10.4989 125.391C10.4989 125.391 14.109 134.9 18.847 134.419C23.5852 133.937 25.0517 130.807 27.9849 130.567C30.918 130.326 33.0614 131.169 31.5948 132.011C30.1282 132.854 25.1645 132.287 22.7955 134.436C20.4264 136.585 18.5085 137.909 22.9082 138.872C27.3079 139.835 35.2047 139.234 36.7843 135.622C36.8533 135.464 36.9185 135.316 36.9816 135.171C36.8863 135.469 36.7843 135.622 36.7843 135.622C37.596 136.128 38.813 138.537 39.6578 140.385C39.7779 140.7 39.9685 141.135 40.2517 141.726C40.2517 141.726 40.2517 141.726 40.2517 141.726C40.3663 141.993 40.4581 142.212 40.5213 142.364C41.4956 144.966 41.5337 148.754 41.4273 151.212H37.6915H32.264H28.883V151.927H29.6124C29.8579 160.618 34.5618 168.113 41.3674 171.897H32.9118C31.4762 171.897 30.3124 173.139 30.3124 174.67H72.4789C72.4789 173.139 71.3152 171.897 69.8796 171.897H61.5295C68.3349 168.113 73.0391 160.618 73.2843 151.927H73.7923V151.212H50.507C51.036 149.973 51.6816 148.758 52.4357 147.862C52.5275 147.76 52.6605 147.615 52.8246 147.438C53.2065 147.061 53.4725 146.779 53.653 146.568C54.8246 145.366 56.4464 143.833 57.2271 143.685C57.2271 143.685 57.1879 143.532 57.1938 143.266C57.2043 143.4 57.2155 143.538 57.2271 143.685C57.4943 147.031 63.5786 149.953 67.3217 150.554C71.0649 151.155 69.9078 149.514 68.6178 147.079C67.3282 144.645 63.2466 143.556 62.3155 142.435C61.3844 141.314 63.3096 141.311 65.5647 142.41C67.82 143.509 68.1288 146.44 71.7465 148.288C75.3645 150.137 80.8081 143.732 80.8081 143.732C77.9248 143.575 73.8073 140.234 73.9565 139.212C74.1054 138.19 80.9457 140.976 82.115 141.11C83.2843 141.243 85.9448 139.691 86.3565 134.665C86.7683 129.64 79.0469 128.237 79.0469 128.237C79.0469 128.237 77.2668 129.65 75.2556 131.072C74.8592 130.523 74.214 129.915 73.4609 129.237C74.1251 128.61 74.7216 128.071 75.0936 127.738C75.8357 127.954 76.6466 128.121 77.5505 128.213C83.7962 128.847 88.5548 116.312 88.5548 116.312C84.2422 117.74 76.5094 115.201 76.212 113.615C75.9145 112.028 87.3651 112.187 89.1495 111.711C90.9344 111.234 94.0574 107.426 92.1241 99.81ZM60.401 135.634C60.0459 135.438 60.0699 134.782 60.2983 133.919C60.7909 134.038 61.2974 134.141 61.8126 134.229C61.2925 135.226 60.7897 135.847 60.401 135.634ZM52.7842 146.592C52.7842 146.592 50.7361 148.211 49.307 151.212H47.8296C47.6469 148.06 47.5753 142.437 48.9801 138.686C49.0637 138.485 49.1846 138.197 49.3358 137.845C49.7089 137.066 49.9601 136.492 50.1185 136.077C51.2318 133.641 52.8362 130.465 53.9063 129.799C53.9063 129.799 53.7718 129.597 53.6459 129.204C53.7294 129.394 53.8151 129.591 53.9063 129.799C54.1717 130.406 54.5731 130.948 55.0824 131.43C53.0494 135.469 56.9602 140.338 56.9602 140.338C56.9602 140.338 55.9361 143.611 52.7842 146.592ZM69.21 126.614C66.0125 125.673 62.1557 125.849 60.7468 125.039C58.8138 123.928 61.639 122.818 65.5056 123.135C68.1062 123.348 69.8342 125.284 72.5861 126.722C71.5143 126.622 70.3318 126.598 69.21 126.614Z" fill="#C3DAFC"/>
<path d="M325.159 144.728C324.889 145.182 324.98 145.728 325.362 145.948C325.745 146.168 326.274 145.979 326.545 145.525C326.815 145.072 326.98 143.236 326.98 143.236C326.98 143.236 325.43 144.274 325.159 144.728Z" fill="#D2E4FF"/>
<path d="M311.907 136.46C311.636 136.914 311.727 137.46 312.11 137.68C312.492 137.901 313.022 137.711 313.292 137.258C313.563 136.804 313.727 134.968 313.727 134.968C313.727 134.968 312.178 136.007 311.907 136.46Z" fill="#D2E4FF"/>
<path d="M309.914 151.382C309.644 151.835 309.735 152.382 310.117 152.602C310.5 152.822 311.029 152.633 311.3 152.179C311.57 151.725 311.735 149.889 311.735 149.889C311.735 149.889 310.185 150.928 309.914 151.382Z" fill="#D2E4FF"/>
<path d="M347.156 124.412C346.845 124.932 346.95 125.559 347.389 125.811C347.828 126.064 348.435 125.847 348.746 125.326C349.056 124.806 349.245 122.7 349.245 122.7C349.245 122.7 347.467 123.891 347.156 124.412Z" fill="#D2E4FF"/>
<path d="M346.022 137.156C345.712 137.677 345.816 138.303 346.255 138.556C346.694 138.809 347.302 138.591 347.612 138.071C347.922 137.55 348.111 135.444 348.111 135.444C348.111 135.444 346.333 136.636 346.022 137.156Z" fill="#D2E4FF"/>
<path d="M329.131 126.306C328.821 126.826 328.925 127.453 329.364 127.705C329.803 127.958 330.41 127.741 330.721 127.22C331.031 126.7 331.22 124.594 331.22 124.594C331.22 124.594 329.442 125.785 329.131 126.306Z" fill="#D2E4FF"/>
<path d="M311.657 118.601C311.306 119.19 311.424 119.9 311.921 120.187C312.419 120.473 313.107 120.227 313.458 119.637C313.81 119.048 314.024 116.661 314.024 116.661C314.024 116.661 312.009 118.011 311.657 118.601Z" fill="#D2E4FF"/>
<path d="M284.937 116.599C284.585 117.189 284.703 117.898 285.201 118.185C285.698 118.471 286.386 118.225 286.738 117.635C287.089 117.046 287.303 114.66 287.303 114.66C287.303 114.66 285.288 116.01 284.937 116.599Z" fill="#D2E4FF"/>
<path d="M303.021 101.248C302.67 101.838 302.787 102.548 303.285 102.834C303.782 103.12 304.47 102.874 304.822 102.285C305.173 101.695 305.387 99.3088 305.387 99.3088C305.387 99.3088 303.372 100.659 303.021 101.248Z" fill="#D2E4FF"/>
<path d="M288.2 97.8585C287.924 98.3212 288.016 98.8783 288.407 99.1027C288.797 99.3273 289.337 99.1344 289.613 98.6716C289.889 98.209 290.056 96.3364 290.056 96.3364C290.056 96.3364 288.476 97.3958 288.2 97.8585Z" fill="#D2E4FF"/>
<path d="M289.509 86.7468C289.233 87.2096 289.325 87.7666 289.716 87.9912C290.106 88.2158 290.646 88.0227 290.922 87.56C291.197 87.0975 291.365 85.2249 291.365 85.2249C291.365 85.2249 289.784 86.2842 289.509 86.7468Z" fill="#D2E4FF"/>
<path d="M276.844 102.653C276.568 103.116 276.661 103.673 277.051 103.897C277.441 104.122 277.982 103.929 278.257 103.466C278.533 103.004 278.701 101.131 278.701 101.131C278.701 101.131 277.12 102.19 276.844 102.653Z" fill="#D2E4FF"/>
<path d="M289.626 64.3364C290.034 63.6524 290.282 60.8846 290.282 60.8846C290.282 60.8846 287.945 62.4505 287.537 63.1345C287.13 63.8183 287.267 64.6417 287.843 64.9738C288.42 65.3056 289.219 65.0202 289.626 64.3364Z" fill="#D2E4FF"/>
<path d="M276.735 47.0089C276.327 47.6929 276.464 48.5164 277.041 48.8483C277.618 49.1803 278.416 48.895 278.824 48.2112C279.232 47.5272 279.479 44.7592 279.479 44.7592C279.479 44.7592 277.143 46.3252 276.735 47.0089Z" fill="#D2E4FF"/>
<path d="M272.241 79.9725C271.834 80.6564 271.971 81.4799 272.547 81.8118C273.124 82.1437 273.922 81.8584 274.33 81.1746C274.738 80.4906 274.986 77.7229 274.986 77.7229C274.986 77.7229 272.649 79.2886 272.241 79.9725Z" fill="#D2E4FF"/>
<path d="M88.5859 136.564C88.5859 136.564 82.1735 129.215 88.1907 124.547C88.1907 124.547 92.5857 121.933 96.1696 122.145C96.1696 122.145 91.0915 130.51 92.7341 131.342C94.3769 132.174 97.7087 121.62 97.7087 121.62C97.7087 121.62 107.71 120.668 110.928 122.187C110.928 122.187 102.378 129.061 104.178 129.47C105.979 129.879 115.215 123.133 115.215 123.133C115.215 123.133 124.523 124.689 124.027 130.267C123.531 135.845 120.323 137.568 118.914 137.42C117.504 137.271 109.257 134.179 109.078 135.314C108.898 136.448 113.862 140.157 117.338 140.33C117.338 140.33 110.775 147.44 106.413 145.388C102.051 143.336 101.679 140.083 98.9601 138.864C96.241 137.644 93.9201 137.647 95.0427 138.891C96.1651 140.135 101.086 141.344 102.641 144.046C104.196 146.748 105.591 148.57 101.078 147.903C96.5653 147.236 89.2297 143.992 88.9079 140.278C88.5859 136.564 88.5859 136.564 88.5859 136.564Z" fill="#6A9AD3"/>
<path d="M119.453 130.418C119.453 130.418 94.1696 129.461 88.5859 136.564C88.5859 136.564 87.3511 140.197 83.5512 143.505L82.9589 145.091C82.9589 145.091 87.3401 140.553 88.9079 140.278C88.9079 140.278 86.4562 131.478 119.453 130.418Z" fill="#5588BC"/>
<path d="M83.5512 143.505C83.5512 143.505 78.1241 147.448 77.7474 154.492L78.7323 154.579C78.7323 154.579 80.4654 147.295 83.5984 144.446C86.7311 141.598 83.5512 143.505 83.5512 143.505Z" fill="#5588BC"/>
<path d="M66.1655 127.321C66.1655 127.321 76.3661 121.71 71.6058 114.095C71.6058 114.095 67.7975 109.418 63.7173 108.216C63.7173 108.216 65.8933 119.572 63.7173 119.84C61.5413 120.107 62.2212 107.013 62.2212 107.013C62.2212 107.013 51.4765 101.936 47.2603 102.337C47.2603 102.337 53.9247 113.427 51.7487 113.159C49.5725 112.892 42.092 101.669 42.092 101.669C42.092 101.669 31.0752 99.6651 29.3071 106.078C27.5391 112.491 30.3953 115.698 32.0273 116.099C33.6595 116.5 44.1322 116.366 43.86 117.702C43.588 119.038 36.5156 121.176 32.5713 119.973C32.5713 119.973 36.9236 130.528 42.636 129.994C48.3483 129.459 50.1164 125.985 53.6527 125.718C57.1888 125.451 59.7731 126.386 58.0049 127.321C56.2368 128.257 50.2524 127.628 47.3962 130.013C44.54 132.398 42.2279 133.868 47.5321 134.937C52.8365 136.006 62.3572 135.338 64.2613 131.33C66.1655 127.321 66.1655 127.321 66.1655 127.321Z" fill="#77A4E5"/>
<path d="M34.3395 108.082C34.3395 108.082 62.9013 117.167 66.1655 127.321C66.1655 127.321 66.0294 131.864 68.8856 137.075V139.079C68.8856 139.079 65.8933 132.265 64.2613 131.33C64.2613 131.33 70.6537 122.512 34.3395 108.082Z" fill="#6A9AD3"/>
<path d="M68.8856 137.075C68.8856 137.075 73.2903 143.645 70.7792 151.643L69.6459 151.344C69.6459 151.344 70.746 142.535 68.4413 138.104C66.1371 133.674 68.8856 137.075 68.8856 137.075Z" fill="#6A9AD3"/>
<path d="M82.3939 119.583C82.3939 119.583 68.9477 112.186 75.2225 102.147C75.2225 102.147 80.2424 95.9828 85.6209 94.3977C85.6209 94.3977 82.7523 109.368 85.6209 109.72C88.4895 110.072 87.5929 92.8127 87.5929 92.8127C87.5929 92.8127 101.757 86.1204 107.314 86.6484C107.314 86.6484 98.5295 101.266 101.398 100.914C104.267 100.562 114.127 85.768 114.127 85.768C114.127 85.768 128.649 83.1261 130.98 91.5798C133.31 100.034 129.546 104.26 127.394 104.789C125.243 105.317 111.438 105.141 111.796 106.902C112.155 108.663 121.478 111.481 126.677 109.896C126.677 109.896 120.94 123.809 113.41 123.105C105.88 122.4 103.549 117.821 98.8879 117.469C94.2263 117.117 90.8201 118.35 93.1505 119.582C95.4813 120.815 103.37 119.986 107.135 123.13C110.9 126.275 113.948 128.212 106.956 129.621C99.9637 131.03 87.4137 130.149 84.9036 124.866C82.3939 119.583 82.3939 119.583 82.3939 119.583Z" fill="#9FC1F4"/>
<path d="M124.347 94.2217C124.347 94.2217 86.6968 106.198 82.3939 119.583C82.3939 119.583 82.5732 125.571 78.8083 132.439V135.081C78.8083 135.081 82.7526 126.099 84.9041 124.866C84.9039 124.866 76.4774 113.242 124.347 94.2217Z" fill="#9FC1F4"/>
<path d="M78.8083 132.439C78.8083 132.439 73.002 141.1 76.3122 151.644L77.8058 151.25C77.8058 151.25 76.3561 139.637 79.3938 133.796C82.4314 127.956 78.8083 132.439 78.8083 132.439Z" fill="#9FC1F4"/>
<path d="M81.9408 174.507C96.4877 174.507 108.28 162.923 108.28 148.633H55.6017C55.6017 162.923 67.3941 174.507 81.9408 174.507Z" fill="#77A4E5"/>
<path d="M88.4222 174.309C87.3509 174.441 86.2586 174.507 85.1497 174.507C70.6033 174.507 58.8118 162.922 58.8118 148.633H65.3552C65.3552 161.835 75.4196 172.726 88.4222 174.309Z" fill="#AFCDFB"/>
<path d="M108.879 148.633H54.7354V149.427H108.879V148.633Z" fill="#77A4E5"/>
<path d="M107.296 174.67H56.4589C56.4589 172.97 57.8621 171.592 59.5926 171.592H104.162C105.893 171.592 107.296 172.97 107.296 174.67Z" fill="#77A4E5"/>
<path d="M293.499 26.2144C290.165 27.3159 287.382 28.6739 285.746 30.3378C278.436 37.7773 264.454 36.8195 264.454 36.8195V4.90002C277.377 9.61694 287.652 17.3316 293.499 26.2144Z" fill="#9FC1F4"/>
<path d="M264.454 165.223V4.9C262.366 4.13722 260.211 3.45491 257.993 2.85641C256.177 2.36552 254.319 1.93464 252.423 1.56348V165.223V174.67H264.454H376.325C377.52 172.375 378.517 169.974 379.325 167.492C379.57 166.743 379.797 165.986 380.006 165.223H264.454Z" fill="#BDD8FF"/>
<path d="M254.583 130.615C254.583 130.615 242.893 128.988 242.214 127.134C242.214 127.134 243.026 125.459 241.743 125.021C241.398 124.904 240.82 124.688 240.563 125.008L240.579 128.426C240.579 128.426 241.839 129.632 242.546 130.605C242.935 131.142 250.489 134.248 250.489 134.248L254.583 130.615Z" fill="#163560"/>
<path d="M278.668 155.686C279.776 154.113 278.625 143.001 270.645 146.375C268.951 146.878 266.911 148.082 264.469 150.28C264.469 150.28 260.963 158.394 274.788 163.761C274.788 163.761 276.158 164.343 276.352 165.58C276.547 166.817 276.766 172.401 276.296 172.57C275.827 172.738 275.133 172.098 274.627 172.803C274.121 173.507 274.299 174.67 274.299 174.67H279.322C279.322 174.67 281.723 162.138 281.588 161.142C281.453 160.145 277.354 157.553 278.668 155.686Z" fill="#163560"/>
<path d="M258.96 110.265C258.96 110.265 261.619 115.742 260.151 117.384L256.02 114.125C256.02 114.125 256 112.512 258.96 110.265Z" fill="#233862"/>
<path d="M287.444 139.758C286.36 137.826 284.734 134.596 286.879 133.278C288.707 132.154 288.007 129.812 286.95 129.252C284.723 128.072 282.462 129.564 281.402 131.022C279.385 133.796 282.064 138.132 282.064 138.132C284.597 143.489 279.383 146.278 276.869 147.273C275.434 145.175 273.954 143.601 272.635 142.372C271.768 141.565 270.973 140.908 270.306 140.349C263.229 134.406 264.943 132.232 263.263 129.561C262.933 129.031 261.631 127.593 261.285 127.132C260.943 126.675 260.819 125.049 260.778 123.618C261.573 122.953 261.661 122.207 261.661 122.207C261.736 122.51 261.655 122.819 261.655 122.819C262.479 122.162 262.292 120.648 262.292 120.648C262.474 120.867 262.547 121.336 262.547 121.336C262.961 118.979 261.485 117.058 261.474 117.043C261.734 114.83 259.866 110.981 259.866 110.981C259.866 110.981 259.999 113.835 260.281 115.29C259.817 114.817 259.265 114.41 258.632 114.102C257.156 113.382 255.139 112.704 253.005 114.762C252.52 115.229 251.084 115.607 250.407 115.522C250.033 115.474 249.183 117.311 249.15 117.562C248.779 120.34 249.677 121.715 251.293 123.137C251.52 123.763 251.693 124.605 251.296 125.171C251.296 125.171 251.637 125.034 251.679 124.926C251.65 125.075 251.465 125.948 250.979 126.34C250.979 126.34 251.198 126.314 251.308 126.264C250.884 126.792 249.272 128.98 249.294 131.675C245.904 131.703 242.68 131.499 242.367 130.646C242.367 130.646 243.098 129.24 241.896 128.533C241.583 128.349 241.053 128.221 240.578 128.234L240.519 132.071C240.519 132.071 241.992 133.144 242.699 134.117C242.941 134.451 247.685 136.554 251.233 138.095C253.299 146.892 259.934 151.977 262.13 153.451C262.447 156.139 264.071 159.635 268.729 163.707C268.729 163.707 269.812 164.717 269.562 165.944C269.312 167.171 267.563 172.489 267.064 172.489C266.564 172.489 264.898 171.779 264.176 172.271C263.455 172.761 264.454 174.67 264.454 174.67H265.482H268.507H269.535C269.535 174.67 275.809 164.526 276.031 163.544C276.253 162.562 273.311 158.744 275.199 157.435C276.008 156.874 277.131 153.796 276.898 150.97C279.377 150.12 290.84 145.805 287.444 139.758Z" fill="#2B478B"/>
<path d="M256.925 114.842L261.058 118.101C261.294 117.836 261.422 117.471 261.473 117.044C261.734 114.831 259.865 110.981 259.865 110.981C256.905 113.228 256.925 114.842 256.925 114.842Z" fill="#2B478B"/>
<path d="M250.286 115.537C250.286 115.537 250.515 115.381 250.761 115.501C250.761 115.501 250.697 116.425 249.776 116.482C249.776 116.482 250.041 115.681 250.286 115.537Z" fill="#163560"/>
<path d="M251.975 117.61C252.01 117.621 255.456 118.883 257.926 121.668C255.413 118.833 252.048 117.511 252.012 117.499L251.975 117.61Z" fill="#163560"/>
<path d="M251.654 117.849C251.691 117.872 255.303 120.286 257.349 124.185C255.268 120.216 251.766 117.755 251.729 117.732L251.654 117.849Z" fill="#163560"/>
<path d="M251.283 118.138C251.309 118.163 253.849 120.776 254.833 124.34C253.833 120.712 251.392 118.08 251.365 118.054L251.283 118.138Z" fill="#163560"/>
</svg>
