<svg width="183" height="55" viewBox="0 0 183 55" fill="none" xmlns="http://www.w3.org/2000/svg">
<path d="M92.3622 29.4849C89.1739 29.4849 86.5753 31.91 86.5753 35.2501C86.5753 38.5699 89.1739 41.0153 92.3622 41.0153C95.5518 41.0153 98.1504 38.5699 98.1504 35.2501C98.1491 31.91 95.5505 29.4849 92.3622 29.4849ZM92.3622 38.7461C90.6149 38.7461 89.1089 37.3051 89.1089 35.2515C89.1089 33.1761 90.6162 31.7568 92.3622 31.7568C94.1095 31.7568 95.6155 33.1761 95.6155 35.2515C95.6155 37.3038 94.1095 38.7461 92.3622 38.7461ZM79.7365 29.4849C76.5483 29.4849 73.9497 31.91 73.9497 35.2501C73.9497 38.5699 76.5483 41.0153 79.7365 41.0153C82.9262 41.0153 85.5248 38.5699 85.5248 35.2501C85.5248 31.91 82.9262 29.4849 79.7365 29.4849ZM79.7365 38.7461C77.9892 38.7461 76.4832 37.3051 76.4832 35.2515C76.4832 33.1761 77.9906 31.7568 79.7365 31.7568C81.4839 31.7568 82.9899 33.1761 82.9899 35.2515C82.9912 37.3038 81.4839 38.7461 79.7365 38.7461ZM64.7197 31.2553V33.7007H70.573C70.3981 35.0766 69.9399 36.0811 69.2405 36.7792C68.3892 37.6305 67.0567 38.5699 64.7197 38.5699C61.1166 38.5699 58.2998 35.6649 58.2998 32.0618C58.2998 28.4588 61.1166 25.5538 64.7197 25.5538C66.6636 25.5538 68.0828 26.3184 69.1307 27.3011L70.8563 25.5755C69.3923 24.1779 67.4498 23.1084 64.7197 23.1084C59.7841 23.1084 55.6348 27.1263 55.6348 32.0618C55.6348 36.9974 59.7841 41.0153 64.7197 41.0153C67.3834 41.0153 69.3937 40.141 70.9647 38.5034C72.5806 36.8876 73.0835 34.6157 73.0835 32.7816C73.0835 32.215 73.0401 31.6904 72.952 31.2539H64.7197V31.2553ZM126.137 33.1544C125.657 31.8666 124.193 29.4849 121.202 29.4849C118.232 29.4849 115.763 31.8219 115.763 35.2501C115.763 38.4818 118.21 41.0153 121.485 41.0153C124.127 41.0153 125.656 39.3995 126.29 38.4601L124.325 37.1492C123.67 38.1103 122.774 38.7434 121.485 38.7434C120.197 38.7434 119.279 38.1537 118.69 36.9961L126.399 33.8078L126.137 33.1544ZM118.275 35.0766C118.21 32.8481 120.001 31.7135 121.29 31.7135C122.294 31.7135 123.145 32.2164 123.43 32.9362L118.275 35.0766ZM112.008 40.6669H114.54V23.7211H112.008V40.6669ZM107.858 30.7741H107.771C107.203 30.0963 106.11 29.4849 104.736 29.4849C101.852 29.4849 99.2105 32.0185 99.2105 35.2732C99.2105 38.5048 101.852 41.0166 104.736 41.0166C106.112 41.0166 107.203 40.4053 107.771 39.7072H107.858V40.5368C107.858 42.7423 106.678 43.9216 104.779 43.9216C103.228 43.9216 102.267 42.8087 101.874 41.8693L99.6686 42.787C100.302 44.3147 101.983 46.1935 104.779 46.1935C107.749 46.1935 110.261 44.4462 110.261 40.187V29.836H107.859V30.7741H107.858ZM104.954 38.7461C103.207 38.7461 101.744 37.2821 101.744 35.2732C101.744 33.2412 103.207 31.7568 104.954 31.7568C106.678 31.7568 108.032 33.2412 108.032 35.2732C108.032 37.2821 106.678 38.7461 104.954 38.7461ZM138.004 23.7211H131.943V40.6669H134.471V34.247H138.002C140.806 34.247 143.563 32.2177 143.563 28.9847C143.563 25.7517 140.807 23.7211 138.004 23.7211ZM138.069 31.8883H134.471V26.0798H138.069C139.96 26.0798 141.033 27.6454 141.033 28.9847C141.033 30.2969 139.96 31.8883 138.069 31.8883ZM153.701 29.4551C151.87 29.4551 149.973 30.2617 149.188 32.0496L151.433 32.9863C151.913 32.0496 152.808 31.7433 153.744 31.7433C155.053 31.7433 156.382 32.5282 156.404 33.923V34.0979C155.946 33.8363 154.964 33.4445 153.766 33.4445C151.346 33.4445 148.882 34.7743 148.882 37.259C148.882 39.5269 150.867 40.9868 153.09 40.9868C154.79 40.9868 155.728 40.2236 156.316 39.329H156.403V40.6371H158.845V34.1399C158.847 31.1333 156.599 29.4551 153.701 29.4551ZM153.395 38.742C152.568 38.742 151.412 38.3272 151.412 37.3024C151.412 35.9943 152.851 35.4928 154.094 35.4928C155.204 35.4928 155.729 35.7327 156.404 36.0594C156.207 37.6305 154.856 38.742 153.395 38.742ZM167.741 29.8252L164.841 37.1723H164.754L161.745 29.8252H159.02L163.533 40.0935L160.96 45.8058H163.598L170.553 29.8252H167.741ZM144.959 40.6669H147.487V23.7211H144.959V40.6669Z" fill="black"/>
<path d="M64.2779 13.8847C64.2779 15.0206 63.9417 15.9248 63.268 16.5998C62.5034 17.4023 61.5057 17.8036 60.2803 17.8036C59.1064 17.8036 58.1074 17.3969 57.2873 16.5836C56.4658 15.7689 56.0551 14.7604 56.0551 13.5566C56.0551 12.3515 56.4658 11.343 57.2873 10.5297C58.1074 9.71498 59.1064 9.30831 60.2803 9.30831C60.8632 9.30831 61.4203 9.42218 61.949 9.64856C62.479 9.87629 62.9033 10.1786 63.2205 10.5568L62.5061 11.2725C61.968 10.6286 61.2265 10.3074 60.279 10.3074C59.4222 10.3074 58.6821 10.6083 58.0572 11.2102C57.4323 11.812 57.1205 12.5942 57.1205 13.5553C57.1205 14.5164 57.4323 15.2985 58.0572 15.9004C58.6821 16.5022 59.4222 16.8032 60.279 16.8032C61.1872 16.8032 61.9449 16.5009 62.5509 15.895C62.944 15.5005 63.1717 14.9515 63.2327 14.248H60.279V13.2706H64.2196C64.2602 13.4834 64.2779 13.6881 64.2779 13.8847Z" fill="black"/>
<path d="M70.5271 10.4877H66.8237V13.066H70.1638V14.0433H66.8237V16.6216H70.5271V17.622H65.7786V9.48868H70.5271V10.4877Z" fill="black"/>
<path d="M74.9338 17.622H73.8887V10.4877H71.6168V9.48868H77.2058V10.4877H74.9338V17.622Z" fill="black"/>
<path d="M81.2493 17.622V9.48868H82.2945V17.622H81.2493Z" fill="black"/>
<path d="M86.9293 17.622H85.8842V10.4877H83.6123V9.48868H89.2012V10.4877H86.9293V17.622Z" fill="black"/>
<path d="M99.781 16.5714C98.9813 17.3929 97.9876 17.8036 96.7988 17.8036C95.61 17.8036 94.6164 17.3929 93.8179 16.5714C93.0182 15.75 92.6196 14.7442 92.6196 13.5553C92.6196 12.3665 93.0182 11.3607 93.8179 10.5392C94.6164 9.71775 95.61 9.30566 96.7988 9.30566C97.9809 9.30566 98.9731 9.71911 99.7756 10.5446C100.578 11.3702 100.979 12.3733 100.979 13.5553C100.979 14.7442 100.579 15.75 99.781 16.5714ZM94.5893 15.8896C95.1911 16.4996 95.9272 16.8032 96.7988 16.8032C97.6704 16.8032 98.4079 16.4982 99.0084 15.8896C99.6102 15.2796 99.9125 14.5015 99.9125 13.5553C99.9125 12.6092 99.6102 11.8311 99.0084 11.2211C98.4079 10.6111 97.6704 10.3074 96.7988 10.3074C95.9272 10.3074 95.1911 10.6124 94.5893 11.2211C93.9887 11.8311 93.6865 12.6092 93.6865 13.5553C93.6865 14.5015 93.9887 15.2796 94.5893 15.8896Z" fill="black"/>
<path d="M102.446 17.622V9.48868H103.718L107.67 15.8151H107.715L107.67 14.248V9.48868H108.716V17.622H107.624L103.489 10.9879H103.444L103.489 12.5549V17.622H102.446Z" fill="black"/>
<path d="M64.2779 13.8847C64.2779 15.0206 63.9417 15.9248 63.268 16.5998C62.5034 17.4023 61.5057 17.8036 60.2803 17.8036C59.1064 17.8036 58.1074 17.3969 57.2873 16.5836C56.4658 15.7689 56.0551 14.7604 56.0551 13.5566C56.0551 12.3515 56.4658 11.343 57.2873 10.5297C58.1074 9.71498 59.1064 9.30831 60.2803 9.30831C60.8632 9.30831 61.4203 9.42218 61.949 9.64856C62.479 9.87629 62.9033 10.1786 63.2205 10.5568L62.5061 11.2725C61.968 10.6286 61.2265 10.3074 60.279 10.3074C59.4222 10.3074 58.6821 10.6083 58.0572 11.2102C57.4323 11.812 57.1205 12.5942 57.1205 13.5553C57.1205 14.5164 57.4323 15.2985 58.0572 15.9004C58.6821 16.5022 59.4222 16.8032 60.279 16.8032C61.1872 16.8032 61.9449 16.5009 62.5509 15.895C62.944 15.5005 63.1717 14.9515 63.2327 14.248H60.279V13.2706H64.2196C64.2602 13.4834 64.2779 13.6881 64.2779 13.8847Z" stroke="black" stroke-width="0.2" stroke-miterlimit="10"/>
<path d="M70.5271 10.4877H66.8237V13.066H70.1638V14.0433H66.8237V16.6216H70.5271V17.622H65.7786V9.48868H70.5271V10.4877Z" stroke="black" stroke-width="0.2" stroke-miterlimit="10"/>
<path d="M74.9338 17.622H73.8887V10.4877H71.6168V9.48868H77.2058V10.4877H74.9338V17.622Z" stroke="black" stroke-width="0.2" stroke-miterlimit="10"/>
<path d="M81.2493 17.622V9.48868H82.2945V17.622H81.2493Z" stroke="black" stroke-width="0.2" stroke-miterlimit="10"/>
<path d="M86.9293 17.622H85.8842V10.4877H83.6123V9.48868H89.2012V10.4877H86.9293V17.622Z" stroke="black" stroke-width="0.2" stroke-miterlimit="10"/>
<path d="M99.781 16.5714C98.9813 17.3929 97.9876 17.8036 96.7988 17.8036C95.61 17.8036 94.6164 17.3929 93.8179 16.5714C93.0182 15.75 92.6196 14.7442 92.6196 13.5553C92.6196 12.3665 93.0182 11.3607 93.8179 10.5392C94.6164 9.71775 95.61 9.30566 96.7988 9.30566C97.9809 9.30566 98.9731 9.71911 99.7756 10.5446C100.578 11.3702 100.979 12.3733 100.979 13.5553C100.979 14.7442 100.579 15.75 99.781 16.5714ZM94.5893 15.8896C95.1911 16.4996 95.9272 16.8032 96.7988 16.8032C97.6704 16.8032 98.4079 16.4982 99.0084 15.8896C99.6102 15.2796 99.9125 14.5015 99.9125 13.5553C99.9125 12.6092 99.6102 11.8311 99.0084 11.2211C98.4079 10.6111 97.6704 10.3074 96.7988 10.3074C95.9272 10.3074 95.1911 10.6124 94.5893 11.2211C93.9887 11.8311 93.6865 12.6092 93.6865 13.5553C93.6865 14.5015 93.9887 15.2796 94.5893 15.8896Z" stroke="black" stroke-width="0.2" stroke-miterlimit="10"/>
<path d="M102.446 17.622V9.48868H103.718L107.67 15.8151H107.715L107.67 14.248V9.48868H108.716V17.622H107.624L103.489 10.9879H103.444L103.489 12.5549V17.622H102.446Z" stroke="black" stroke-width="0.2" stroke-miterlimit="10"/>
<path fill-rule="evenodd" clip-rule="evenodd" d="M13.8502 10.6306C13.6381 11.0208 13.5189 11.523 13.5189 12.123V42.1024C13.5189 42.7037 13.6383 43.2058 13.8507 43.5958L30.3318 27.1122L13.8502 10.6306ZM14.5419 44.3188C15.1646 44.6728 16.0212 44.6254 16.9634 44.0911L36.3144 33.0948L31.0389 27.8193L14.5419 44.3188ZM37.2171 32.5833L43.3981 29.0715C45.2918 27.9938 45.2918 26.233 43.3981 25.1567L37.2144 21.643L31.746 27.1122L37.2171 32.5833ZM36.3127 21.1305L16.9634 10.1357C16.0212 9.60031 15.1645 9.55355 14.5418 9.90794L31.0389 26.4051L36.3127 21.1305Z" fill="black"/>
</svg>
