<svg width="350" height="78" viewBox="0 0 350 78" fill="none" xmlns="http://www.w3.org/2000/svg">
<path d="M93.56 39.258C92.516 39.258 91.67 38.952 91.022 38.34C90.41 37.692 90.104 36.828 90.104 35.748V4.158C90.104 3.114 90.392 2.304 90.968 1.728C91.58 1.152 92.408 0.863999 93.452 0.863999H106.736C110.804 0.863999 113.972 1.89 116.24 3.942C118.508 5.958 119.642 8.802 119.642 12.474C119.642 16.146 118.508 19.008 116.24 21.06C113.972 23.112 110.804 24.138 106.736 24.138H97.07V35.748C97.07 36.828 96.746 37.692 96.098 38.34C95.486 38.952 94.64 39.258 93.56 39.258ZM105.872 18.792C110.66 18.792 113.054 16.704 113.054 12.528C113.054 8.352 110.66 6.264 105.872 6.264H97.07V18.792H105.872Z" fill="white"/>
<path d="M135.921 11.88C139.593 11.88 142.311 12.798 144.075 14.634C145.875 16.434 146.775 19.188 146.775 22.896V36.072C146.775 37.044 146.487 37.818 145.911 38.394C145.335 38.934 144.543 39.204 143.535 39.204C142.599 39.204 141.825 38.916 141.213 38.34C140.637 37.764 140.349 37.008 140.349 36.072V34.884C139.737 36.288 138.765 37.386 137.433 38.178C136.137 38.97 134.625 39.366 132.897 39.366C131.133 39.366 129.531 39.006 128.091 38.286C126.651 37.566 125.517 36.576 124.689 35.316C123.861 34.056 123.447 32.652 123.447 31.104C123.447 29.16 123.933 27.63 124.905 26.514C125.913 25.398 127.533 24.588 129.765 24.084C131.997 23.58 135.075 23.328 138.999 23.328H140.349V22.086C140.349 20.322 139.971 19.044 139.215 18.252C138.459 17.424 137.235 17.01 135.543 17.01C134.499 17.01 133.437 17.172 132.357 17.496C131.277 17.784 129.999 18.216 128.523 18.792C127.587 19.26 126.903 19.494 126.471 19.494C125.823 19.494 125.283 19.26 124.851 18.792C124.455 18.324 124.257 17.712 124.257 16.956C124.257 16.344 124.401 15.822 124.689 15.39C125.013 14.922 125.535 14.49 126.255 14.094C127.515 13.41 129.009 12.87 130.737 12.474C132.501 12.078 134.229 11.88 135.921 11.88ZM134.247 34.506C136.047 34.506 137.505 33.912 138.621 32.724C139.773 31.5 140.349 29.934 140.349 28.026V26.892H139.377C136.965 26.892 135.093 27 133.761 27.216C132.429 27.432 131.475 27.81 130.899 28.35C130.323 28.89 130.035 29.628 130.035 30.564C130.035 31.716 130.431 32.67 131.223 33.426C132.051 34.146 133.059 34.506 134.247 34.506Z" fill="white"/>
<path d="M156.983 39.258C156.011 39.258 155.201 38.988 154.553 38.448C153.941 37.872 153.635 37.062 153.635 36.018V15.174C153.635 14.13 153.941 13.338 154.553 12.798C155.201 12.258 156.011 11.988 156.983 11.988C157.955 11.988 158.765 12.258 159.413 12.798C160.061 13.338 160.385 14.13 160.385 15.174V36.018C160.385 37.062 160.061 37.872 159.413 38.448C158.765 38.988 157.955 39.258 156.983 39.258ZM156.983 7.182C155.759 7.182 154.787 6.858 154.067 6.21C153.347 5.526 152.987 4.644 152.987 3.564C152.987 2.484 153.347 1.62 154.067 0.972C154.787 0.323999 155.759 0 156.983 0C158.171 0 159.125 0.323999 159.845 0.972C160.601 1.62 160.979 2.484 160.979 3.564C160.979 4.644 160.619 5.526 159.899 6.21C159.179 6.858 158.207 7.182 156.983 7.182Z" fill="white"/>
<path d="M182.682 11.88C185.85 11.88 188.208 12.78 189.756 14.58C191.304 16.38 192.078 19.098 192.078 22.734V36.018C192.078 37.026 191.772 37.818 191.16 38.394C190.584 38.97 189.774 39.258 188.73 39.258C187.686 39.258 186.858 38.97 186.246 38.394C185.634 37.818 185.328 37.026 185.328 36.018V23.112C185.328 21.06 184.932 19.566 184.14 18.63C183.384 17.694 182.178 17.226 180.522 17.226C178.578 17.226 177.012 17.838 175.824 19.062C174.672 20.286 174.096 21.924 174.096 23.976V36.018C174.096 37.026 173.79 37.818 173.178 38.394C172.566 38.97 171.738 39.258 170.694 39.258C169.65 39.258 168.822 38.97 168.21 38.394C167.634 37.818 167.346 37.026 167.346 36.018V15.12C167.346 14.184 167.652 13.428 168.264 12.852C168.876 12.276 169.704 11.988 170.748 11.988C171.684 11.988 172.44 12.276 173.016 12.852C173.628 13.392 173.934 14.112 173.934 15.012V16.47C174.834 14.994 176.04 13.86 177.552 13.068C179.064 12.276 180.774 11.88 182.682 11.88Z" fill="white"/>
<path d="M222.424 33.696C223.144 34.38 223.504 35.154 223.504 36.018C223.504 36.846 223.198 37.584 222.586 38.232C222.01 38.88 221.326 39.204 220.534 39.204C219.742 39.204 219.004 38.88 218.32 38.232L205.684 26.784V36.018C205.684 37.062 205.36 37.854 204.712 38.394C204.064 38.934 203.254 39.204 202.282 39.204C201.31 39.204 200.5 38.934 199.852 38.394C199.24 37.854 198.934 37.062 198.934 36.018V3.78C198.934 2.736 199.24 1.944 199.852 1.404C200.5 0.863997 201.31 0.593998 202.282 0.593998C203.254 0.593998 204.064 0.863997 204.712 1.404C205.36 1.944 205.684 2.736 205.684 3.78V24.084L217.24 13.014C217.888 12.366 218.626 12.042 219.454 12.042C220.282 12.042 221.002 12.348 221.614 12.96C222.226 13.572 222.532 14.292 222.532 15.12C222.532 15.948 222.19 16.704 221.506 17.388L213.028 25.272L222.424 33.696Z" fill="white"/>
<path d="M231.233 39.258C230.261 39.258 229.451 38.988 228.803 38.448C228.191 37.872 227.885 37.062 227.885 36.018V15.174C227.885 14.13 228.191 13.338 228.803 12.798C229.451 12.258 230.261 11.988 231.233 11.988C232.205 11.988 233.015 12.258 233.663 12.798C234.311 13.338 234.635 14.13 234.635 15.174V36.018C234.635 37.062 234.311 37.872 233.663 38.448C233.015 38.988 232.205 39.258 231.233 39.258ZM231.233 7.182C230.009 7.182 229.037 6.858 228.317 6.21C227.597 5.526 227.237 4.644 227.237 3.564C227.237 2.484 227.597 1.62 228.317 0.972C229.037 0.323999 230.009 0 231.233 0C232.421 0 233.375 0.323999 234.095 0.972C234.851 1.62 235.229 2.484 235.229 3.564C235.229 4.644 234.869 5.526 234.149 6.21C233.429 6.858 232.457 7.182 231.233 7.182Z" fill="white"/>
<path d="M244.944 39.258C243.972 39.258 243.162 38.988 242.514 38.448C241.902 37.872 241.596 37.062 241.596 36.018V3.78C241.596 2.736 241.902 1.944 242.514 1.404C243.162 0.863997 243.972 0.593998 244.944 0.593998C245.916 0.593998 246.726 0.863997 247.374 1.404C248.022 1.944 248.346 2.736 248.346 3.78V36.018C248.346 37.062 248.022 37.872 247.374 38.448C246.726 38.988 245.916 39.258 244.944 39.258Z" fill="white"/>
<path d="M266.755 11.88C270.427 11.88 273.145 12.798 274.909 14.634C276.709 16.434 277.609 19.188 277.609 22.896V36.072C277.609 37.044 277.321 37.818 276.745 38.394C276.169 38.934 275.377 39.204 274.369 39.204C273.433 39.204 272.659 38.916 272.047 38.34C271.471 37.764 271.183 37.008 271.183 36.072V34.884C270.571 36.288 269.599 37.386 268.267 38.178C266.971 38.97 265.459 39.366 263.731 39.366C261.967 39.366 260.365 39.006 258.925 38.286C257.485 37.566 256.351 36.576 255.523 35.316C254.695 34.056 254.281 32.652 254.281 31.104C254.281 29.16 254.767 27.63 255.739 26.514C256.747 25.398 258.367 24.588 260.599 24.084C262.831 23.58 265.909 23.328 269.833 23.328H271.183V22.086C271.183 20.322 270.805 19.044 270.049 18.252C269.293 17.424 268.069 17.01 266.377 17.01C265.333 17.01 264.271 17.172 263.191 17.496C262.111 17.784 260.833 18.216 259.357 18.792C258.421 19.26 257.737 19.494 257.305 19.494C256.657 19.494 256.117 19.26 255.685 18.792C255.289 18.324 255.091 17.712 255.091 16.956C255.091 16.344 255.235 15.822 255.523 15.39C255.847 14.922 256.369 14.49 257.089 14.094C258.349 13.41 259.843 12.87 261.571 12.474C263.335 12.078 265.063 11.88 266.755 11.88ZM265.081 34.506C266.881 34.506 268.339 33.912 269.455 32.724C270.607 31.5 271.183 29.934 271.183 28.026V26.892H270.211C267.799 26.892 265.927 27 264.595 27.216C263.263 27.432 262.309 27.81 261.733 28.35C261.157 28.89 260.869 29.628 260.869 30.564C260.869 31.716 261.265 32.67 262.057 33.426C262.885 34.146 263.893 34.506 265.081 34.506Z" fill="white"/>
<path d="M100.46 63.0662C101.273 63.3062 101.9 63.7262 102.34 64.3262C102.793 64.9129 103.02 65.6395 103.02 66.5062C103.02 67.6929 102.58 68.6329 101.7 69.3262C100.833 70.0195 99.6333 70.3662 98.1 70.3662H92.86C92.3933 70.3662 92.0333 70.2395 91.78 69.9862C91.5267 69.7329 91.4 69.3729 91.4 68.9062V57.7262C91.4 57.2595 91.5267 56.8995 91.78 56.6462C92.0333 56.3929 92.3933 56.2662 92.86 56.2662H97.9C99.3667 56.2662 100.527 56.5929 101.38 57.2462C102.247 57.8995 102.68 58.7929 102.68 59.9262C102.68 60.6595 102.48 61.3062 102.08 61.8662C101.693 62.4129 101.153 62.8129 100.46 63.0662ZM94.44 62.0062H97.38C98.18 62.0062 98.7667 61.8729 99.14 61.6062C99.5267 61.3262 99.72 60.9062 99.72 60.3462C99.72 59.7595 99.5267 59.3329 99.14 59.0662C98.7667 58.7862 98.18 58.6462 97.38 58.6462H94.44V62.0062ZM97.74 67.9862C98.5667 67.9862 99.1667 67.8462 99.54 67.5662C99.9133 67.2862 100.1 66.8329 100.1 66.2062C100.1 65.5795 99.9133 65.1195 99.54 64.8262C99.1667 64.5329 98.5667 64.3862 97.74 64.3862H94.44V67.9862H97.74ZM112.889 60.3462C113.356 60.3462 113.722 60.4729 113.989 60.7262C114.269 60.9795 114.409 61.3262 114.409 61.7662V69.1062C114.409 69.5195 114.262 69.8529 113.969 70.1062C113.689 70.3595 113.322 70.4862 112.869 70.4862C112.442 70.4862 112.102 70.3662 111.849 70.1262C111.596 69.8862 111.469 69.5662 111.469 69.1662V68.9662C111.162 69.4729 110.756 69.8595 110.249 70.1262C109.756 70.3929 109.196 70.5262 108.569 70.5262C107.329 70.5262 106.402 70.1862 105.789 69.5062C105.189 68.8129 104.889 67.7729 104.889 66.3862V61.7662C104.889 61.3262 105.022 60.9795 105.289 60.7262C105.569 60.4729 105.942 60.3462 106.409 60.3462C106.876 60.3462 107.242 60.4729 107.509 60.7262C107.776 60.9795 107.909 61.3262 107.909 61.7662V66.4462C107.909 67.0329 108.029 67.4662 108.269 67.7462C108.522 68.0262 108.902 68.1662 109.409 68.1662C109.996 68.1662 110.469 67.9662 110.829 67.5662C111.202 67.1662 111.389 66.6395 111.389 65.9862V61.7662C111.389 61.3262 111.522 60.9795 111.789 60.7262C112.056 60.4729 112.422 60.3462 112.889 60.3462ZM122.066 58.4662C121.52 58.5062 121.126 58.6729 120.886 58.9662C120.646 59.2595 120.526 59.6729 120.526 60.2062V60.5462H121.926C122.833 60.5462 123.286 60.9262 123.286 61.6862C123.286 62.4329 122.833 62.8062 121.926 62.8062H120.526V69.0462C120.526 69.5129 120.38 69.8662 120.086 70.1062C119.806 70.3462 119.453 70.4662 119.026 70.4662C118.586 70.4662 118.22 70.3462 117.926 70.1062C117.646 69.8662 117.506 69.5129 117.506 69.0462V62.8062H116.706C115.813 62.8062 115.366 62.4329 115.366 61.6862C115.366 60.9262 115.813 60.5462 116.706 60.5462H117.506C117.506 59.2662 117.86 58.2595 118.566 57.5262C119.273 56.7929 120.246 56.3795 121.486 56.2862L122.006 56.2462L122.366 56.2262C123.286 56.2262 123.746 56.5795 123.746 57.2862C123.746 57.9795 123.36 58.3595 122.586 58.4262L122.066 58.4662ZM129.313 58.4662C128.766 58.5062 128.373 58.6729 128.133 58.9662C127.893 59.2595 127.773 59.6729 127.773 60.2062V60.5462H129.173C130.079 60.5462 130.533 60.9262 130.533 61.6862C130.533 62.4329 130.079 62.8062 129.173 62.8062H127.773V69.0462C127.773 69.5129 127.626 69.8662 127.333 70.1062C127.053 70.3462 126.699 70.4662 126.273 70.4662C125.833 70.4662 125.466 70.3462 125.173 70.1062C124.893 69.8662 124.753 69.5129 124.753 69.0462V62.8062H123.953C123.059 62.8062 122.612 62.4329 122.612 61.6862C122.612 60.9262 123.059 60.5462 123.953 60.5462H124.753C124.753 59.2662 125.106 58.2595 125.813 57.5262C126.519 56.7929 127.493 56.3795 128.733 56.2862L129.253 56.2462L129.613 56.2262C130.533 56.2262 130.993 56.5795 130.993 57.2862C130.993 57.9795 130.606 58.3595 129.833 58.4262L129.313 58.4662ZM139.274 67.4462C139.541 67.4462 139.754 67.5529 139.914 67.7662C140.088 67.9795 140.174 68.2529 140.174 68.5862C140.174 68.8129 140.108 69.0262 139.974 69.2262C139.841 69.4129 139.654 69.5729 139.414 69.7062C138.961 69.9462 138.434 70.1462 137.834 70.3062C137.234 70.4529 136.681 70.5262 136.174 70.5262C135.108 70.5262 134.174 70.3195 133.374 69.9062C132.588 69.4929 131.981 68.9062 131.554 68.1462C131.128 67.3729 130.914 66.4662 130.914 65.4262C130.914 64.4262 131.121 63.5395 131.534 62.7662C131.948 61.9929 132.521 61.3929 133.254 60.9662C133.988 60.5262 134.821 60.3062 135.754 60.3062C136.648 60.3062 137.428 60.5062 138.094 60.9062C138.774 61.2929 139.301 61.8529 139.674 62.5862C140.048 63.3062 140.234 64.1529 140.234 65.1262C140.234 65.4195 140.161 65.6462 140.014 65.8062C139.881 65.9529 139.688 66.0262 139.434 66.0262H133.834C133.928 66.8129 134.168 67.3862 134.554 67.7462C134.941 68.0929 135.494 68.2662 136.214 68.2662C136.601 68.2662 136.948 68.2195 137.254 68.1262C137.561 68.0329 137.901 67.9062 138.274 67.7462C138.461 67.6662 138.641 67.5995 138.814 67.5462C138.988 67.4795 139.141 67.4462 139.274 67.4462ZM135.834 62.3862C135.261 62.3862 134.801 62.5729 134.454 62.9462C134.108 63.3062 133.901 63.8329 133.834 64.5262H137.694C137.654 63.8195 137.474 63.2862 137.154 62.9262C136.848 62.5662 136.408 62.3862 135.834 62.3862ZM147.918 60.3462C148.318 60.3195 148.632 60.4129 148.858 60.6262C149.098 60.8262 149.218 61.1329 149.218 61.5462C149.218 61.9862 149.112 62.3129 148.898 62.5262C148.685 62.7395 148.305 62.8729 147.758 62.9262L147.158 62.9862C146.425 63.0662 145.892 63.3062 145.558 63.7062C145.238 64.1062 145.078 64.6195 145.078 65.2462V69.0662C145.078 69.5329 144.932 69.8862 144.638 70.1262C144.358 70.3662 144.005 70.4862 143.578 70.4862C143.138 70.4862 142.772 70.3662 142.478 70.1262C142.198 69.8862 142.058 69.5329 142.058 69.0662V61.7262C142.058 61.2862 142.205 60.9462 142.498 60.7062C142.792 60.4662 143.145 60.3462 143.558 60.3462C143.958 60.3462 144.292 60.4662 144.558 60.7062C144.825 60.9329 144.958 61.2529 144.958 61.6662V62.2062C145.198 61.6329 145.558 61.1929 146.038 60.8862C146.532 60.5795 147.065 60.4062 147.638 60.3662L147.918 60.3462ZM151.606 70.4862C151.166 70.4862 150.799 70.3662 150.506 70.1262C150.226 69.8862 150.086 69.5329 150.086 69.0662V61.7662C150.086 61.2995 150.232 60.9462 150.526 60.7062C150.819 60.4662 151.179 60.3462 151.606 60.3462C152.032 60.3462 152.386 60.4662 152.666 60.7062C152.959 60.9462 153.106 61.2995 153.106 61.7662V69.0662C153.106 69.5329 152.959 69.8862 152.666 70.1262C152.386 70.3662 152.032 70.4862 151.606 70.4862ZM151.606 58.7462C151.072 58.7462 150.652 58.6129 150.346 58.3462C150.039 58.0662 149.886 57.6929 149.886 57.2262C149.886 56.7595 150.039 56.3929 150.346 56.1262C150.652 55.8595 151.072 55.7262 151.606 55.7262C152.126 55.7262 152.539 55.8662 152.846 56.1462C153.166 56.4129 153.326 56.7729 153.326 57.2262C153.326 57.6929 153.172 58.0662 152.866 58.3462C152.559 58.6129 152.139 58.7462 151.606 58.7462ZM161.578 60.3062C162.751 60.3062 163.624 60.6529 164.198 61.3462C164.771 62.0262 165.058 63.0595 165.058 64.4462V69.0662C165.058 69.5062 164.918 69.8529 164.638 70.1062C164.371 70.3595 164.004 70.4862 163.538 70.4862C163.071 70.4862 162.704 70.3595 162.438 70.1062C162.171 69.8529 162.038 69.5062 162.038 69.0662V64.5862C162.038 63.9195 161.911 63.4329 161.658 63.1262C161.418 62.8195 161.038 62.6662 160.518 62.6662C159.891 62.6662 159.384 62.8662 158.998 63.2662C158.624 63.6662 158.438 64.1995 158.438 64.8662V69.0662C158.438 69.5062 158.304 69.8529 158.038 70.1062C157.771 70.3595 157.404 70.4862 156.938 70.4862C156.471 70.4862 156.098 70.3595 155.818 70.1062C155.551 69.8529 155.418 69.5062 155.418 69.0662V61.7262C155.418 61.3129 155.558 60.9795 155.838 60.7262C156.131 60.4729 156.504 60.3462 156.958 60.3462C157.371 60.3462 157.704 60.4729 157.958 60.7262C158.224 60.9662 158.358 61.2795 158.358 61.6662V61.9462C158.704 61.4129 159.151 61.0062 159.698 60.7262C160.258 60.4462 160.884 60.3062 161.578 60.3062ZM175.832 60.3462C176.286 60.3462 176.646 60.4795 176.912 60.7462C177.192 60.9995 177.332 61.3395 177.332 61.7662V69.3062C177.332 70.8929 176.872 72.0929 175.952 72.9062C175.032 73.7195 173.686 74.1262 171.912 74.1262C170.419 74.1262 169.192 73.8595 168.232 73.3262C167.992 73.1929 167.806 73.0262 167.672 72.8262C167.539 72.6395 167.472 72.4262 167.472 72.1862C167.472 71.8529 167.552 71.5795 167.712 71.3662C167.872 71.1529 168.086 71.0462 168.352 71.0462C168.499 71.0462 168.672 71.0729 168.872 71.1262C169.072 71.1929 169.279 71.2662 169.492 71.3462C169.919 71.5062 170.312 71.6329 170.672 71.7262C171.032 71.8195 171.419 71.8662 171.832 71.8662C172.686 71.8662 173.319 71.6729 173.732 71.2862C174.146 70.8995 174.352 70.3129 174.352 69.5262V68.4462C174.072 68.9529 173.652 69.3529 173.092 69.6462C172.532 69.9395 171.906 70.0862 171.212 70.0862C170.359 70.0862 169.599 69.8862 168.932 69.4862C168.279 69.0862 167.766 68.5195 167.392 67.7862C167.019 67.0395 166.832 66.1795 166.832 65.2062C166.832 64.2329 167.019 63.3795 167.392 62.6462C167.766 61.8995 168.279 61.3262 168.932 60.9262C169.599 60.5129 170.359 60.3062 171.212 60.3062C171.892 60.3062 172.506 60.4529 173.052 60.7462C173.612 61.0262 174.039 61.4195 174.332 61.9262V61.7262C174.332 61.2995 174.466 60.9662 174.732 60.7262C175.012 60.4729 175.379 60.3462 175.832 60.3462ZM172.092 67.7862C172.799 67.7862 173.346 67.5595 173.732 67.1062C174.132 66.6529 174.332 66.0195 174.332 65.2062C174.332 64.3929 174.132 63.7595 173.732 63.3062C173.346 62.8395 172.799 62.6062 172.092 62.6062C171.386 62.6062 170.832 62.8395 170.432 63.3062C170.032 63.7595 169.832 64.3929 169.832 65.2062C169.832 66.0195 170.032 66.6529 170.432 67.1062C170.832 67.5595 171.386 67.7862 172.092 67.7862ZM191.962 70.5462C190.575 70.5462 189.362 70.2529 188.322 69.6662C187.282 69.0795 186.482 68.2395 185.922 67.1462C185.362 66.0529 185.082 64.7729 185.082 63.3062C185.082 61.8395 185.362 60.5662 185.922 59.4862C186.482 58.3929 187.282 57.5529 188.322 56.9662C189.362 56.3795 190.575 56.0862 191.962 56.0862C193.709 56.0862 195.215 56.5662 196.482 57.5262C196.682 57.6862 196.822 57.8462 196.902 58.0062C196.982 58.1662 197.022 58.3662 197.022 58.6062C197.022 58.9529 196.922 59.2529 196.722 59.5062C196.535 59.7462 196.302 59.8662 196.022 59.8662C195.835 59.8662 195.669 59.8462 195.522 59.8062C195.389 59.7529 195.235 59.6662 195.062 59.5462C194.529 59.1995 194.035 58.9529 193.582 58.8062C193.129 58.6462 192.642 58.5662 192.122 58.5662C190.842 58.5662 189.875 58.9662 189.222 59.7662C188.582 60.5529 188.262 61.7329 188.262 63.3062C188.262 66.4795 189.549 68.0662 192.122 68.0662C192.615 68.0662 193.082 67.9929 193.522 67.8462C193.962 67.6862 194.475 67.4329 195.062 67.0862C195.262 66.9662 195.429 66.8862 195.562 66.8462C195.695 66.7929 195.849 66.7662 196.022 66.7662C196.302 66.7662 196.535 66.8929 196.722 67.1462C196.922 67.3862 197.022 67.6795 197.022 68.0262C197.022 68.2662 196.975 68.4729 196.882 68.6462C196.802 68.8062 196.669 68.9595 196.482 69.1062C195.215 70.0662 193.709 70.5462 191.962 70.5462ZM205.017 60.3062C207.297 60.3062 208.437 61.6862 208.437 64.4462V69.0662C208.437 69.5062 208.297 69.8529 208.017 70.1062C207.75 70.3595 207.383 70.4862 206.917 70.4862C206.45 70.4862 206.083 70.3595 205.817 70.1062C205.55 69.8529 205.417 69.5062 205.417 69.0662V64.4062C205.417 63.8195 205.29 63.3862 205.037 63.1062C204.797 62.8129 204.417 62.6662 203.897 62.6662C203.27 62.6662 202.763 62.8662 202.377 63.2662C202.003 63.6662 201.817 64.1995 201.817 64.8662V69.0662C201.817 69.5062 201.683 69.8529 201.417 70.1062C201.15 70.3595 200.783 70.4862 200.317 70.4862C199.85 70.4862 199.477 70.3595 199.197 70.1062C198.93 69.8529 198.797 69.5062 198.797 69.0662V57.5462C198.797 57.1329 198.937 56.7995 199.217 56.5462C199.51 56.2929 199.89 56.1662 200.357 56.1662C200.797 56.1662 201.15 56.2862 201.417 56.5262C201.683 56.7662 201.817 57.0862 201.817 57.4862V61.8462C202.163 61.3395 202.61 60.9595 203.157 60.7062C203.703 60.4395 204.323 60.3062 205.017 60.3062ZM216.551 60.3462C216.951 60.3195 217.265 60.4129 217.491 60.6262C217.731 60.8262 217.851 61.1329 217.851 61.5462C217.851 61.9862 217.745 62.3129 217.531 62.5262C217.318 62.7395 216.938 62.8729 216.391 62.9262L215.791 62.9862C215.058 63.0662 214.525 63.3062 214.191 63.7062C213.871 64.1062 213.711 64.6195 213.711 65.2462V69.0662C213.711 69.5329 213.565 69.8862 213.271 70.1262C212.991 70.3662 212.638 70.4862 212.211 70.4862C211.771 70.4862 211.405 70.3662 211.111 70.1262C210.831 69.8862 210.691 69.5329 210.691 69.0662V61.7262C210.691 61.2862 210.838 60.9462 211.131 60.7062C211.425 60.4662 211.778 60.3462 212.191 60.3462C212.591 60.3462 212.925 60.4662 213.191 60.7062C213.458 60.9329 213.591 61.2529 213.591 61.6662V62.2062C213.831 61.6329 214.191 61.1929 214.671 60.8862C215.165 60.5795 215.698 60.4062 216.271 60.3662L216.551 60.3462ZM223.243 70.5262C222.203 70.5262 221.29 70.3195 220.503 69.9062C219.717 69.4795 219.11 68.8862 218.683 68.1262C218.257 67.3529 218.043 66.4462 218.043 65.4062C218.043 64.3662 218.257 63.4662 218.683 62.7062C219.11 61.9329 219.717 61.3395 220.503 60.9262C221.29 60.5129 222.203 60.3062 223.243 60.3062C224.283 60.3062 225.197 60.5129 225.983 60.9262C226.77 61.3395 227.377 61.9329 227.803 62.7062C228.23 63.4662 228.443 64.3662 228.443 65.4062C228.443 66.4462 228.23 67.3529 227.803 68.1262C227.377 68.8862 226.77 69.4795 225.983 69.9062C225.197 70.3195 224.283 70.5262 223.243 70.5262ZM223.243 68.2262C224.71 68.2262 225.443 67.2862 225.443 65.4062C225.443 64.4595 225.25 63.7529 224.863 63.2862C224.49 62.8195 223.95 62.5862 223.243 62.5862C221.777 62.5862 221.043 63.5262 221.043 65.4062C221.043 67.2862 221.777 68.2262 223.243 68.2262ZM236.441 60.3062C237.614 60.3062 238.488 60.6529 239.061 61.3462C239.634 62.0262 239.921 63.0595 239.921 64.4462V69.0662C239.921 69.5062 239.781 69.8529 239.501 70.1062C239.234 70.3595 238.868 70.4862 238.401 70.4862C237.934 70.4862 237.568 70.3595 237.301 70.1062C237.034 69.8529 236.901 69.5062 236.901 69.0662V64.5862C236.901 63.9195 236.774 63.4329 236.521 63.1262C236.281 62.8195 235.901 62.6662 235.381 62.6662C234.754 62.6662 234.248 62.8662 233.861 63.2662C233.488 63.6662 233.301 64.1995 233.301 64.8662V69.0662C233.301 69.5062 233.168 69.8529 232.901 70.1062C232.634 70.3595 232.268 70.4862 231.801 70.4862C231.334 70.4862 230.961 70.3595 230.681 70.1062C230.414 69.8529 230.281 69.5062 230.281 69.0662V61.7262C230.281 61.3129 230.421 60.9795 230.701 60.7262C230.994 60.4729 231.368 60.3462 231.821 60.3462C232.234 60.3462 232.568 60.4729 232.821 60.7262C233.088 60.9662 233.221 61.2795 233.221 61.6662V61.9462C233.568 61.4129 234.014 61.0062 234.561 60.7262C235.121 60.4462 235.748 60.3062 236.441 60.3062ZM243.696 70.4862C243.256 70.4862 242.889 70.3662 242.596 70.1262C242.316 69.8862 242.176 69.5329 242.176 69.0662V61.7662C242.176 61.2995 242.322 60.9462 242.616 60.7062C242.909 60.4662 243.269 60.3462 243.696 60.3462C244.122 60.3462 244.476 60.4662 244.756 60.7062C245.049 60.9462 245.196 61.2995 245.196 61.7662V69.0662C245.196 69.5329 245.049 69.8862 244.756 70.1262C244.476 70.3662 244.122 70.4862 243.696 70.4862ZM243.696 58.7462C243.162 58.7462 242.742 58.6129 242.436 58.3462C242.129 58.0662 241.976 57.6929 241.976 57.2262C241.976 56.7595 242.129 56.3929 242.436 56.1262C242.742 55.8595 243.162 55.7262 243.696 55.7262C244.216 55.7262 244.629 55.8662 244.936 56.1462C245.256 56.4129 245.416 56.7729 245.416 57.2262C245.416 57.6929 245.262 58.0662 244.956 58.3462C244.649 58.6129 244.229 58.7462 243.696 58.7462ZM252.048 70.5262C251.034 70.5262 250.148 70.3195 249.388 69.9062C248.628 69.4929 248.041 68.9062 247.628 68.1462C247.228 67.3862 247.028 66.4929 247.028 65.4662C247.028 64.4395 247.241 63.5395 247.668 62.7662C248.108 61.9795 248.721 61.3729 249.508 60.9462C250.294 60.5195 251.201 60.3062 252.228 60.3062C252.761 60.3062 253.294 60.3795 253.828 60.5262C254.374 60.6729 254.861 60.8795 255.288 61.1462C255.701 61.3995 255.908 61.7729 255.908 62.2662C255.908 62.6129 255.828 62.8995 255.668 63.1262C255.508 63.3395 255.294 63.4462 255.028 63.4462C254.854 63.4462 254.688 63.4195 254.528 63.3662C254.381 63.2995 254.181 63.2062 253.928 63.0862C253.648 62.9395 253.394 62.8262 253.168 62.7462C252.954 62.6662 252.708 62.6262 252.428 62.6262C251.681 62.6262 251.108 62.8662 250.708 63.3462C250.321 63.8129 250.128 64.4995 250.128 65.4062C250.128 66.3129 250.321 67.0062 250.708 67.4862C251.108 67.9662 251.681 68.2062 252.428 68.2062C252.708 68.2062 252.954 68.1729 253.168 68.1062C253.381 68.0262 253.641 67.9062 253.948 67.7462C254.201 67.6262 254.401 67.5395 254.548 67.4862C254.694 67.4195 254.854 67.3862 255.028 67.3862C255.281 67.3862 255.488 67.4995 255.648 67.7262C255.821 67.9529 255.908 68.2395 255.908 68.5862C255.908 69.0795 255.701 69.4462 255.288 69.6862C254.861 69.9529 254.368 70.1595 253.808 70.3062C253.248 70.4529 252.661 70.5262 252.048 70.5262ZM268.296 70.5462C267.243 70.5462 266.263 70.4262 265.356 70.1862C264.45 69.9329 263.71 69.5795 263.136 69.1262C262.936 68.9795 262.79 68.8262 262.696 68.6662C262.616 68.4929 262.576 68.2795 262.576 68.0262C262.576 67.6929 262.676 67.3995 262.876 67.1462C263.09 66.8929 263.33 66.7662 263.596 66.7662C263.743 66.7662 263.883 66.7929 264.016 66.8462C264.163 66.8862 264.336 66.9662 264.536 67.0862C265.11 67.4462 265.69 67.7129 266.276 67.8862C266.863 68.0462 267.51 68.1262 268.216 68.1262C269.096 68.1262 269.77 67.9795 270.236 67.6862C270.703 67.3929 270.936 66.9729 270.936 66.4262C270.936 66.0129 270.716 65.6795 270.276 65.4262C269.85 65.1729 269.083 64.9329 267.976 64.7062C266.736 64.4529 265.743 64.1462 264.996 63.7862C264.263 63.4262 263.723 62.9795 263.376 62.4462C263.043 61.9129 262.876 61.2662 262.876 60.5062C262.876 59.6662 263.116 58.9129 263.596 58.2462C264.09 57.5662 264.763 57.0395 265.616 56.6662C266.483 56.2795 267.456 56.0862 268.536 56.0862C270.43 56.0862 271.99 56.5595 273.216 57.5062C273.416 57.6662 273.556 57.8329 273.636 58.0062C273.73 58.1662 273.776 58.3662 273.776 58.6062C273.776 58.9395 273.67 59.2329 273.456 59.4862C273.256 59.7395 273.023 59.8662 272.756 59.8662C272.61 59.8662 272.47 59.8462 272.336 59.8062C272.216 59.7662 272.043 59.6795 271.816 59.5462C271.27 59.1995 270.763 58.9395 270.296 58.7662C269.843 58.5929 269.263 58.5062 268.556 58.5062C267.743 58.5062 267.103 58.6662 266.636 58.9862C266.17 59.2929 265.936 59.7195 265.936 60.2662C265.936 60.5862 266.023 60.8529 266.196 61.0662C266.383 61.2662 266.683 61.4462 267.096 61.6062C267.523 61.7662 268.123 61.9329 268.896 62.1062C270.71 62.5062 272.01 63.0195 272.796 63.6462C273.596 64.2729 273.996 65.1329 273.996 66.2262C273.996 67.0795 273.756 67.8329 273.276 68.4862C272.81 69.1395 272.143 69.6462 271.276 70.0062C270.423 70.3662 269.43 70.5462 268.296 70.5462ZM283.944 60.3462C284.41 60.3462 284.777 60.4729 285.044 60.7262C285.324 60.9795 285.464 61.3262 285.464 61.7662V69.1062C285.464 69.5195 285.317 69.8529 285.024 70.1062C284.744 70.3595 284.377 70.4862 283.924 70.4862C283.497 70.4862 283.157 70.3662 282.904 70.1262C282.65 69.8862 282.524 69.5662 282.524 69.1662V68.9662C282.217 69.4729 281.81 69.8595 281.304 70.1262C280.81 70.3929 280.25 70.5262 279.624 70.5262C278.384 70.5262 277.457 70.1862 276.844 69.5062C276.244 68.8129 275.944 67.7729 275.944 66.3862V61.7662C275.944 61.3262 276.077 60.9795 276.344 60.7262C276.624 60.4729 276.997 60.3462 277.464 60.3462C277.93 60.3462 278.297 60.4729 278.564 60.7262C278.83 60.9795 278.964 61.3262 278.964 61.7662V66.4462C278.964 67.0329 279.084 67.4662 279.324 67.7462C279.577 68.0262 279.957 68.1662 280.464 68.1662C281.05 68.1662 281.524 67.9662 281.884 67.5662C282.257 67.1662 282.444 66.6395 282.444 65.9862V61.7662C282.444 61.3262 282.577 60.9795 282.844 60.7262C283.11 60.4729 283.477 60.3462 283.944 60.3462ZM293.121 58.4662C292.574 58.5062 292.181 58.6729 291.941 58.9662C291.701 59.2595 291.581 59.6729 291.581 60.2062V60.5462H292.981C293.888 60.5462 294.341 60.9262 294.341 61.6862C294.341 62.4329 293.888 62.8062 292.981 62.8062H291.581V69.0462C291.581 69.5129 291.434 69.8662 291.141 70.1062C290.861 70.3462 290.508 70.4662 290.081 70.4662C289.641 70.4662 289.274 70.3462 288.981 70.1062C288.701 69.8662 288.561 69.5129 288.561 69.0462V62.8062H287.761C286.868 62.8062 286.421 62.4329 286.421 61.6862C286.421 60.9262 286.868 60.5462 287.761 60.5462H288.561C288.561 59.2662 288.914 58.2595 289.621 57.5262C290.328 56.7929 291.301 56.3795 292.541 56.2862L293.061 56.2462L293.421 56.2262C294.341 56.2262 294.801 56.5795 294.801 57.2862C294.801 57.9795 294.414 58.3595 293.641 58.4262L293.121 58.4662ZM300.367 58.4662C299.821 58.5062 299.427 58.6729 299.187 58.9662C298.947 59.2595 298.827 59.6729 298.827 60.2062V60.5462H300.227C301.134 60.5462 301.587 60.9262 301.587 61.6862C301.587 62.4329 301.134 62.8062 300.227 62.8062H298.827V69.0462C298.827 69.5129 298.681 69.8662 298.387 70.1062C298.107 70.3462 297.754 70.4662 297.327 70.4662C296.887 70.4662 296.521 70.3462 296.227 70.1062C295.947 69.8662 295.807 69.5129 295.807 69.0462V62.8062H295.007C294.114 62.8062 293.667 62.4329 293.667 61.6862C293.667 60.9262 294.114 60.5462 295.007 60.5462H295.807C295.807 59.2662 296.161 58.2595 296.867 57.5262C297.574 56.7929 298.547 56.3795 299.787 56.2862L300.307 56.2462L300.667 56.2262C301.587 56.2262 302.047 56.5795 302.047 57.2862C302.047 57.9795 301.661 58.3595 300.887 58.4262L300.367 58.4662ZM310.329 67.4462C310.596 67.4462 310.809 67.5529 310.969 67.7662C311.142 67.9795 311.229 68.2529 311.229 68.5862C311.229 68.8129 311.162 69.0262 311.029 69.2262C310.896 69.4129 310.709 69.5729 310.469 69.7062C310.016 69.9462 309.489 70.1462 308.889 70.3062C308.289 70.4529 307.736 70.5262 307.229 70.5262C306.162 70.5262 305.229 70.3195 304.429 69.9062C303.642 69.4929 303.036 68.9062 302.609 68.1462C302.182 67.3729 301.969 66.4662 301.969 65.4262C301.969 64.4262 302.176 63.5395 302.589 62.7662C303.002 61.9929 303.576 61.3929 304.309 60.9662C305.042 60.5262 305.876 60.3062 306.809 60.3062C307.702 60.3062 308.482 60.5062 309.149 60.9062C309.829 61.2929 310.356 61.8529 310.729 62.5862C311.102 63.3062 311.289 64.1529 311.289 65.1262C311.289 65.4195 311.216 65.6462 311.069 65.8062C310.936 65.9529 310.742 66.0262 310.489 66.0262H304.889C304.982 66.8129 305.222 67.3862 305.609 67.7462C305.996 68.0929 306.549 68.2662 307.269 68.2662C307.656 68.2662 308.002 68.2195 308.309 68.1262C308.616 68.0329 308.956 67.9062 309.329 67.7462C309.516 67.6662 309.696 67.5995 309.869 67.5462C310.042 67.4795 310.196 67.4462 310.329 67.4462ZM306.889 62.3862C306.316 62.3862 305.856 62.5729 305.509 62.9462C305.162 63.3062 304.956 63.8329 304.889 64.5262H308.749C308.709 63.8195 308.529 63.2862 308.209 62.9262C307.902 62.5662 307.462 62.3862 306.889 62.3862ZM318.973 60.3462C319.373 60.3195 319.686 60.4129 319.913 60.6262C320.153 60.8262 320.273 61.1329 320.273 61.5462C320.273 61.9862 320.166 62.3129 319.953 62.5262C319.74 62.7395 319.36 62.8729 318.813 62.9262L318.213 62.9862C317.48 63.0662 316.946 63.3062 316.613 63.7062C316.293 64.1062 316.133 64.6195 316.133 65.2462V69.0662C316.133 69.5329 315.986 69.8862 315.693 70.1262C315.413 70.3662 315.06 70.4862 314.633 70.4862C314.193 70.4862 313.826 70.3662 313.533 70.1262C313.253 69.8862 313.113 69.5329 313.113 69.0662V61.7262C313.113 61.2862 313.26 60.9462 313.553 60.7062C313.846 60.4662 314.2 60.3462 314.613 60.3462C315.013 60.3462 315.346 60.4662 315.613 60.7062C315.88 60.9329 316.013 61.2529 316.013 61.6662V62.2062C316.253 61.6329 316.613 61.1929 317.093 60.8862C317.586 60.5795 318.12 60.4062 318.693 60.3662L318.973 60.3462ZM322.66 70.4862C322.22 70.4862 321.854 70.3662 321.56 70.1262C321.28 69.8862 321.14 69.5329 321.14 69.0662V61.7662C321.14 61.2995 321.287 60.9462 321.58 60.7062C321.874 60.4662 322.234 60.3462 322.66 60.3462C323.087 60.3462 323.44 60.4662 323.72 60.7062C324.014 60.9462 324.16 61.2995 324.16 61.7662V69.0662C324.16 69.5329 324.014 69.8862 323.72 70.1262C323.44 70.3662 323.087 70.4862 322.66 70.4862ZM322.66 58.7462C322.127 58.7462 321.707 58.6129 321.4 58.3462C321.094 58.0662 320.94 57.6929 320.94 57.2262C320.94 56.7595 321.094 56.3929 321.4 56.1262C321.707 55.8595 322.127 55.7262 322.66 55.7262C323.18 55.7262 323.594 55.8662 323.9 56.1462C324.22 56.4129 324.38 56.7729 324.38 57.2262C324.38 57.6929 324.227 58.0662 323.92 58.3462C323.614 58.6129 323.194 58.7462 322.66 58.7462ZM332.633 60.3062C333.806 60.3062 334.679 60.6529 335.253 61.3462C335.826 62.0262 336.113 63.0595 336.113 64.4462V69.0662C336.113 69.5062 335.973 69.8529 335.693 70.1062C335.426 70.3595 335.059 70.4862 334.593 70.4862C334.126 70.4862 333.759 70.3595 333.493 70.1062C333.226 69.8529 333.093 69.5062 333.093 69.0662V64.5862C333.093 63.9195 332.966 63.4329 332.713 63.1262C332.473 62.8195 332.093 62.6662 331.573 62.6662C330.946 62.6662 330.439 62.8662 330.053 63.2662C329.679 63.6662 329.493 64.1995 329.493 64.8662V69.0662C329.493 69.5062 329.359 69.8529 329.093 70.1062C328.826 70.3595 328.459 70.4862 327.993 70.4862C327.526 70.4862 327.153 70.3595 326.873 70.1062C326.606 69.8529 326.473 69.5062 326.473 69.0662V61.7262C326.473 61.3129 326.613 60.9795 326.893 60.7262C327.186 60.4729 327.559 60.3462 328.013 60.3462C328.426 60.3462 328.759 60.4729 329.013 60.7262C329.279 60.9662 329.413 61.2795 329.413 61.6662V61.9462C329.759 61.4129 330.206 61.0062 330.753 60.7262C331.313 60.4462 331.939 60.3062 332.633 60.3062ZM346.887 60.3462C347.34 60.3462 347.7 60.4795 347.967 60.7462C348.247 60.9995 348.387 61.3395 348.387 61.7662V69.3062C348.387 70.8929 347.927 72.0929 347.007 72.9062C346.087 73.7195 344.74 74.1262 342.967 74.1262C341.474 74.1262 340.247 73.8595 339.287 73.3262C339.047 73.1929 338.86 73.0262 338.727 72.8262C338.594 72.6395 338.527 72.4262 338.527 72.1862C338.527 71.8529 338.607 71.5795 338.767 71.3662C338.927 71.1529 339.14 71.0462 339.407 71.0462C339.554 71.0462 339.727 71.0729 339.927 71.1262C340.127 71.1929 340.334 71.2662 340.547 71.3462C340.974 71.5062 341.367 71.6329 341.727 71.7262C342.087 71.8195 342.474 71.8662 342.887 71.8662C343.74 71.8662 344.374 71.6729 344.787 71.2862C345.2 70.8995 345.407 70.3129 345.407 69.5262V68.4462C345.127 68.9529 344.707 69.3529 344.147 69.6462C343.587 69.9395 342.96 70.0862 342.267 70.0862C341.414 70.0862 340.654 69.8862 339.987 69.4862C339.334 69.0862 338.82 68.5195 338.447 67.7862C338.074 67.0395 337.887 66.1795 337.887 65.2062C337.887 64.2329 338.074 63.3795 338.447 62.6462C338.82 61.8995 339.334 61.3262 339.987 60.9262C340.654 60.5129 341.414 60.3062 342.267 60.3062C342.947 60.3062 343.56 60.4529 344.107 60.7462C344.667 61.0262 345.094 61.4195 345.387 61.9262V61.7262C345.387 61.2995 345.52 60.9662 345.787 60.7262C346.067 60.4729 346.434 60.3462 346.887 60.3462ZM343.147 67.7862C343.854 67.7862 344.4 67.5595 344.787 67.1062C345.187 66.6529 345.387 66.0195 345.387 65.2062C345.387 64.3929 345.187 63.7595 344.787 63.3062C344.4 62.8395 343.854 62.6062 343.147 62.6062C342.44 62.6062 341.887 62.8395 341.487 63.3062C341.087 63.7595 340.887 64.3929 340.887 65.2062C340.887 66.0195 341.087 66.6529 341.487 67.1062C341.887 67.5595 342.44 67.7862 343.147 67.7862Z" fill="white"/>
<circle cx="35" cy="39" r="34.5" fill="#0E0E0F" stroke="white"/>
<circle cx="35" cy="39.0001" r="28.1364" fill="#0E0E0F" stroke="white"/>
<circle cx="35" cy="39.0003" r="21.7727" fill="#0E0E0F" stroke="white"/>
<circle cx="35" cy="39" r="16.5" fill="#0E0E0F" stroke="white" stroke-width="2"/>
<circle cx="35" cy="39.0001" r="10.1364" fill="#0E0E0F" stroke="white" stroke-width="2"/>
<circle cx="35" cy="39.0003" r="3.27273" fill="#0E0E0F" stroke="white" stroke-width="3"/>
</svg>
